<svg xmlns="http://www.w3.org/2000/svg" width="465" height="211" viewBox="0 0 465 211" fill="none">
    <g style="mix-blend-mode:difference">
        <path
            d="M87.8313 2.3875C108.785 2.3875 125.235 6.98958 137.181 16.1937C149.323 25.2021 155.394 37.7354 155.394 53.7938C155.394 65.5438 152.065 75.5313 145.406 83.7563C138.748 91.7855 129.642 97.1709 118.088 99.9125C132.383 102.067 143.546 107.844 151.575 117.244C159.8 126.448 163.913 138.002 163.913 151.906C163.913 169.531 157.254 183.338 143.938 193.325C130.817 203.117 112.604 208.013 89.3 208.013H0V2.3875H87.8313ZM86.3625 89.6313C99.0917 89.6313 108.883 86.9875 115.738 81.7001C122.788 76.2167 126.313 68.4813 126.313 58.4938C126.313 48.7021 122.788 41.1625 115.738 35.875C108.883 30.5875 99.0917 28.0417 86.3625 28.2375H28.2V89.6313H86.3625ZM86.3625 182.163C101.638 182.358 113.583 179.519 122.2 173.644C130.817 167.573 135.125 159.152 135.125 148.381C135.125 138.002 130.817 129.875 122.2 124C113.583 118.125 101.638 115.188 86.3625 115.188H28.2V182.163H86.3625Z"
            fill="#EDEDED" />
        <path d="M209.125 2.3875H237.325V208.013H209.125V2.3875Z" fill="#EDEDED" />
        <path
            d="M438.22 107.55H463.189V183.044C452.81 191.269 440.668 197.829 426.764 202.725C412.86 207.621 399.053 210.069 385.345 210.069C365.566 210.069 347.451 205.467 331.001 196.263C314.551 186.863 301.528 174.133 291.933 158.075C282.533 141.821 277.833 124.098 277.833 104.906C277.833 85.7146 282.63 68.1875 292.226 52.325C301.822 36.2667 314.943 23.6354 331.589 14.4313C348.235 5.22709 366.643 0.625 386.814 0.625C401.11 0.625 415.014 3.17084 428.526 8.26251C442.235 13.3542 454.083 20.3063 464.07 29.1188L447.914 49.6813C439.689 42.0438 430.191 36.1688 419.42 32.0563C408.845 27.7479 397.976 25.5938 386.814 25.5938C372.126 25.5938 358.614 29.1188 346.276 36.1688C333.939 43.2188 324.147 52.8146 316.901 64.9563C309.851 77.098 306.326 90.4146 306.326 104.906C306.326 119.398 309.949 132.813 317.195 145.15C324.441 157.292 334.233 166.986 346.57 174.231C358.908 181.281 372.42 184.806 387.108 184.806C395.724 184.806 404.439 183.436 413.251 180.694C422.26 177.756 430.583 173.742 438.22 168.65V107.55Z"
            fill="#EDEDED" />
    </g>
</svg>