<svg width="217" height="51" viewBox="0 0 217 51" fill="none" xmlns="http://www.w3.org/2000/svg">
<path d="M10 0.5H207C212.247 0.5 216.5 4.7533 216.5 10V31C216.5 41.7696 207.77 50.5 197 50.5H10C4.7533 50.5 0.5 46.2467 0.5 41V10C0.5 4.75329 4.7533 0.5 10 0.5Z" fill="url(#paint0_linear_386_7931)"/>
<path d="M19.44 24.86C20.1867 24.9933 20.82 25.3867 21.34 26.04C21.86 26.6933 22.12 27.4333 22.12 28.26C22.12 28.9667 21.9333 29.6067 21.56 30.18C21.2 30.74 20.6733 31.1867 19.98 31.52C19.2867 31.84 18.48 32 17.56 32H12V18.1H17.3C18.2467 18.1 19.06 18.26 19.74 18.58C20.42 18.9 20.9333 19.3333 21.28 19.88C21.6267 20.4133 21.8 21.0133 21.8 21.68C21.8 22.48 21.5867 23.1467 21.16 23.68C20.7333 24.2133 20.16 24.6067 19.44 24.86ZM14.28 23.94H17.1C17.8467 23.94 18.4267 23.7733 18.84 23.44C19.2667 23.0933 19.48 22.6 19.48 21.96C19.48 21.3333 19.2667 20.8467 18.84 20.5C18.4267 20.14 17.8467 19.96 17.1 19.96H14.28V23.94ZM17.36 30.14C18.1333 30.14 18.74 29.9533 19.18 29.58C19.62 29.2067 19.84 28.6867 19.84 28.02C19.84 27.34 19.6067 26.8 19.14 26.4C18.6733 26 18.0533 25.8 17.28 25.8H14.28V30.14H17.36ZM34.5777 20.98V32H32.2977V30.7C31.9377 31.1533 31.4643 31.5133 30.8777 31.78C30.3043 32.0333 29.691 32.16 29.0377 32.16C28.171 32.16 27.391 31.98 26.6977 31.62C26.0177 31.26 25.4777 30.7267 25.0777 30.02C24.691 29.3133 24.4977 28.46 24.4977 27.46V20.98H26.7577V27.12C26.7577 28.1067 27.0043 28.8667 27.4977 29.4C27.991 29.92 28.6643 30.18 29.5177 30.18C30.371 30.18 31.0443 29.92 31.5377 29.4C32.0443 28.8667 32.2977 28.1067 32.2977 27.12V20.98H34.5777ZM40.2459 22.84V28.94C40.2459 29.3533 40.3393 29.6533 40.5259 29.84C40.7259 30.0133 41.0593 30.1 41.5259 30.1H42.9259V32H41.1259C40.0993 32 39.3126 31.76 38.7659 31.28C38.2193 30.8 37.9459 30.02 37.9459 28.94V22.84H36.6459V20.98H37.9459V18.24H40.2459V20.98H42.9259V22.84H40.2459ZM47.6873 22.84V28.94C47.6873 29.3533 47.7807 29.6533 47.9673 29.84C48.1673 30.0133 48.5007 30.1 48.9673 30.1H50.3673V32H48.5673C47.5407 32 46.754 31.76 46.2073 31.28C45.6607 30.8 45.3873 30.02 45.3873 28.94V22.84H44.0873V20.98H45.3873V18.24H47.6873V20.98H50.3673V22.84H47.6873ZM57.2488 32.18C56.2088 32.18 55.2688 31.9467 54.4288 31.48C53.5888 31 52.9288 30.3333 52.4488 29.48C51.9688 28.6133 51.7288 27.6133 51.7288 26.48C51.7288 25.36 51.9754 24.3667 52.4688 23.5C52.9621 22.6333 53.6354 21.9667 54.4888 21.5C55.3421 21.0333 56.2954 20.8 57.3488 20.8C58.4021 20.8 59.3554 21.0333 60.2088 21.5C61.0621 21.9667 61.7354 22.6333 62.2288 23.5C62.7221 24.3667 62.9688 25.36 62.9688 26.48C62.9688 27.6 62.7154 28.5933 62.2088 29.46C61.7021 30.3267 61.0088 31 60.1288 31.48C59.2621 31.9467 58.3021 32.18 57.2488 32.18ZM57.2488 30.2C57.8354 30.2 58.3821 30.06 58.8888 29.78C59.4088 29.5 59.8288 29.08 60.1488 28.52C60.4688 27.96 60.6288 27.28 60.6288 26.48C60.6288 25.68 60.4754 25.0067 60.1688 24.46C59.8621 23.9 59.4554 23.48 58.9488 23.2C58.4421 22.92 57.8954 22.78 57.3088 22.78C56.7221 22.78 56.1754 22.92 55.6688 23.2C55.1754 23.48 54.7821 23.9 54.4888 24.46C54.1954 25.0067 54.0488 25.68 54.0488 26.48C54.0488 27.6667 54.3488 28.5867 54.9488 29.24C55.5621 29.88 56.3288 30.2 57.2488 30.2ZM70.7827 20.8C71.6493 20.8 72.4227 20.98 73.1027 21.34C73.796 21.7 74.336 22.2333 74.7227 22.94C75.1093 23.6467 75.3027 24.5 75.3027 25.5V32H73.0427V25.84C73.0427 24.8533 72.796 24.1 72.3027 23.58C71.8093 23.0467 71.136 22.78 70.2827 22.78C69.4293 22.78 68.7493 23.0467 68.2427 23.58C67.7493 24.1 67.5027 24.8533 67.5027 25.84V32H65.2227V20.98H67.5027V22.24C67.876 21.7867 68.3493 21.4333 68.9227 21.18C69.5093 20.9267 70.1293 20.8 70.7827 20.8Z" fill="white"/>
<circle cx="188" cy="26" r="12" fill="white"/>
<path d="M181.75 32.25L194.25 19.75M194.25 19.75L184.875 19.75M194.25 19.75L194.25 29.125" stroke="#38B990" stroke-width="1.25" stroke-linecap="round" stroke-linejoin="round"/>
<path d="M10 0.5H207C212.247 0.5 216.5 4.7533 216.5 10V31C216.5 41.7696 207.77 50.5 197 50.5H10C4.7533 50.5 0.5 46.2467 0.5 41V10C0.5 4.75329 4.7533 0.5 10 0.5Z" stroke="url(#paint1_linear_386_7931)"/>
<defs>
<linearGradient id="paint0_linear_386_7931" x1="9" y1="12.5" x2="209.5" y2="39" gradientUnits="userSpaceOnUse">
<stop stop-color="#96E4DF"/>
<stop offset="0.760417" stop-color="#4DCCC6"/>
</linearGradient>
<linearGradient id="paint1_linear_386_7931" x1="8" y1="3.00001" x2="208.5" y2="47" gradientUnits="userSpaceOnUse">
<stop stop-color="#38B990"/>
<stop offset="1" stop-color="#00FFFF"/>
</linearGradient>
</defs>
</svg>
