<svg width="240" height="120" viewBox="0 0 240 120" fill="none" xmlns="http://www.w3.org/2000/svg">
<path d="M59.0776 39.524C57.6176 35.88 54.0616 31.924 47.4016 32.484C38.9176 33.404 36.2736 41.538 37.5556 46.388C34.1556 44.1 28.4296 43.094 23.4156 47.388C16.9396 53.88 20.4036 62.658 23.9636 64.764C20.0396 64.4 13.8396 67.052 12.4676 73.964C11.0076 82.574 17.5716 87.594 23.9636 87.594H94.8176C102.208 87.594 106.31 81.2 105.85 75.17C105.124 67.3 97.9236 64.28 93.9956 64.93C97.2756 63.098 101.662 54.498 94.9956 47.736C89.7056 42.704 82.9596 44.536 80.5896 46.73C81.8696 42.526 79.7896 33.836 71.1896 32.462C70.6226 32.3964 70.0524 32.3623 69.4816 32.36C62.9316 32.36 59.9856 37.15 59.0816 39.504" fill="white"/>
<path d="M24.5917 48.7601C20.8517 52.1481 19.4877 59.82 26.2317 64.31L53.1417 82.7701L40.0937 52.8781C37.3597 45.8241 29.8797 44.2861 24.5897 48.7581" fill="#F37021"/>
<path d="M47.7583 34.226C43.3843 34.316 36.8183 39.526 39.7583 47.478L53.2543 79.304L57.9943 45.828C59.0943 37.508 52.7943 33.668 47.7943 34.224" fill="#CC004C"/>
<path d="M60.0775 44.5539H62.6295C62.6295 44.5539 63.9895 44.5539 64.1775 45.1939C63.1735 45.9939 60.4375 46.1139 60.8035 50.4979L65.0935 79.2979L78.4935 47.3879C81.2335 40.2639 75.4815 34.3119 70.3735 34.1279L69.6475 34.0959C65.0475 34.0959 59.8155 37.4259 60.0715 44.5459" fill="#6460AA"/>
<path d="M77.9582 53.15L65.2822 82.684L92.1822 64.124C98.3822 59.724 97.3822 52.694 93.9122 49.218C92.4562 47.582 89.7842 46.318 86.9522 46.318C83.6082 46.318 80.0322 48.092 77.9522 53.15" fill="#0089D0"/>
<path d="M89.1722 68.328L63.9082 85.976H95.0182C101.418 85.976 105.502 79.3761 103.678 73.3761C102.478 69.5801 98.8442 66.6 94.6502 66.576C92.8842 66.576 91.0082 67.108 89.1722 68.328Z" fill="#0DB14B"/>
<path d="M23.8662 85.974H54.5162L29.2462 68.326C23.4062 64.574 16.8462 66.77 14.4742 72.994C12.4662 80.12 17.4802 85.994 23.8682 85.994" fill="#FCB711"/>
<path d="M109.258 59.908C109.258 63.718 112.374 70.654 124.268 70.654C135.234 70.654 138.698 65.622 138.698 63.314H130.208C130.208 63.314 129.804 66.36 125.018 66.36C120.232 66.36 118.93 62.36 118.93 60.046C118.93 57.732 120.226 53.958 125.018 53.958C129.81 53.958 130.21 56.612 130.21 56.612H138.698C138.698 54.302 136.158 49.34 124.268 49.34C112.378 49.34 109.258 56.728 109.258 59.904M198.302 59.906C198.302 63.716 201.422 70.652 213.312 70.652C224.278 70.652 227.742 65.62 227.742 63.312H219.258C219.258 63.312 218.852 66.36 214.062 66.36C209.272 66.36 207.972 62.36 207.972 60.046C207.972 57.732 209.272 53.958 214.062 53.958C218.852 53.958 219.258 56.612 219.258 56.612H227.742C227.742 54.302 225.202 49.34 213.312 49.34C201.422 49.34 198.302 56.73 198.302 59.906ZM161.906 49.72V62.62L152.026 49.72H140.91V70.152H148.51V57.104L158.218 70.152H169.506V49.72H161.906ZM186.306 65.252V65.278H179.978V61.526H186.328V61.52C187.684 61.52 188.78 62.354 188.78 63.38C188.78 64.406 187.684 65.234 186.328 65.234M180.038 53.634H186.158V53.642C187.194 53.642 188.038 54.322 188.038 55.162C188.038 56.002 187.198 56.682 186.158 56.682V56.692H180.018L180.038 53.634ZM192.564 59.23C193.952 59.23 196.852 57.62 196.852 54.5C196.852 50.06 188.58 49.66 187.312 49.66H172.072V70.092H187.312C194.642 70.092 197.588 67.776 197.588 63.908C197.588 60.04 192.588 59.228 192.588 59.228L192.564 59.23Z" fill="#292526"/>
</svg>
