<svg width="390" height="360" viewBox="0 0 390 360" fill="none" xmlns="http://www.w3.org/2000/svg">
<g filter="url(#filter0_bd_1351_21729)">
<rect x="27" y="23.1976" width="326" height="295.885" rx="32.3741" fill="black" fill-opacity="0.5" shape-rendering="crispEdges"/>
<path d="M85.0453 84.5972H98.2053V150.397H83.1653V100.483L71.5093 103.679L67.8433 90.8012L85.0453 84.5972ZM134.425 151.713C117.411 151.713 107.635 137.801 107.635 117.497C107.635 97.1932 117.411 83.2812 134.425 83.2812C151.439 83.2812 161.215 97.1932 161.215 117.497C161.215 137.801 151.439 151.713 134.425 151.713ZM134.425 137.049C142.321 137.049 146.175 130.187 146.175 117.497C146.175 104.807 142.321 97.9452 134.425 97.9452C126.529 97.9452 122.675 104.807 122.675 117.497C122.675 130.187 126.529 137.049 134.425 137.049Z" fill="#089B72"/>
<g filter="url(#filter1_d_1351_21729)">
<path d="M151.548 180.525C149.724 180.542 148.903 179.848 148.501 178.101L148.479 177.991C147.514 173.101 150.318 167.354 152.691 162.89C157.348 154.094 163.328 147.663 169.969 140.53C170.443 140.037 170.74 139.522 170.962 138.907C171.881 136.043 173.175 132.477 173.885 129.711C173.83 129.722 173.764 129.678 173.698 129.634C173.478 129.963 173.191 130.248 172.971 130.576C171.351 132.78 166.47 138.994 164.192 140.471C163.84 140.712 163.412 140.854 163.082 140.919C161.983 141.135 161.117 140.507 160.868 139.244L160.803 138.914C160.07 133.465 164.176 125.348 166.044 124.98C166.264 124.936 166.44 124.959 166.582 125.102C166.79 125.289 166.889 125.498 166.932 125.718C167.073 126.432 166.599 127.21 166.201 128.088C164.843 131.039 163.901 134.079 163.278 137.284C163.189 137.701 163.045 138.129 163.132 138.568C163.175 138.788 163.263 138.942 163.361 139.151C163.955 138.691 164.516 138.352 164.99 137.859C169.723 133.5 171.918 130.156 175.62 125.202C175.753 125.004 175.874 124.752 176.072 124.599C176.226 124.511 176.38 124.424 176.49 124.402C176.82 124.337 177.028 124.525 177.093 124.854L177.136 125.074C177.179 125.579 174.476 134.446 174.111 135.774L174.143 135.939C174.154 135.994 174.176 136.104 174.153 136.279C179.207 131.229 184.644 126.96 190.638 123.494C190.704 123.538 190.78 123.637 190.846 123.681C190.714 123.879 190.582 124.076 190.383 124.229C189.382 124.941 188.37 125.597 187.358 126.253C182.374 129.634 177.916 133.653 173.753 138.014C173.379 138.43 173.092 139 172.915 139.549C171.785 143.368 170.765 147.165 169.624 150.93C166.989 159.269 163.284 169.133 158.093 176.379C156.803 178.232 154.58 179.984 152.383 180.417C152.108 180.472 151.833 180.526 151.548 180.525ZM150.187 171.318C149.512 173.392 149.232 175.445 149.644 177.533L149.688 177.753C149.948 179.071 150.529 179.413 151.968 179.186L152.133 179.154C153.726 178.839 155.41 177.537 156.369 176.32C159.939 171.563 162.358 166.462 164.283 160.888C165.854 156.411 169.064 146.645 169.899 142.199C168.027 143.995 165.659 146.746 163.941 148.74C158.356 155.151 152.855 163.143 150.187 171.318Z" fill="#22B691"/>
</g>
<path opacity="0.6" d="M75.3918 220.09C74.4684 221.002 73.3471 221.457 72.0279 221.457C70.7087 221.457 69.5874 221.002 68.664 220.09C67.7526 219.179 67.2969 218.057 67.2969 216.726C67.2969 215.395 67.7526 214.274 68.664 213.362C69.5874 212.451 70.7087 211.995 72.0279 211.995C73.3471 211.995 74.4684 212.451 75.3918 213.362C76.3152 214.274 76.7769 215.395 76.7769 216.726C76.7769 218.057 76.3152 219.179 75.3918 220.09ZM72.0279 219.928C72.9273 219.928 73.6829 219.623 74.2945 219.011C74.9061 218.399 75.2119 217.638 75.2119 216.726C75.2119 215.815 74.9061 215.053 74.2945 214.442C73.6829 213.83 72.9273 213.524 72.0279 213.524C71.1405 213.524 70.3909 213.83 69.7793 214.442C69.1677 215.053 68.8619 215.815 68.8619 216.726C68.8619 217.638 69.1677 218.399 69.7793 219.011C70.3909 219.623 71.1405 219.928 72.0279 219.928ZM82.9113 209.909C81.3282 209.777 80.5367 210.46 80.5367 211.959V212.229H82.9113V213.74H80.5367V221.224H78.9717V213.74H77.5326V212.229H78.9717V211.959C78.9717 210.748 79.3075 209.831 79.9791 209.207C80.6627 208.583 81.64 208.314 82.9113 208.398V209.909ZM94.8062 212.229H96.3712V221.224H94.8062V219.928C94.1706 220.948 93.1992 221.457 91.892 221.457C90.8367 221.457 89.9912 221.128 89.3556 220.468C88.72 219.796 88.4022 218.891 88.4022 217.752V212.229H89.9672V217.662C89.9672 218.393 90.1651 218.963 90.5608 219.371C90.9566 219.766 91.5023 219.964 92.1978 219.964C92.9773 219.964 93.6069 219.724 94.0866 219.245C94.5663 218.753 94.8062 218.004 94.8062 216.996V212.229ZM103.233 211.995C104.288 211.995 105.134 212.331 105.77 213.003C106.405 213.662 106.723 214.562 106.723 215.701V221.224H105.158V215.791C105.158 215.059 104.96 214.496 104.564 214.1C104.169 213.692 103.623 213.488 102.927 213.488C102.148 213.488 101.518 213.734 101.038 214.226C100.559 214.706 100.319 215.449 100.319 216.456V221.224H98.7539V212.229H100.319V213.524C100.955 212.505 101.926 211.995 103.233 211.995ZM119.38 212.229H121.017L118.229 221.224H116.628L114.523 214.568L112.418 221.224H110.817L108.029 212.229H109.666L111.645 219.065L113.768 212.229H115.279L117.401 219.083L119.38 212.229ZM129.724 212.229H131.289V221.224H129.724V219.676C128.944 220.864 127.811 221.457 126.324 221.457C125.065 221.457 123.991 221.002 123.104 220.09C122.216 219.167 121.773 218.045 121.773 216.726C121.773 215.407 122.216 214.292 123.104 213.38C123.991 212.457 125.065 211.995 126.324 211.995C127.811 211.995 128.944 212.589 129.724 213.776V212.229ZM126.522 219.946C127.433 219.946 128.195 219.64 128.806 219.029C129.418 218.405 129.724 217.638 129.724 216.726C129.724 215.815 129.418 215.053 128.806 214.442C128.195 213.818 127.433 213.506 126.522 213.506C125.622 213.506 124.867 213.818 124.255 214.442C123.643 215.053 123.338 215.815 123.338 216.726C123.338 217.638 123.643 218.405 124.255 219.029C124.867 219.64 125.622 219.946 126.522 219.946ZM139.956 212.229H141.647L138.049 221.224H136.214L132.617 212.229H134.307L137.132 219.551L139.956 212.229ZM143.716 217.446C143.872 218.249 144.238 218.873 144.814 219.317C145.401 219.76 146.121 219.982 146.972 219.982C148.16 219.982 149.023 219.545 149.563 218.669L150.894 219.425C150.018 220.78 148.699 221.457 146.936 221.457C145.509 221.457 144.346 221.014 143.447 220.126C142.559 219.227 142.115 218.093 142.115 216.726C142.115 215.371 142.553 214.244 143.429 213.344C144.304 212.445 145.437 211.995 146.828 211.995C148.148 211.995 149.221 212.463 150.048 213.398C150.888 214.322 151.308 215.437 151.308 216.744C151.308 216.972 151.29 217.206 151.254 217.446H143.716ZM146.828 213.47C145.989 213.47 145.293 213.71 144.742 214.19C144.19 214.658 143.848 215.287 143.716 216.079H149.725C149.593 215.227 149.257 214.58 148.717 214.136C148.178 213.692 147.548 213.47 146.828 213.47ZM154.672 213.74C155.187 212.625 156.123 212.067 157.478 212.067V213.704C156.71 213.668 156.051 213.872 155.499 214.316C154.948 214.76 154.672 215.473 154.672 216.456V221.224H153.107V212.229H154.672V213.74ZM159.801 210.592C159.501 210.592 159.249 210.49 159.045 210.286C158.841 210.082 158.739 209.837 158.739 209.549C158.739 209.261 158.841 209.015 159.045 208.811C159.249 208.595 159.501 208.487 159.801 208.487C160.089 208.487 160.334 208.595 160.538 208.811C160.742 209.015 160.844 209.261 160.844 209.549C160.844 209.837 160.742 210.082 160.538 210.286C160.334 210.49 160.089 210.592 159.801 210.592ZM159.009 221.224V212.229H160.574V221.224H159.009ZM167.441 211.995C168.496 211.995 169.342 212.331 169.978 213.003C170.613 213.662 170.931 214.562 170.931 215.701V221.224H169.366V215.791C169.366 215.059 169.168 214.496 168.772 214.1C168.377 213.692 167.831 213.488 167.135 213.488C166.356 213.488 165.726 213.734 165.246 214.226C164.767 214.706 164.527 215.449 164.527 216.456V221.224H162.962V212.229H164.527V213.524C165.163 212.505 166.134 211.995 167.441 211.995ZM180.581 212.229H182.128V220.846C182.128 222.177 181.678 223.208 180.779 223.94C179.88 224.683 178.8 225.055 177.541 225.055C176.534 225.055 175.664 224.863 174.933 224.479C174.201 224.108 173.649 223.568 173.278 222.86L174.645 222.087C175.136 223.094 176.114 223.598 177.577 223.598C178.512 223.598 179.244 223.352 179.772 222.86C180.311 222.369 180.581 221.697 180.581 220.846V219.569C179.79 220.768 178.662 221.367 177.199 221.367C175.916 221.367 174.831 220.912 173.943 220C173.056 219.089 172.612 217.98 172.612 216.672C172.612 215.365 173.056 214.262 173.943 213.362C174.831 212.451 175.916 211.995 177.199 211.995C178.674 211.995 179.802 212.589 180.581 213.776V212.229ZM175.094 218.957C175.706 219.569 176.468 219.874 177.379 219.874C178.29 219.874 179.052 219.569 179.664 218.957C180.275 218.345 180.581 217.584 180.581 216.672C180.581 215.773 180.275 215.017 179.664 214.406C179.052 213.794 178.29 213.488 177.379 213.488C176.468 213.488 175.706 213.794 175.094 214.406C174.483 215.017 174.177 215.773 174.177 216.672C174.177 217.584 174.483 218.345 175.094 218.957ZM72.0279 246.457C70.6727 246.457 69.5455 246.008 68.646 245.108C67.7466 244.197 67.2969 243.069 67.2969 241.726C67.2969 240.383 67.7466 239.262 68.646 238.362C69.5455 237.451 70.6727 236.995 72.0279 236.995C72.9154 236.995 73.7129 237.211 74.4204 237.643C75.128 238.063 75.6556 238.632 76.0034 239.352L74.6902 240.107C74.4624 239.628 74.1086 239.244 73.6289 238.956C73.1612 238.668 72.6275 238.524 72.0279 238.524C71.1285 238.524 70.3729 238.83 69.7613 239.442C69.1617 240.053 68.8619 240.815 68.8619 241.726C68.8619 242.626 69.1617 243.381 69.7613 243.993C70.3729 244.605 71.1285 244.91 72.0279 244.91C72.6275 244.91 73.1672 244.772 73.6469 244.497C74.1266 244.209 74.4924 243.825 74.7442 243.345L76.0754 244.119C75.6916 244.826 75.14 245.396 74.4204 245.828C73.7009 246.247 72.9034 246.457 72.0279 246.457ZM85.0889 245.09C84.1655 246.002 83.0442 246.457 81.725 246.457C80.4058 246.457 79.2845 246.002 78.3611 245.09C77.4496 244.179 76.9939 243.057 76.9939 241.726C76.9939 240.395 77.4496 239.274 78.3611 238.362C79.2845 237.451 80.4058 236.995 81.725 236.995C83.0442 236.995 84.1655 237.451 85.0889 238.362C86.0123 239.274 86.474 240.395 86.474 241.726C86.474 243.057 86.0123 244.179 85.0889 245.09ZM81.725 244.928C82.6244 244.928 83.3799 244.623 83.9916 244.011C84.6032 243.399 84.909 242.638 84.909 241.726C84.909 240.815 84.6032 240.053 83.9916 239.442C83.3799 238.83 82.6244 238.524 81.725 238.524C80.8375 238.524 80.088 238.83 79.4764 239.442C78.8648 240.053 78.559 240.815 78.559 241.726C78.559 242.638 78.8648 243.399 79.4764 244.011C80.088 244.623 80.8375 244.928 81.725 244.928ZM98.0329 236.995C99.0403 236.995 99.8558 237.325 100.479 237.985C101.103 238.632 101.415 239.514 101.415 240.629V246.224H99.8498V240.683C99.8498 239.987 99.6699 239.448 99.3101 239.064C98.9504 238.68 98.4707 238.488 97.871 238.488C97.1995 238.488 96.6598 238.716 96.252 239.172C95.8563 239.616 95.6584 240.299 95.6584 241.223V246.224H94.0934V240.683C94.0934 239.987 93.9195 239.448 93.5717 239.064C93.2359 238.68 92.7742 238.488 92.1866 238.488C91.527 238.488 90.9753 238.716 90.5316 239.172C90.0999 239.628 89.884 240.311 89.884 241.223V246.224H88.319V237.229H89.884V238.434C90.4956 237.475 91.3891 236.995 92.5643 236.995C93.7756 236.995 94.657 237.505 95.2087 238.524C95.8323 237.505 96.7737 236.995 98.0329 236.995ZM113.299 236.995C114.306 236.995 115.122 237.325 115.745 237.985C116.369 238.632 116.681 239.514 116.681 240.629V246.224H115.116V240.683C115.116 239.987 114.936 239.448 114.576 239.064C114.216 238.68 113.737 238.488 113.137 238.488C112.465 238.488 111.926 238.716 111.518 239.172C111.122 239.616 110.924 240.299 110.924 241.223V246.224H109.359V240.683C109.359 239.987 109.185 239.448 108.838 239.064C108.502 238.68 108.04 238.488 107.452 238.488C106.793 238.488 106.241 238.716 105.797 239.172C105.366 239.628 105.15 240.311 105.15 241.223V246.224H103.585V237.229H105.15V238.434C105.762 237.475 106.655 236.995 107.83 236.995C109.041 236.995 109.923 237.505 110.475 238.524C111.098 237.505 112.04 236.995 113.299 236.995ZM119.642 235.592C119.342 235.592 119.091 235.49 118.887 235.286C118.683 235.082 118.581 234.837 118.581 234.549C118.581 234.261 118.683 234.015 118.887 233.811C119.091 233.595 119.342 233.487 119.642 233.487C119.93 233.487 120.176 233.595 120.38 233.811C120.584 234.015 120.686 234.261 120.686 234.549C120.686 234.837 120.584 235.082 120.38 235.286C120.176 235.49 119.93 235.592 119.642 235.592ZM118.851 246.224V237.229H120.416V246.224H118.851ZM127.696 238.74H125.304V243.615C125.304 244.059 125.388 244.377 125.556 244.569C125.736 244.748 126.005 244.844 126.365 244.856C126.725 244.856 127.169 244.844 127.696 244.82V246.224C126.329 246.403 125.328 246.295 124.692 245.9C124.057 245.492 123.739 244.73 123.739 243.615V238.74H121.958V237.229H123.739V235.178L125.304 234.711V237.229H127.696V238.74ZM139.316 236.995C140.323 236.995 141.139 237.325 141.762 237.985C142.386 238.632 142.698 239.514 142.698 240.629V246.224H141.133V240.683C141.133 239.987 140.953 239.448 140.593 239.064C140.233 238.68 139.754 238.488 139.154 238.488C138.482 238.488 137.943 238.716 137.535 239.172C137.139 239.616 136.941 240.299 136.941 241.223V246.224H135.376V240.683C135.376 239.987 135.202 239.448 134.855 239.064C134.519 238.68 134.057 238.488 133.469 238.488C132.81 238.488 132.258 238.716 131.814 239.172C131.383 239.628 131.167 240.311 131.167 241.223V246.224H129.602V237.229H131.167V238.434C131.778 237.475 132.672 236.995 133.847 236.995C135.058 236.995 135.94 237.505 136.492 238.524C137.115 237.505 138.057 236.995 139.316 236.995ZM145.965 242.446C146.121 243.249 146.487 243.873 147.062 244.317C147.65 244.76 148.37 244.982 149.221 244.982C150.408 244.982 151.272 244.545 151.811 243.669L153.143 244.425C152.267 245.78 150.948 246.457 149.185 246.457C147.758 246.457 146.595 246.014 145.695 245.126C144.808 244.227 144.364 243.093 144.364 241.726C144.364 240.371 144.802 239.244 145.677 238.344C146.553 237.445 147.686 236.995 149.077 236.995C150.396 236.995 151.47 237.463 152.297 238.398C153.137 239.322 153.556 240.437 153.556 241.744C153.556 241.972 153.538 242.206 153.502 242.446H145.965ZM149.077 238.47C148.238 238.47 147.542 238.71 146.99 239.19C146.439 239.658 146.097 240.287 145.965 241.079H151.973C151.841 240.227 151.506 239.58 150.966 239.136C150.426 238.692 149.797 238.47 149.077 238.47ZM159.835 236.995C160.89 236.995 161.735 237.331 162.371 238.003C163.007 238.662 163.324 239.562 163.324 240.701V246.224H161.759V240.791C161.759 240.059 161.561 239.496 161.166 239.1C160.77 238.692 160.224 238.488 159.529 238.488C158.749 238.488 158.12 238.734 157.64 239.226C157.16 239.706 156.92 240.449 156.92 241.456V246.224H155.355V237.229H156.92V238.524C157.556 237.505 158.527 236.995 159.835 236.995ZM170.402 238.74H168.01V243.615C168.01 244.059 168.094 244.377 168.261 244.569C168.441 244.748 168.711 244.844 169.071 244.856C169.431 244.856 169.874 244.844 170.402 244.82V246.224C169.035 246.403 168.034 246.295 167.398 245.9C166.762 245.492 166.445 244.73 166.445 243.615V238.74H164.664V237.229H166.445V235.178L168.01 234.711V237.229H170.402V238.74ZM72.6935 263.74H70.301V268.615C70.301 269.059 70.3849 269.377 70.5528 269.569C70.7327 269.748 71.0025 269.844 71.3623 269.856C71.7221 269.856 72.1658 269.844 72.6935 269.82V271.224C71.3263 271.403 70.325 271.295 69.6894 270.9C69.0538 270.492 68.736 269.73 68.736 268.615V263.74H66.9551V262.229H68.736V260.178L70.301 259.711V262.229H72.6935V263.74ZM81.6809 270.09C80.7574 271.002 79.6361 271.457 78.317 271.457C76.9978 271.457 75.8765 271.002 74.953 270.09C74.0416 269.179 73.5859 268.057 73.5859 266.726C73.5859 265.395 74.0416 264.274 74.953 263.362C75.8765 262.451 76.9978 261.995 78.317 261.995C79.6361 261.995 80.7574 262.451 81.6809 263.362C82.6043 264.274 83.066 265.395 83.066 266.726C83.066 268.057 82.6043 269.179 81.6809 270.09ZM78.317 269.928C79.2164 269.928 79.9719 269.623 80.5835 269.011C81.1952 268.399 81.501 267.638 81.501 266.726C81.501 265.815 81.1952 265.053 80.5835 264.442C79.9719 263.83 79.2164 263.524 78.317 263.524C77.4295 263.524 76.68 263.83 76.0684 264.442C75.4567 265.053 75.1509 265.815 75.1509 266.726C75.1509 267.638 75.4567 268.399 76.0684 269.011C76.68 269.623 77.4295 269.928 78.317 269.928ZM93.6355 271.457C92.2804 271.457 91.1531 271.008 90.2536 270.108C89.3542 269.197 88.9045 268.069 88.9045 266.726C88.9045 265.383 89.3542 264.262 90.2536 263.362C91.1531 262.451 92.2804 261.995 93.6355 261.995C94.523 261.995 95.3205 262.211 96.028 262.643C96.7356 263.063 97.2633 263.632 97.611 264.352L96.2979 265.107C96.07 264.628 95.7162 264.244 95.2365 263.956C94.7688 263.668 94.2351 263.524 93.6355 263.524C92.7361 263.524 91.9806 263.83 91.3689 264.442C90.7693 265.053 90.4695 265.815 90.4695 266.726C90.4695 267.626 90.7693 268.381 91.3689 268.993C91.9806 269.605 92.7361 269.91 93.6355 269.91C94.2351 269.91 94.7748 269.772 95.2545 269.497C95.7342 269.209 96.1 268.825 96.3518 268.345L97.683 269.119C97.2992 269.826 96.7476 270.396 96.028 270.828C95.3085 271.247 94.511 271.457 93.6355 271.457ZM99.2282 271.224V258.092H100.793V271.224H99.2282ZM103.972 260.592C103.673 260.592 103.421 260.49 103.217 260.286C103.013 260.082 102.911 259.837 102.911 259.549C102.911 259.261 103.013 259.015 103.217 258.811C103.421 258.595 103.673 258.487 103.972 258.487C104.26 258.487 104.506 258.595 104.71 258.811C104.914 259.015 105.016 259.261 105.016 259.549C105.016 259.837 104.914 260.082 104.71 260.286C104.506 260.49 104.26 260.592 103.972 260.592ZM103.181 271.224V262.229H104.746V271.224H103.181ZM108.231 267.446C108.387 268.249 108.752 268.873 109.328 269.317C109.916 269.76 110.635 269.982 111.487 269.982C112.674 269.982 113.537 269.545 114.077 268.669L115.408 269.425C114.533 270.78 113.214 271.457 111.451 271.457C110.024 271.457 108.86 271.014 107.961 270.126C107.073 269.227 106.63 268.093 106.63 266.726C106.63 265.371 107.067 264.244 107.943 263.344C108.818 262.445 109.952 261.995 111.343 261.995C112.662 261.995 113.735 262.463 114.563 263.398C115.402 264.322 115.822 265.437 115.822 266.744C115.822 266.972 115.804 267.206 115.768 267.446H108.231ZM111.343 263.47C110.503 263.47 109.808 263.71 109.256 264.19C108.704 264.658 108.363 265.287 108.231 266.079H114.239C114.107 265.227 113.771 264.58 113.232 264.136C112.692 263.692 112.062 263.47 111.343 263.47ZM122.1 261.995C123.156 261.995 124.001 262.331 124.637 263.003C125.272 263.662 125.59 264.562 125.59 265.701V271.224H124.025V265.791C124.025 265.059 123.827 264.496 123.431 264.1C123.036 263.692 122.49 263.488 121.794 263.488C121.015 263.488 120.385 263.734 119.906 264.226C119.426 264.706 119.186 265.449 119.186 266.456V271.224H117.621V262.229H119.186V263.524C119.822 262.505 120.793 261.995 122.1 261.995ZM132.668 263.74H130.275V268.615C130.275 269.059 130.359 269.377 130.527 269.569C130.707 269.748 130.977 269.844 131.337 269.856C131.696 269.856 132.14 269.844 132.668 269.82V271.224C131.301 271.403 130.299 271.295 129.664 270.9C129.028 270.492 128.71 269.73 128.71 268.615V263.74H126.929V262.229H128.71V260.178L130.275 259.711V262.229H132.668V263.74ZM140.42 264.658C140.42 265.005 140.594 265.287 140.941 265.503C141.289 265.707 141.709 265.875 142.201 266.007C142.692 266.127 143.184 266.271 143.676 266.438C144.167 266.594 144.587 266.87 144.935 267.266C145.283 267.65 145.457 268.147 145.457 268.759C145.457 269.575 145.139 270.228 144.503 270.72C143.88 271.212 143.076 271.457 142.093 271.457C141.217 271.457 140.468 271.265 139.844 270.882C139.22 270.498 138.777 269.988 138.513 269.353L139.862 268.579C140.006 269.011 140.276 269.353 140.672 269.605C141.067 269.856 141.541 269.982 142.093 269.982C142.608 269.982 143.034 269.886 143.37 269.694C143.706 269.491 143.874 269.179 143.874 268.759C143.874 268.411 143.7 268.135 143.352 267.932C143.004 267.716 142.584 267.548 142.093 267.428C141.601 267.296 141.109 267.146 140.618 266.978C140.126 266.81 139.706 266.534 139.358 266.151C139.011 265.767 138.837 265.275 138.837 264.676C138.837 263.896 139.137 263.254 139.736 262.751C140.348 262.247 141.109 261.995 142.021 261.995C142.752 261.995 143.4 262.163 143.963 262.499C144.539 262.823 144.971 263.278 145.259 263.866L143.946 264.604C143.622 263.836 142.98 263.452 142.021 263.452C141.577 263.452 141.199 263.56 140.887 263.776C140.576 263.98 140.42 264.274 140.42 264.658ZM153.428 262.229H154.993V271.224H153.428V269.928C152.792 270.948 151.821 271.457 150.514 271.457C149.458 271.457 148.613 271.128 147.977 270.468C147.342 269.796 147.024 268.891 147.024 267.752V262.229H148.589V267.662C148.589 268.393 148.787 268.963 149.182 269.371C149.578 269.766 150.124 269.964 150.819 269.964C151.599 269.964 152.229 269.724 152.708 269.245C153.188 268.753 153.428 268.004 153.428 266.996V262.229ZM161.603 271.457C160.248 271.457 159.12 271.008 158.221 270.108C157.322 269.197 156.872 268.069 156.872 266.726C156.872 265.383 157.322 264.262 158.221 263.362C159.12 262.451 160.248 261.995 161.603 261.995C162.49 261.995 163.288 262.211 163.995 262.643C164.703 263.063 165.231 263.632 165.578 264.352L164.265 265.107C164.037 264.628 163.684 264.244 163.204 263.956C162.736 263.668 162.203 263.524 161.603 263.524C160.703 263.524 159.948 263.83 159.336 264.442C158.737 265.053 158.437 265.815 158.437 266.726C158.437 267.626 158.737 268.381 159.336 268.993C159.948 269.605 160.703 269.91 161.603 269.91C162.203 269.91 162.742 269.772 163.222 269.497C163.702 269.209 164.067 268.825 164.319 268.345L165.65 269.119C165.267 269.826 164.715 270.396 163.995 270.828C163.276 271.247 162.478 271.457 161.603 271.457ZM171.3 271.457C169.945 271.457 168.818 271.008 167.918 270.108C167.019 269.197 166.569 268.069 166.569 266.726C166.569 265.383 167.019 264.262 167.918 263.362C168.818 262.451 169.945 261.995 171.3 261.995C172.187 261.995 172.985 262.211 173.692 262.643C174.4 263.063 174.928 263.632 175.275 264.352L173.962 265.107C173.734 264.628 173.381 264.244 172.901 263.956C172.433 263.668 171.9 263.524 171.3 263.524C170.401 263.524 169.645 263.83 169.033 264.442C168.434 265.053 168.134 265.815 168.134 266.726C168.134 267.626 168.434 268.381 169.033 268.993C169.645 269.605 170.401 269.91 171.3 269.91C171.9 269.91 172.439 269.772 172.919 269.497C173.399 269.209 173.764 268.825 174.016 268.345L175.347 269.119C174.964 269.826 174.412 270.396 173.692 270.828C172.973 271.247 172.175 271.457 171.3 271.457ZM177.867 267.446C178.023 268.249 178.389 268.873 178.964 269.317C179.552 269.76 180.272 269.982 181.123 269.982C182.31 269.982 183.174 269.545 183.713 268.669L185.045 269.425C184.169 270.78 182.85 271.457 181.087 271.457C179.66 271.457 178.497 271.014 177.597 270.126C176.71 269.227 176.266 268.093 176.266 266.726C176.266 265.371 176.704 264.244 177.579 263.344C178.455 262.445 179.588 261.995 180.979 261.995C182.298 261.995 183.372 262.463 184.199 263.398C185.039 264.322 185.458 265.437 185.458 266.744C185.458 266.972 185.44 267.206 185.404 267.446H177.867ZM180.979 263.47C180.14 263.47 179.444 263.71 178.892 264.19C178.341 264.658 177.999 265.287 177.867 266.079H183.875C183.743 265.227 183.408 264.58 182.868 264.136C182.328 263.692 181.699 263.47 180.979 263.47ZM188.255 264.658C188.255 265.005 188.429 265.287 188.777 265.503C189.125 265.707 189.544 265.875 190.036 266.007C190.528 266.127 191.019 266.271 191.511 266.438C192.003 266.594 192.423 266.87 192.77 267.266C193.118 267.65 193.292 268.147 193.292 268.759C193.292 269.575 192.974 270.228 192.339 270.72C191.715 271.212 190.911 271.457 189.928 271.457C189.053 271.457 188.303 271.265 187.679 270.882C187.056 270.498 186.612 269.988 186.348 269.353L187.697 268.579C187.841 269.011 188.111 269.353 188.507 269.605C188.903 269.856 189.376 269.982 189.928 269.982C190.444 269.982 190.869 269.886 191.205 269.694C191.541 269.491 191.709 269.179 191.709 268.759C191.709 268.411 191.535 268.135 191.187 267.932C190.839 267.716 190.42 267.548 189.928 267.428C189.436 267.296 188.945 267.146 188.453 266.978C187.961 266.81 187.542 266.534 187.194 266.151C186.846 265.767 186.672 265.275 186.672 264.676C186.672 263.896 186.972 263.254 187.572 262.751C188.183 262.247 188.945 261.995 189.856 261.995C190.588 261.995 191.235 262.163 191.799 262.499C192.375 262.823 192.806 263.278 193.094 263.866L191.781 264.604C191.457 263.836 190.816 263.452 189.856 263.452C189.412 263.452 189.035 263.56 188.723 263.776C188.411 263.98 188.255 264.274 188.255 264.658ZM195.932 264.658C195.932 265.005 196.106 265.287 196.454 265.503C196.801 265.707 197.221 265.875 197.713 266.007C198.205 266.127 198.696 266.271 199.188 266.438C199.68 266.594 200.099 266.87 200.447 267.266C200.795 267.65 200.969 268.147 200.969 268.759C200.969 269.575 200.651 270.228 200.015 270.72C199.392 271.212 198.588 271.457 197.605 271.457C196.729 271.457 195.98 271.265 195.356 270.882C194.733 270.498 194.289 269.988 194.025 269.353L195.374 268.579C195.518 269.011 195.788 269.353 196.184 269.605C196.58 269.856 197.053 269.982 197.605 269.982C198.121 269.982 198.546 269.886 198.882 269.694C199.218 269.491 199.386 269.179 199.386 268.759C199.386 268.411 199.212 268.135 198.864 267.932C198.516 267.716 198.097 267.548 197.605 267.428C197.113 267.296 196.622 267.146 196.13 266.978C195.638 266.81 195.218 266.534 194.871 266.151C194.523 265.767 194.349 265.275 194.349 264.676C194.349 263.896 194.649 263.254 195.248 262.751C195.86 262.247 196.622 261.995 197.533 261.995C198.265 261.995 198.912 262.163 199.476 262.499C200.051 262.823 200.483 263.278 200.771 263.866L199.458 264.604C199.134 263.836 198.492 263.452 197.533 263.452C197.089 263.452 196.711 263.56 196.4 263.776C196.088 263.98 195.932 264.274 195.932 264.658Z" fill="white"/>
<g filter="url(#filter2_d_1351_21729)">
<circle cx="270.82" cy="239.723" r="36.1153" fill="#22B691"/>
</g>
<g filter="url(#filter3_d_1351_21729)">
<path fill-rule="evenodd" clip-rule="evenodd" d="M311.718 239.723C311.718 262.31 293.407 280.621 270.82 280.621C248.233 280.621 229.923 262.31 229.923 239.723C229.923 217.136 248.233 198.826 270.82 198.826C293.407 198.826 311.718 217.136 311.718 239.723ZM270.82 278C291.96 278 309.096 260.863 309.096 239.723C309.096 218.584 291.96 201.447 270.82 201.447C249.681 201.447 232.544 218.584 232.544 239.723C232.544 260.863 249.681 278 270.82 278Z" fill="#22B691"/>
</g>
<path d="M265.195 244.224L281.79 227.629C282.305 227.113 282.961 226.856 283.758 226.856C284.555 226.856 285.212 227.113 285.727 227.629C286.243 228.145 286.501 228.801 286.501 229.598C286.501 230.395 286.243 231.051 285.727 231.567L267.164 250.13C266.601 250.693 265.945 250.974 265.195 250.974C264.445 250.974 263.789 250.693 263.226 250.13L255.913 242.817C255.397 242.302 255.14 241.645 255.14 240.849C255.14 240.052 255.397 239.395 255.913 238.88C256.429 238.364 257.085 238.106 257.882 238.106C258.679 238.106 259.335 238.364 259.851 238.88L265.195 244.224Z" fill="#F7F9F8"/>
<rect x="28" y="24.1976" width="324" height="293.885" rx="31.3741" stroke="#38B990" stroke-width="2" shape-rendering="crispEdges"/>
</g>
<defs>
<filter id="filter0_bd_1351_21729" x="0.648962" y="0.611028" width="389.242" height="359.127" filterUnits="userSpaceOnUse" color-interpolation-filters="sRGB">
<feFlood flood-opacity="0" result="BackgroundImageFix"/>
<feGaussianBlur in="BackgroundImageFix" stdDeviation="2.25866"/>
<feComposite in2="SourceAlpha" operator="in" result="effect1_backgroundBlur_1351_21729"/>
<feColorMatrix in="SourceAlpha" type="matrix" values="0 0 0 0 0 0 0 0 0 0 0 0 0 0 0 0 0 0 127 0" result="hardAlpha"/>
<feOffset dx="5.27021" dy="9.03464"/>
<feGaussianBlur stdDeviation="15.8106"/>
<feComposite in2="hardAlpha" operator="out"/>
<feColorMatrix type="matrix" values="0 0 0 0 0 0 0 0 0 0 0 0 0 0 0 0 0 0 0.05 0"/>
<feBlend mode="normal" in2="effect1_backgroundBlur_1351_21729" result="effect2_dropShadow_1351_21729"/>
<feBlend mode="normal" in="SourceGraphic" in2="effect2_dropShadow_1351_21729" result="shape"/>
</filter>
<filter id="filter1_d_1351_21729" x="122.505" y="103.657" width="94.2393" height="93.9748" filterUnits="userSpaceOnUse" color-interpolation-filters="sRGB">
<feFlood flood-opacity="0" result="BackgroundImageFix"/>
<feColorMatrix in="SourceAlpha" type="matrix" values="0 0 0 0 0 0 0 0 0 0 0 0 0 0 0 0 0 0 127 0" result="hardAlpha"/>
<feOffset/>
<feGaussianBlur stdDeviation="8.28176"/>
<feComposite in2="hardAlpha" operator="out"/>
<feColorMatrix type="matrix" values="0 0 0 0 0.133333 0 0 0 0 0.713726 0 0 0 0 0.568627 0 0 0 0.5 0"/>
<feBlend mode="normal" in2="BackgroundImageFix" result="effect1_dropShadow_1351_21729"/>
<feBlend mode="normal" in="SourceGraphic" in2="effect1_dropShadow_1351_21729" result="shape"/>
</filter>
<filter id="filter2_d_1351_21729" x="216.644" y="185.547" width="108.354" height="108.354" filterUnits="userSpaceOnUse" color-interpolation-filters="sRGB">
<feFlood flood-opacity="0" result="BackgroundImageFix"/>
<feColorMatrix in="SourceAlpha" type="matrix" values="0 0 0 0 0 0 0 0 0 0 0 0 0 0 0 0 0 0 127 0" result="hardAlpha"/>
<feOffset/>
<feGaussianBlur stdDeviation="9.03077"/>
<feComposite in2="hardAlpha" operator="out"/>
<feColorMatrix type="matrix" values="0 0 0 0 0.133333 0 0 0 0 0.713726 0 0 0 0 0.568627 0 0 0 0.5 0"/>
<feBlend mode="normal" in2="BackgroundImageFix" result="effect1_dropShadow_1351_21729"/>
<feBlend mode="normal" in="SourceGraphic" in2="effect1_dropShadow_1351_21729" result="shape"/>
</filter>
<filter id="filter3_d_1351_21729" x="211.861" y="180.765" width="117.918" height="117.918" filterUnits="userSpaceOnUse" color-interpolation-filters="sRGB">
<feFlood flood-opacity="0" result="BackgroundImageFix"/>
<feColorMatrix in="SourceAlpha" type="matrix" values="0 0 0 0 0 0 0 0 0 0 0 0 0 0 0 0 0 0 127 0" result="hardAlpha"/>
<feOffset/>
<feGaussianBlur stdDeviation="9.03077"/>
<feComposite in2="hardAlpha" operator="out"/>
<feColorMatrix type="matrix" values="0 0 0 0 0.133333 0 0 0 0 0.713726 0 0 0 0 0.568627 0 0 0 0.5 0"/>
<feBlend mode="normal" in2="BackgroundImageFix" result="effect1_dropShadow_1351_21729"/>
<feBlend mode="normal" in="SourceGraphic" in2="effect1_dropShadow_1351_21729" result="shape"/>
</filter>
</defs>
</svg>
