<svg width="22" height="22" viewBox="0 0 22 22" fill="none" xmlns="http://www.w3.org/2000/svg">
<path d="M10.9988 21.1394C16.7758 21.1394 21.459 16.4562 21.459 10.6792C21.459 4.90219 16.7758 0.218994 10.9988 0.218994C5.2218 0.218994 0.538605 4.90219 0.538605 10.6792C0.538605 16.4562 5.2218 21.1394 10.9988 21.1394Z" fill="white"/>
<path d="M14.399 3.42969H12.0818C10.7067 3.42969 9.17717 4.00804 9.17717 6.0013C9.18388 6.69583 9.17717 7.36099 9.17717 8.10958H7.58636V10.641H9.2264V17.9286H12.24V10.5929H14.2292L14.4091 8.10247H12.1881C12.1881 8.10247 12.1931 6.99461 12.1881 6.67289C12.1881 5.88519 13.0077 5.9303 13.057 5.9303C13.4471 5.9303 14.2054 5.93144 14.4001 5.9303V3.42969H14.399Z" fill="#151515"/>
</svg>
