<svg width="202" height="58" viewBox="0 0 202 58" fill="none" xmlns="http://www.w3.org/2000/svg">
<g filter="url(#filter0_d_1351_21839)">
<rect x="4" width="194" height="50" rx="10" fill="black"/>
<g clip-path="url(#clip0_1351_21839)">
<path d="M42.3872 20.3262L27.9059 13.0924C27.7239 13 27.495 13.0052 27.3189 13.0975C27.1369 13.1899 27.0254 13.354 27.0254 13.5387C27.0254 13.5387 27.0313 14.2057 27.0371 15.3036L37.5856 24.5229L42.3872 20.3262Z" fill="url(#paint0_linear_1351_21839)"/>
<path d="M27.0371 15.3035C27.0547 19.2641 27.1075 28.8785 27.131 33.6652L37.5914 24.5228L27.0371 15.3035Z" fill="url(#paint1_linear_1351_21839)"/>
<path d="M50.6751 24.4664L42.3866 20.3262L37.5791 24.5228L43.003 29.2633L50.681 25.354C50.863 25.2616 50.9745 25.0923 50.9745 24.9127C50.9745 24.7281 50.8571 24.5588 50.6751 24.4664Z" fill="url(#paint2_linear_1351_21839)"/>
<path d="M27.125 33.6653C27.1367 35.3737 27.1426 36.4665 27.1426 36.4665C27.1426 36.6512 27.2541 36.8205 27.4361 36.9077C27.6181 37.0001 27.8411 37.0001 28.0231 36.9077L43.0093 29.2686L37.5854 24.5281L27.125 33.6653Z" fill="url(#paint3_linear_1351_21839)"/>
</g>
<path d="M71.2796 12.656V13.232C71.2796 14.384 70.8996 15.328 70.1396 16.064C69.3796 16.792 68.3876 17.156 67.1636 17.156C65.8676 17.156 64.7956 16.736 63.9476 15.896C63.1076 15.056 62.6876 14.024 62.6876 12.8C62.6876 11.584 63.1076 10.556 63.9476 9.716C64.7956 8.868 65.8436 8.444 67.0916 8.444C67.8756 8.444 68.5916 8.624 69.2396 8.984C69.8876 9.344 70.3916 9.828 70.7516 10.436L69.5636 11.12C69.3396 10.72 69.0076 10.4 68.5676 10.16C68.1276 9.912 67.6356 9.788 67.0916 9.788C66.2116 9.788 65.4876 10.076 64.9196 10.652C64.3516 11.228 64.0676 11.948 64.0676 12.812C64.0676 13.676 64.3516 14.392 64.9196 14.96C65.4956 15.528 66.2476 15.812 67.1756 15.812C67.9196 15.812 68.5236 15.64 68.9876 15.296C69.4596 14.944 69.7596 14.476 69.8876 13.892H67.0796V12.656H71.2796ZM73.9212 15.68H77.6412V17H72.5412V8.6H77.5812V9.92H73.9212V12.104H77.2812V13.412H73.9212V15.68ZM84.3645 8.6V9.92H82.0005V17H80.6205V9.92H78.2445V8.6H84.3645ZM88.3849 8.6H89.7649V17H88.3849V8.6ZM96.9035 8.6V9.92H94.5395V17H93.1595V9.92H90.7835V8.6H96.9035ZM107.944 15.896C107.104 16.736 106.076 17.156 104.86 17.156C103.644 17.156 102.612 16.736 101.764 15.896C100.924 15.048 100.504 14.016 100.504 12.8C100.504 11.584 100.924 10.556 101.764 9.716C102.612 8.868 103.644 8.444 104.86 8.444C106.076 8.444 107.104 8.868 107.944 9.716C108.792 10.556 109.216 11.584 109.216 12.8C109.216 14.016 108.792 15.048 107.944 15.896ZM102.736 14.96C103.312 15.528 104.02 15.812 104.86 15.812C105.7 15.812 106.404 15.528 106.972 14.96C107.548 14.384 107.836 13.664 107.836 12.8C107.836 11.936 107.548 11.22 106.972 10.652C106.404 10.076 105.7 9.788 104.86 9.788C104.02 9.788 103.312 10.076 102.736 10.652C102.168 11.22 101.884 11.936 101.884 12.8C101.884 13.664 102.168 14.384 102.736 14.96ZM115.515 8.6H116.895V17H115.815L111.855 11.3V17H110.475V8.6H111.555L115.515 14.3V8.6Z" fill="white"/>
<path d="M77.0259 31.76V32.72C77.0259 34.64 76.3925 36.2133 75.1259 37.44C73.8592 38.6533 72.2059 39.26 70.1659 39.26C68.0059 39.26 66.2192 38.56 64.8059 37.16C63.4059 35.76 62.7059 34.04 62.7059 32C62.7059 29.9733 63.4059 28.26 64.8059 26.86C66.2192 25.4467 67.9659 24.74 70.0459 24.74C71.3525 24.74 72.5459 25.04 73.6259 25.64C74.7059 26.24 75.5459 27.0467 76.1459 28.06L74.1659 29.2C73.7925 28.5333 73.2392 28 72.5059 27.6C71.7725 27.1867 70.9525 26.98 70.0459 26.98C68.5792 26.98 67.3725 27.46 66.4259 28.42C65.4792 29.38 65.0059 30.58 65.0059 32.02C65.0059 33.46 65.4792 34.6533 66.4259 35.6C67.3859 36.5467 68.6392 37.02 70.1859 37.02C71.4259 37.02 72.4325 36.7333 73.2059 36.16C73.9925 35.5733 74.4925 34.7933 74.7059 33.82H70.0259V31.76H77.0259ZM83.7085 39.26C82.2418 39.26 80.9952 38.7533 79.9685 37.74C78.9418 36.7267 78.4285 35.48 78.4285 34C78.4285 32.52 78.9418 31.2733 79.9685 30.26C80.9952 29.2467 82.2418 28.74 83.7085 28.74C85.1885 28.74 86.4352 29.2467 87.4485 30.26C88.4752 31.2733 88.9885 32.52 88.9885 34C88.9885 35.48 88.4752 36.7267 87.4485 37.74C86.4352 38.7533 85.1885 39.26 83.7085 39.26ZM81.4885 36.26C82.0885 36.86 82.8285 37.16 83.7085 37.16C84.5885 37.16 85.3285 36.86 85.9285 36.26C86.5285 35.66 86.8285 34.9067 86.8285 34C86.8285 33.0933 86.5285 32.34 85.9285 31.74C85.3285 31.14 84.5885 30.84 83.7085 30.84C82.8285 30.84 82.0885 31.14 81.4885 31.74C80.8885 32.34 80.5885 33.0933 80.5885 34C80.5885 34.9067 80.8885 35.66 81.4885 36.26ZM95.6616 39.26C94.195 39.26 92.9483 38.7533 91.9216 37.74C90.895 36.7267 90.3816 35.48 90.3816 34C90.3816 32.52 90.895 31.2733 91.9216 30.26C92.9483 29.2467 94.195 28.74 95.6616 28.74C97.1416 28.74 98.3883 29.2467 99.4016 30.26C100.428 31.2733 100.942 32.52 100.942 34C100.942 35.48 100.428 36.7267 99.4016 37.74C98.3883 38.7533 97.1416 39.26 95.6616 39.26ZM93.4416 36.26C94.0416 36.86 94.7816 37.16 95.6616 37.16C96.5416 37.16 97.2816 36.86 97.8816 36.26C98.4816 35.66 98.7816 34.9067 98.7816 34C98.7816 33.0933 98.4816 32.34 97.8816 31.74C97.2816 31.14 96.5416 30.84 95.6616 30.84C94.7816 30.84 94.0416 31.14 93.4416 31.74C92.8416 32.34 92.5416 33.0933 92.5416 34C92.5416 34.9067 92.8416 35.66 93.4416 36.26ZM110.855 29H112.975V38.54C112.975 40.06 112.475 41.2267 111.475 42.04C110.475 42.8533 109.261 43.26 107.835 43.26C105.528 43.26 103.948 42.4533 103.095 40.84L104.955 39.76C105.475 40.7867 106.448 41.3 107.875 41.3C108.808 41.3 109.535 41.0533 110.055 40.56C110.588 40.08 110.855 39.4067 110.855 38.54V37.32C110.041 38.48 108.881 39.06 107.375 39.06C105.961 39.06 104.768 38.56 103.795 37.56C102.821 36.5467 102.335 35.3267 102.335 33.9C102.335 32.4733 102.821 31.26 103.795 30.26C104.768 29.2467 105.961 28.74 107.375 28.74C108.881 28.74 110.041 29.32 110.855 30.48V29ZM105.395 36.14C106.008 36.74 106.768 37.04 107.675 37.04C108.581 37.04 109.335 36.74 109.935 36.14C110.548 35.54 110.855 34.7933 110.855 33.9C110.855 33.0067 110.548 32.26 109.935 31.66C109.335 31.06 108.581 30.76 107.675 30.76C106.768 30.76 106.008 31.06 105.395 31.66C104.795 32.26 104.495 33.0067 104.495 33.9C104.495 34.7933 104.795 35.54 105.395 36.14ZM115.492 39V24.4H117.652V39H115.492ZM121.86 34.92C122.02 35.68 122.387 36.2667 122.96 36.68C123.534 37.08 124.234 37.28 125.06 37.28C126.207 37.28 127.067 36.8667 127.64 36.04L129.42 37.08C128.434 38.5333 126.974 39.26 125.04 39.26C123.414 39.26 122.1 38.7667 121.1 37.78C120.1 36.78 119.6 35.52 119.6 34C119.6 32.5067 120.094 31.26 121.08 30.26C122.067 29.2467 123.334 28.74 124.88 28.74C126.347 28.74 127.547 29.2533 128.48 30.28C129.427 31.3067 129.9 32.5533 129.9 34.02C129.9 34.2467 129.874 34.5467 129.82 34.92H121.86ZM121.84 33.16H127.72C127.574 32.3467 127.234 31.7333 126.7 31.32C126.18 30.9067 125.567 30.7 124.86 30.7C124.06 30.7 123.394 30.92 122.86 31.36C122.327 31.8 121.987 32.4 121.84 33.16ZM142.101 25C143.421 25 144.521 25.44 145.401 26.32C146.294 27.2 146.741 28.2933 146.741 29.6C146.741 30.8933 146.294 31.9867 145.401 32.88C144.521 33.76 143.421 34.2 142.101 34.2H139.241V39H136.941V25H142.101ZM142.101 32.04C142.781 32.04 143.341 31.8133 143.781 31.36C144.221 30.8933 144.441 30.3067 144.441 29.6C144.441 28.8933 144.221 28.3133 143.781 27.86C143.341 27.3933 142.781 27.16 142.101 27.16H139.241V32.04H142.101ZM148.598 39V24.4H150.758V39H148.598ZM161.186 29H163.346V39H161.186V37.56C160.373 38.6933 159.206 39.26 157.686 39.26C156.313 39.26 155.139 38.7533 154.166 37.74C153.193 36.7133 152.706 35.4667 152.706 34C152.706 32.52 153.193 31.2733 154.166 30.26C155.139 29.2467 156.313 28.74 157.686 28.74C159.206 28.74 160.373 29.3 161.186 30.42V29ZM155.766 36.3C156.366 36.9 157.119 37.2 158.026 37.2C158.933 37.2 159.686 36.9 160.286 36.3C160.886 35.6867 161.186 34.92 161.186 34C161.186 33.08 160.886 32.32 160.286 31.72C159.686 31.1067 158.933 30.8 158.026 30.8C157.119 30.8 156.366 31.1067 155.766 31.72C155.166 32.32 154.866 33.08 154.866 34C154.866 34.92 155.166 35.6867 155.766 36.3ZM172.604 29H174.904L171.064 39.32C170.104 41.9067 168.477 43.1333 166.184 43V40.98C166.864 41.02 167.41 40.8733 167.824 40.54C168.237 40.22 168.577 39.7133 168.844 39.02L168.944 38.82L164.704 29H167.064L170.044 36.26L172.604 29Z" fill="white"/>
</g>
<defs>
<filter id="filter0_d_1351_21839" x="0" y="0" width="202" height="58" filterUnits="userSpaceOnUse" color-interpolation-filters="sRGB">
<feFlood flood-opacity="0" result="BackgroundImageFix"/>
<feColorMatrix in="SourceAlpha" type="matrix" values="0 0 0 0 0 0 0 0 0 0 0 0 0 0 0 0 0 0 127 0" result="hardAlpha"/>
<feOffset dy="4"/>
<feGaussianBlur stdDeviation="2"/>
<feComposite in2="hardAlpha" operator="out"/>
<feColorMatrix type="matrix" values="0 0 0 0 0 0 0 0 0 0 0 0 0 0 0 0 0 0 0.25 0"/>
<feBlend mode="normal" in2="BackgroundImageFix" result="effect1_dropShadow_1351_21839"/>
<feBlend mode="normal" in="SourceGraphic" in2="effect1_dropShadow_1351_21839" result="shape"/>
</filter>
<linearGradient id="paint0_linear_1351_21839" x1="27.0254" y1="18.7766" x2="42.3899" y2="18.7766" gradientUnits="userSpaceOnUse">
<stop stop-color="#63BE6B"/>
<stop offset="0.506" stop-color="#5BBC6A"/>
<stop offset="1" stop-color="#4AB96A"/>
</linearGradient>
<linearGradient id="paint1_linear_1351_21839" x1="27.0343" y1="24.4865" x2="37.5853" y2="24.4865" gradientUnits="userSpaceOnUse">
<stop stop-color="#3EC6F2"/>
<stop offset="1" stop-color="#45AFE3"/>
</linearGradient>
<linearGradient id="paint2_linear_1351_21839" x1="37.5847" y1="24.798" x2="50.9731" y2="24.798" gradientUnits="userSpaceOnUse">
<stop stop-color="#FAA51A"/>
<stop offset="0.387" stop-color="#FAB716"/>
<stop offset="0.741" stop-color="#FAC412"/>
<stop offset="1" stop-color="#FAC80F"/>
</linearGradient>
<linearGradient id="paint3_linear_1351_21839" x1="27.1276" y1="30.7523" x2="43.009" y2="30.7523" gradientUnits="userSpaceOnUse">
<stop stop-color="#EC3B50"/>
<stop offset="1" stop-color="#E7515B"/>
</linearGradient>
<clipPath id="clip0_1351_21839">
<rect width="24" height="24" fill="white" transform="translate(27 13)"/>
</clipPath>
</defs>
</svg>
