<svg width="445" height="286" viewBox="0 0 445 286" fill="none" xmlns="http://www.w3.org/2000/svg">
<g clip-path="url(#clip0_136_11699)">
<rect x="65.2656" y="202.611" width="717.921" height="0.65367" fill="#E3E3E3"/>
<rect x="65.2656" y="173.85" width="717.921" height="0.65367" fill="#E3E3E3"/>
<rect x="65.2656" y="144.434" width="717.921" height="0.65367" fill="#E3E3E3"/>
<rect x="65.2656" y="115.019" width="717.921" height="0.65367" fill="#E3E3E3"/>
<rect x="65.2656" y="86.2578" width="717.921" height="0.65367" fill="#E3E3E3"/>
<path d="M314.75 207.272V212.879H314.041V208.157L312.612 208.678V208.038L314.639 207.272H314.75ZM320.602 211.003V211.585H316.573V211.167L319.07 207.303H319.648L319.028 208.421L317.377 211.003H320.602ZM319.825 207.303V212.879H319.116V207.303H319.825ZM321.291 212.504C321.291 212.384 321.329 212.283 321.403 212.201C321.479 212.117 321.589 212.075 321.732 212.075C321.875 212.075 321.983 212.117 322.058 212.201C322.134 212.283 322.172 212.384 322.172 212.504C322.172 212.622 322.134 212.721 322.058 212.803C321.983 212.885 321.875 212.925 321.732 212.925C321.589 212.925 321.479 212.885 321.403 212.803C321.329 212.721 321.291 212.622 321.291 212.504ZM321.295 209.122C321.295 209.002 321.332 208.901 321.406 208.819C321.483 208.735 321.593 208.693 321.736 208.693C321.879 208.693 321.987 208.735 322.061 208.819C322.138 208.901 322.176 209.002 322.176 209.122C322.176 209.24 322.138 209.339 322.061 209.421C321.987 209.503 321.879 209.543 321.736 209.543C321.593 209.543 321.483 209.503 321.406 209.421C321.332 209.339 321.295 209.24 321.295 209.122ZM326.646 209.647V210.497C326.646 210.954 326.605 211.34 326.523 211.654C326.442 211.968 326.324 212.221 326.171 212.412C326.018 212.604 325.833 212.743 325.616 212.83C325.401 212.914 325.159 212.956 324.888 212.956C324.673 212.956 324.476 212.929 324.294 212.876C324.113 212.822 323.95 212.736 323.804 212.619C323.661 212.499 323.538 212.343 323.436 212.152C323.334 211.96 323.256 211.728 323.203 211.455C323.149 211.181 323.122 210.862 323.122 210.497V209.647C323.122 209.19 323.163 208.807 323.245 208.498C323.329 208.189 323.448 207.941 323.601 207.755C323.754 207.566 323.938 207.43 324.153 207.349C324.37 207.267 324.612 207.226 324.88 207.226C325.097 207.226 325.296 207.253 325.478 207.307C325.662 207.358 325.825 207.441 325.968 207.556C326.111 207.668 326.232 207.819 326.332 208.008C326.434 208.194 326.512 208.422 326.566 208.693C326.619 208.964 326.646 209.282 326.646 209.647ZM325.934 210.612V209.528C325.934 209.278 325.918 209.058 325.888 208.869C325.86 208.678 325.817 208.514 325.761 208.379C325.705 208.244 325.634 208.134 325.547 208.05C325.462 207.965 325.364 207.904 325.252 207.866C325.142 207.825 325.018 207.805 324.88 207.805C324.712 207.805 324.562 207.836 324.432 207.9C324.302 207.962 324.192 208.06 324.103 208.195C324.016 208.331 323.95 208.508 323.904 208.728C323.858 208.947 323.835 209.214 323.835 209.528V210.612C323.835 210.862 323.849 211.083 323.877 211.275C323.907 211.466 323.952 211.632 324.011 211.772C324.07 211.91 324.141 212.024 324.225 212.113C324.31 212.203 324.407 212.269 324.516 212.313C324.629 212.353 324.753 212.374 324.888 212.374C325.062 212.374 325.214 212.341 325.344 212.274C325.474 212.208 325.582 212.104 325.669 211.964C325.759 211.821 325.825 211.638 325.868 211.416C325.912 211.192 325.934 210.923 325.934 210.612ZM331.058 209.647V210.497C331.058 210.954 331.017 211.34 330.936 211.654C330.854 211.968 330.736 212.221 330.583 212.412C330.43 212.604 330.245 212.743 330.028 212.83C329.813 212.914 329.571 212.956 329.3 212.956C329.086 212.956 328.888 212.929 328.707 212.876C328.525 212.822 328.362 212.736 328.216 212.619C328.073 212.499 327.951 212.343 327.849 212.152C327.746 211.96 327.669 211.728 327.615 211.455C327.561 211.181 327.535 210.862 327.535 210.497V209.647C327.535 209.19 327.575 208.807 327.657 208.498C327.741 208.189 327.86 207.941 328.013 207.755C328.167 207.566 328.35 207.43 328.565 207.349C328.782 207.267 329.024 207.226 329.293 207.226C329.51 207.226 329.709 207.253 329.89 207.307C330.074 207.358 330.237 207.441 330.38 207.556C330.523 207.668 330.645 207.819 330.744 208.008C330.846 208.194 330.924 208.422 330.978 208.693C331.031 208.964 331.058 209.282 331.058 209.647ZM330.346 210.612V209.528C330.346 209.278 330.331 209.058 330.3 208.869C330.272 208.678 330.23 208.514 330.173 208.379C330.117 208.244 330.046 208.134 329.959 208.05C329.875 207.965 329.776 207.904 329.664 207.866C329.554 207.825 329.43 207.805 329.293 207.805C329.124 207.805 328.975 207.836 328.844 207.9C328.714 207.962 328.604 208.06 328.515 208.195C328.428 208.331 328.362 208.508 328.316 208.728C328.27 208.947 328.247 209.214 328.247 209.528V210.612C328.247 210.862 328.261 211.083 328.289 211.275C328.32 211.466 328.364 211.632 328.423 211.772C328.482 211.91 328.553 212.024 328.638 212.113C328.722 212.203 328.819 212.269 328.929 212.313C329.041 212.353 329.165 212.374 329.3 212.374C329.474 212.374 329.626 212.341 329.756 212.274C329.886 212.208 329.995 212.104 330.082 211.964C330.171 211.821 330.237 211.638 330.281 211.416C330.324 211.192 330.346 210.923 330.346 210.612Z" fill="#181819" fill-opacity="0.42"/>
<path d="M423.804 207.272V212.879H423.096V208.157L421.667 208.678V208.038L423.693 207.272H423.804ZM426.784 210.225L426.217 210.08L426.497 207.303H429.358V207.958H427.098L426.93 209.474C427.032 209.416 427.161 209.361 427.317 209.31C427.475 209.259 427.656 209.233 427.86 209.233C428.118 209.233 428.349 209.278 428.554 209.367C428.758 209.454 428.932 209.579 429.075 209.743C429.22 209.906 429.331 210.103 429.408 210.332C429.484 210.562 429.523 210.819 429.523 211.102C429.523 211.37 429.486 211.617 429.412 211.841C429.34 212.066 429.232 212.263 429.086 212.431C428.941 212.597 428.757 212.726 428.535 212.818C428.315 212.91 428.056 212.956 427.757 212.956C427.532 212.956 427.319 212.925 427.117 212.864C426.918 212.8 426.74 212.704 426.581 212.577C426.425 212.447 426.298 212.286 426.198 212.094C426.101 211.9 426.04 211.673 426.014 211.412H426.688C426.719 211.622 426.78 211.798 426.872 211.941C426.964 212.084 427.084 212.193 427.232 212.267C427.383 212.338 427.558 212.374 427.757 212.374C427.926 212.374 428.075 212.344 428.205 212.286C428.335 212.227 428.445 212.143 428.535 212.033C428.624 211.923 428.692 211.79 428.738 211.635C428.786 211.479 428.81 211.304 428.81 211.11C428.81 210.934 428.786 210.77 428.738 210.62C428.689 210.469 428.616 210.337 428.519 210.225C428.425 210.113 428.309 210.026 428.171 209.965C428.033 209.901 427.874 209.869 427.696 209.869C427.458 209.869 427.278 209.901 427.156 209.965C427.036 210.029 426.912 210.115 426.784 210.225ZM430.346 212.504C430.346 212.384 430.383 212.283 430.457 212.201C430.534 212.117 430.644 212.075 430.787 212.075C430.93 212.075 431.038 212.117 431.112 212.201C431.189 212.283 431.227 212.384 431.227 212.504C431.227 212.622 431.189 212.721 431.112 212.803C431.038 212.885 430.93 212.925 430.787 212.925C430.644 212.925 430.534 212.885 430.457 212.803C430.383 212.721 430.346 212.622 430.346 212.504ZM430.35 209.122C430.35 209.002 430.387 208.901 430.461 208.819C430.538 208.735 430.647 208.693 430.79 208.693C430.933 208.693 431.042 208.735 431.116 208.819C431.193 208.901 431.231 209.002 431.231 209.122C431.231 209.24 431.193 209.339 431.116 209.421C431.042 209.503 430.933 209.543 430.79 209.543C430.647 209.543 430.538 209.503 430.461 209.421C430.387 209.339 430.35 209.24 430.35 209.122ZM435.701 209.647V210.497C435.701 210.954 435.66 211.34 435.578 211.654C435.496 211.968 435.379 212.221 435.226 212.412C435.073 212.604 434.887 212.743 434.67 212.83C434.456 212.914 434.213 212.956 433.943 212.956C433.728 212.956 433.53 212.929 433.349 212.876C433.168 212.822 433.004 212.736 432.859 212.619C432.716 212.499 432.593 212.343 432.491 212.152C432.389 211.96 432.311 211.728 432.257 211.455C432.204 211.181 432.177 210.862 432.177 210.497V209.647C432.177 209.19 432.218 208.807 432.3 208.498C432.384 208.189 432.503 207.941 432.656 207.755C432.809 207.566 432.993 207.43 433.207 207.349C433.424 207.267 433.667 207.226 433.935 207.226C434.152 207.226 434.351 207.253 434.532 207.307C434.716 207.358 434.88 207.441 435.023 207.556C435.166 207.668 435.287 207.819 435.387 208.008C435.489 208.194 435.567 208.422 435.62 208.693C435.674 208.964 435.701 209.282 435.701 209.647ZM434.988 210.612V209.528C434.988 209.278 434.973 209.058 434.942 208.869C434.914 208.678 434.872 208.514 434.816 208.379C434.76 208.244 434.688 208.134 434.601 208.05C434.517 207.965 434.419 207.904 434.306 207.866C434.197 207.825 434.073 207.805 433.935 207.805C433.766 207.805 433.617 207.836 433.487 207.9C433.357 207.962 433.247 208.06 433.157 208.195C433.071 208.331 433.004 208.508 432.958 208.728C432.912 208.947 432.889 209.214 432.889 209.528V210.612C432.889 210.862 432.903 211.083 432.931 211.275C432.962 211.466 433.007 211.632 433.066 211.772C433.124 211.91 433.196 212.024 433.28 212.113C433.364 212.203 433.461 212.269 433.571 212.313C433.683 212.353 433.807 212.374 433.943 212.374C434.116 212.374 434.268 212.341 434.398 212.274C434.529 212.208 434.637 212.104 434.724 211.964C434.813 211.821 434.88 211.638 434.923 211.416C434.967 211.192 434.988 210.923 434.988 210.612ZM440.113 209.647V210.497C440.113 210.954 440.072 211.34 439.99 211.654C439.909 211.968 439.791 212.221 439.638 212.412C439.485 212.604 439.3 212.743 439.083 212.83C438.868 212.914 438.626 212.956 438.355 212.956C438.14 212.956 437.943 212.929 437.761 212.876C437.58 212.822 437.417 212.736 437.271 212.619C437.128 212.499 437.005 212.343 436.903 212.152C436.801 211.96 436.723 211.728 436.67 211.455C436.616 211.181 436.589 210.862 436.589 210.497V209.647C436.589 209.19 436.63 208.807 436.712 208.498C436.796 208.189 436.915 207.941 437.068 207.755C437.221 207.566 437.405 207.43 437.62 207.349C437.837 207.267 438.079 207.226 438.347 207.226C438.564 207.226 438.763 207.253 438.945 207.307C439.129 207.358 439.292 207.441 439.435 207.556C439.578 207.668 439.699 207.819 439.799 208.008C439.901 208.194 439.979 208.422 440.032 208.693C440.086 208.964 440.113 209.282 440.113 209.647ZM439.401 210.612V209.528C439.401 209.278 439.385 209.058 439.355 208.869C439.326 208.678 439.284 208.514 439.228 208.379C439.172 208.244 439.101 208.134 439.014 208.05C438.929 207.965 438.831 207.904 438.719 207.866C438.609 207.825 438.485 207.805 438.347 207.805C438.179 207.805 438.029 207.836 437.899 207.9C437.769 207.962 437.659 208.06 437.57 208.195C437.483 208.331 437.417 208.508 437.371 208.728C437.325 208.947 437.302 209.214 437.302 209.528V210.612C437.302 210.862 437.316 211.083 437.344 211.275C437.374 211.466 437.419 211.632 437.478 211.772C437.537 211.91 437.608 212.024 437.692 212.113C437.777 212.203 437.874 212.269 437.983 212.313C438.096 212.353 438.22 212.374 438.355 212.374C438.529 212.374 438.68 212.341 438.811 212.274C438.941 212.208 439.049 212.104 439.136 211.964C439.226 211.821 439.292 211.638 439.335 211.416C439.379 211.192 439.401 210.923 439.401 210.612Z" fill="#181819" fill-opacity="0.42"/>
<path d="M94.6325 207.272V212.879H93.9239V208.157L92.4953 208.678V208.038L94.5214 207.272H94.6325ZM100.37 212.297V212.879H96.7199V212.37L98.5469 210.336C98.7716 210.086 98.9452 209.874 99.0677 209.7C99.1929 209.524 99.2797 209.367 99.3282 209.229C99.3793 209.089 99.4048 208.946 99.4048 208.8C99.4048 208.616 99.3665 208.451 99.2899 208.302C99.2158 208.152 99.106 208.032 98.9605 207.942C98.815 207.853 98.6388 207.808 98.4319 207.808C98.1843 207.808 97.9774 207.857 97.8115 207.954C97.6481 208.048 97.5255 208.181 97.4438 208.352C97.3621 208.523 97.3212 208.72 97.3212 208.942H96.6127C96.6127 208.628 96.6816 208.341 96.8195 208.08C96.9574 207.82 97.1616 207.613 97.4323 207.46C97.703 207.304 98.0362 207.226 98.4319 207.226C98.7843 207.226 99.0856 207.289 99.3359 207.414C99.5861 207.536 99.7776 207.71 99.9104 207.935C100.046 208.157 100.113 208.417 100.113 208.716C100.113 208.879 100.085 209.045 100.029 209.214C99.9755 209.38 99.9002 209.546 99.8031 209.712C99.7086 209.878 99.5976 210.041 99.4699 210.202C99.3448 210.363 99.2107 210.521 99.0677 210.677L97.574 212.297H100.37ZM101.174 212.504C101.174 212.384 101.211 212.283 101.285 212.201C101.362 212.117 101.472 212.075 101.615 212.075C101.758 212.075 101.866 212.117 101.94 212.201C102.017 212.283 102.055 212.384 102.055 212.504C102.055 212.622 102.017 212.721 101.94 212.803C101.866 212.885 101.758 212.925 101.615 212.925C101.472 212.925 101.362 212.885 101.285 212.803C101.211 212.721 101.174 212.622 101.174 212.504ZM101.178 209.122C101.178 209.002 101.215 208.901 101.289 208.819C101.366 208.735 101.476 208.693 101.619 208.693C101.762 208.693 101.87 208.735 101.944 208.819C102.021 208.901 102.059 209.002 102.059 209.122C102.059 209.24 102.021 209.339 101.944 209.421C101.87 209.503 101.762 209.543 101.619 209.543C101.476 209.543 101.366 209.503 101.289 209.421C101.215 209.339 101.178 209.24 101.178 209.122ZM106.529 209.647V210.497C106.529 210.954 106.488 211.34 106.406 211.654C106.324 211.968 106.207 212.221 106.054 212.412C105.901 212.604 105.716 212.743 105.498 212.83C105.284 212.914 105.041 212.956 104.771 212.956C104.556 212.956 104.358 212.929 104.177 212.876C103.996 212.822 103.832 212.736 103.687 212.619C103.544 212.499 103.421 212.343 103.319 212.152C103.217 211.96 103.139 211.728 103.086 211.455C103.032 211.181 103.005 210.862 103.005 210.497V209.647C103.005 209.19 103.046 208.807 103.128 208.498C103.212 208.189 103.331 207.941 103.484 207.755C103.637 207.566 103.821 207.43 104.035 207.349C104.252 207.267 104.495 207.226 104.763 207.226C104.98 207.226 105.179 207.253 105.361 207.307C105.544 207.358 105.708 207.441 105.851 207.556C105.994 207.668 106.115 207.819 106.215 208.008C106.317 208.194 106.395 208.422 106.448 208.693C106.502 208.964 106.529 209.282 106.529 209.647ZM105.816 210.612V209.528C105.816 209.278 105.801 209.058 105.77 208.869C105.742 208.678 105.7 208.514 105.644 208.379C105.588 208.244 105.516 208.134 105.43 208.05C105.345 207.965 105.247 207.904 105.135 207.866C105.025 207.825 104.901 207.805 104.763 207.805C104.595 207.805 104.445 207.836 104.315 207.9C104.185 207.962 104.075 208.06 103.986 208.195C103.899 208.331 103.832 208.508 103.786 208.728C103.74 208.947 103.717 209.214 103.717 209.528V210.612C103.717 210.862 103.732 211.083 103.76 211.275C103.79 211.466 103.835 211.632 103.894 211.772C103.952 211.91 104.024 212.024 104.108 212.113C104.192 212.203 104.289 212.269 104.399 212.313C104.512 212.353 104.635 212.374 104.771 212.374C104.944 212.374 105.096 212.341 105.227 212.274C105.357 212.208 105.465 212.104 105.552 211.964C105.641 211.821 105.708 211.638 105.751 211.416C105.795 211.192 105.816 210.923 105.816 210.612ZM110.941 209.647V210.497C110.941 210.954 110.9 211.34 110.818 211.654C110.737 211.968 110.619 212.221 110.466 212.412C110.313 212.604 110.128 212.743 109.911 212.83C109.696 212.914 109.454 212.956 109.183 212.956C108.969 212.956 108.771 212.929 108.589 212.876C108.408 212.822 108.245 212.736 108.099 212.619C107.956 212.499 107.834 212.343 107.731 212.152C107.629 211.96 107.551 211.728 107.498 211.455C107.444 211.181 107.417 210.862 107.417 210.497V209.647C107.417 209.19 107.458 208.807 107.54 208.498C107.624 208.189 107.743 207.941 107.896 207.755C108.049 207.566 108.233 207.43 108.448 207.349C108.665 207.267 108.907 207.226 109.175 207.226C109.392 207.226 109.592 207.253 109.773 207.307C109.957 207.358 110.12 207.441 110.263 207.556C110.406 207.668 110.527 207.819 110.627 208.008C110.729 208.194 110.807 208.422 110.861 208.693C110.914 208.964 110.941 209.282 110.941 209.647ZM110.229 210.612V209.528C110.229 209.278 110.213 209.058 110.183 208.869C110.155 208.678 110.112 208.514 110.056 208.379C110 208.244 109.929 208.134 109.842 208.05C109.758 207.965 109.659 207.904 109.547 207.866C109.437 207.825 109.313 207.805 109.175 207.805C109.007 207.805 108.857 207.836 108.727 207.9C108.597 207.962 108.487 208.06 108.398 208.195C108.311 208.331 108.245 208.508 108.199 208.728C108.153 208.947 108.13 209.214 108.13 209.528V210.612C108.13 210.862 108.144 211.083 108.172 211.275C108.203 211.466 108.247 211.632 108.306 211.772C108.365 211.91 108.436 212.024 108.52 212.113C108.605 212.203 108.702 212.269 108.812 212.313C108.924 212.353 109.048 212.374 109.183 212.374C109.357 212.374 109.509 212.341 109.639 212.274C109.769 212.208 109.878 212.104 109.964 211.964C110.054 211.821 110.12 211.638 110.164 211.416C110.207 211.192 110.229 210.923 110.229 210.612Z" fill="#181819" fill-opacity="0.42"/>
<path d="M40.7921 112.49V118.097H40.0836V113.375L38.6549 113.896V113.256L40.6811 112.49H40.7921ZM43.772 115.443L43.2051 115.297L43.4847 112.521H46.3458V113.175H44.086L43.9175 114.692C44.0196 114.633 44.1486 114.579 44.3043 114.528C44.4626 114.476 44.6439 114.451 44.8482 114.451C45.1061 114.451 45.3372 114.496 45.5415 114.585C45.7457 114.672 45.9194 114.797 46.0624 114.96C46.2079 115.124 46.319 115.32 46.3956 115.55C46.4722 115.78 46.5105 116.037 46.5105 116.32C46.5105 116.588 46.4734 116.835 46.3994 117.059C46.3279 117.284 46.2194 117.481 46.0738 117.649C45.9283 117.815 45.7445 117.944 45.5223 118.036C45.3027 118.128 45.0435 118.174 44.7448 118.174C44.5201 118.174 44.3069 118.143 44.1052 118.082C43.906 118.018 43.7273 117.922 43.569 117.795C43.4132 117.664 43.2855 117.504 43.1859 117.312C43.0889 117.118 43.0276 116.891 43.0021 116.63H43.6762C43.7068 116.84 43.7681 117.016 43.86 117.159C43.952 117.302 44.072 117.41 44.2201 117.484C44.3707 117.556 44.5456 117.592 44.7448 117.592C44.9133 117.592 45.0627 117.562 45.1929 117.504C45.3231 117.445 45.4329 117.361 45.5223 117.251C45.6117 117.141 45.6793 117.008 45.7253 116.852C45.7738 116.697 45.7981 116.522 45.7981 116.328C45.7981 116.151 45.7738 115.988 45.7253 115.837C45.6768 115.687 45.604 115.555 45.507 115.443C45.4125 115.331 45.2963 115.244 45.1584 115.182C45.0206 115.119 44.8623 115.087 44.6835 115.087C44.4461 115.087 44.266 115.119 44.1435 115.182C44.0235 115.246 43.8996 115.333 43.772 115.443ZM50.7887 114.865V115.715C50.7887 116.172 50.7478 116.557 50.6661 116.872C50.5844 117.186 50.467 117.438 50.3138 117.63C50.1606 117.821 49.9754 117.961 49.7584 118.047C49.5439 118.132 49.3013 118.174 49.0307 118.174C48.8162 118.174 48.6183 118.147 48.437 118.093C48.2557 118.04 48.0923 117.954 47.9468 117.837C47.8038 117.717 47.6812 117.561 47.5791 117.369C47.4769 117.178 47.3991 116.946 47.3454 116.672C47.2918 116.399 47.265 116.08 47.265 115.715V114.865C47.265 114.408 47.3059 114.024 47.3876 113.716C47.4718 113.407 47.5906 113.159 47.7438 112.972C47.897 112.784 48.0808 112.648 48.2953 112.567C48.5123 112.485 48.7549 112.444 49.023 112.444C49.2401 112.444 49.4392 112.471 49.6205 112.524C49.8044 112.575 49.9678 112.658 50.1108 112.773C50.2538 112.886 50.375 113.036 50.4746 113.225C50.5768 113.412 50.6546 113.64 50.7083 113.911C50.7619 114.182 50.7887 114.499 50.7887 114.865ZM50.0763 115.83V114.746C50.0763 114.496 50.061 114.276 50.0303 114.087C50.0022 113.896 49.9601 113.732 49.9039 113.597C49.8478 113.461 49.7763 113.352 49.6895 113.267C49.6052 113.183 49.5069 113.122 49.3945 113.084C49.2847 113.043 49.1609 113.022 49.023 113.022C48.8545 113.022 48.7051 113.054 48.5749 113.118C48.4447 113.179 48.3349 113.278 48.2455 113.413C48.1587 113.548 48.0923 113.726 48.0463 113.945C48.0004 114.165 47.9774 114.432 47.9774 114.746V115.83C47.9774 116.08 47.9914 116.301 48.0195 116.492C48.0502 116.684 48.0949 116.85 48.1536 116.99C48.2123 117.128 48.2838 117.242 48.3681 117.331C48.4523 117.421 48.5494 117.487 48.6592 117.53C48.7715 117.571 48.8953 117.592 49.0307 117.592C49.2043 117.592 49.3562 117.558 49.4865 117.492C49.6167 117.426 49.7252 117.322 49.812 117.182C49.9014 117.039 49.9678 116.856 50.0112 116.634C50.0546 116.409 50.0763 116.141 50.0763 115.83Z" fill="#181819" fill-opacity="0.42"/>
<path d="M42.1174 88.7533V89.3354H38.4673V88.826L40.2942 86.7923C40.5189 86.542 40.6926 86.3301 40.8151 86.1565C40.9402 85.9803 41.0271 85.8233 41.0756 85.6854C41.1266 85.5449 41.1522 85.4019 41.1522 85.2564C41.1522 85.0726 41.1139 84.9066 41.0373 84.7585C40.9632 84.6078 40.8534 84.4878 40.7079 84.3985C40.5623 84.3091 40.3861 84.2644 40.1793 84.2644C39.9316 84.2644 39.7248 84.3129 39.5588 84.4099C39.3954 84.5044 39.2729 84.6372 39.1912 84.8083C39.1095 84.9794 39.0686 85.176 39.0686 85.3981H38.36C38.36 85.084 38.429 84.7968 38.5669 84.5363C38.7047 84.2759 38.909 84.0691 39.1797 83.9159C39.4503 83.7601 39.7835 83.6822 40.1793 83.6822C40.5317 83.6822 40.833 83.7448 41.0832 83.8699C41.3335 83.9925 41.525 84.1661 41.6577 84.3908C41.7931 84.6129 41.8607 84.8734 41.8607 85.1721C41.8607 85.3356 41.8326 85.5015 41.7765 85.67C41.7229 85.836 41.6475 86.002 41.5505 86.168C41.456 86.3339 41.345 86.4973 41.2173 86.6582C41.0922 86.8191 40.9581 86.9774 40.8151 87.1331L39.3214 88.7533H42.1174ZM46.3764 86.1028V86.9531C46.3764 87.4102 46.3356 87.7958 46.2539 88.1098C46.1721 88.4239 46.0547 88.6767 45.9015 88.8682C45.7483 89.0597 45.5632 89.1988 45.3461 89.2857C45.1316 89.3699 44.8891 89.4121 44.6184 89.4121C44.4039 89.4121 44.206 89.3852 44.0247 89.3316C43.8434 89.278 43.68 89.1925 43.5345 89.075C43.3915 88.955 43.2689 88.7992 43.1668 88.6077C43.0647 88.4162 42.9868 88.1839 42.9332 87.9107C42.8795 87.6374 42.8527 87.3183 42.8527 86.9531V86.1028C42.8527 85.6458 42.8936 85.2628 42.9753 84.9538C43.0596 84.6449 43.1783 84.3972 43.3315 84.2108C43.4847 84.0218 43.6685 83.8865 43.883 83.8048C44.1001 83.7231 44.3426 83.6822 44.6107 83.6822C44.8278 83.6822 45.0269 83.709 45.2082 83.7627C45.3921 83.8137 45.5555 83.8967 45.6985 84.0116C45.8415 84.124 45.9628 84.2746 46.0624 84.4636C46.1645 84.65 46.2424 84.8785 46.296 85.1492C46.3496 85.4198 46.3764 85.7377 46.3764 86.1028ZM45.664 87.068V85.9841C45.664 85.7339 45.6487 85.5143 45.6181 85.3253C45.59 85.1338 45.5478 84.9704 45.4917 84.8351C45.4355 84.6998 45.364 84.59 45.2772 84.5057C45.1929 84.4214 45.0946 84.3602 44.9823 84.3219C44.8725 84.281 44.7486 84.2606 44.6107 84.2606C44.4422 84.2606 44.2928 84.2925 44.1626 84.3563C44.0324 84.4176 43.9226 84.5159 43.8332 84.6512C43.7464 84.7866 43.68 84.964 43.6341 85.1836C43.5881 85.4032 43.5651 85.67 43.5651 85.9841V87.068C43.5651 87.3183 43.5792 87.5391 43.6073 87.7306C43.6379 87.9221 43.6826 88.0881 43.7413 88.2286C43.8 88.3664 43.8715 88.4801 43.9558 88.5694C44.0401 88.6588 44.1371 88.7252 44.2469 88.7686C44.3592 88.8094 44.4831 88.8299 44.6184 88.8299C44.792 88.8299 44.944 88.7967 45.0742 88.7303C45.2044 88.6639 45.3129 88.5605 45.3997 88.4201C45.4891 88.2771 45.5555 88.0945 45.5989 87.8724C45.6423 87.6477 45.664 87.3795 45.664 87.068ZM50.7887 86.1028V86.9531C50.7887 87.4102 50.7478 87.7958 50.6661 88.1098C50.5844 88.4239 50.467 88.6767 50.3138 88.8682C50.1606 89.0597 49.9754 89.1988 49.7584 89.2857C49.5439 89.3699 49.3013 89.4121 49.0307 89.4121C48.8162 89.4121 48.6183 89.3852 48.437 89.3316C48.2557 89.278 48.0923 89.1925 47.9468 89.075C47.8038 88.955 47.6812 88.7992 47.5791 88.6077C47.4769 88.4162 47.3991 88.1839 47.3454 87.9107C47.2918 87.6374 47.265 87.3183 47.265 86.9531V86.1028C47.265 85.6458 47.3059 85.2628 47.3876 84.9538C47.4718 84.6449 47.5906 84.3972 47.7438 84.2108C47.897 84.0218 48.0808 83.8865 48.2953 83.8048C48.5123 83.7231 48.7549 83.6822 49.023 83.6822C49.2401 83.6822 49.4392 83.709 49.6205 83.7627C49.8044 83.8137 49.9678 83.8967 50.1108 84.0116C50.2538 84.124 50.375 84.2746 50.4746 84.4636C50.5768 84.65 50.6546 84.8785 50.7083 85.1492C50.7619 85.4198 50.7887 85.7377 50.7887 86.1028ZM50.0763 87.068V85.9841C50.0763 85.7339 50.061 85.5143 50.0303 85.3253C50.0022 85.1338 49.9601 84.9704 49.9039 84.8351C49.8478 84.6998 49.7763 84.59 49.6895 84.5057C49.6052 84.4214 49.5069 84.3602 49.3945 84.3219C49.2847 84.281 49.1609 84.2606 49.023 84.2606C48.8545 84.2606 48.7051 84.2925 48.5749 84.3563C48.4447 84.4176 48.3349 84.5159 48.2455 84.6512C48.1587 84.7866 48.0923 84.964 48.0463 85.1836C48.0004 85.4032 47.9774 85.67 47.9774 85.9841V87.068C47.9774 87.3183 47.9914 87.5391 48.0195 87.7306C48.0502 87.9221 48.0949 88.0881 48.1536 88.2286C48.2123 88.3664 48.2838 88.4801 48.3681 88.5694C48.4523 88.6588 48.5494 88.7252 48.6592 88.7686C48.7715 88.8094 48.8953 88.8299 49.0307 88.8299C49.2043 88.8299 49.3562 88.7967 49.4865 88.7303C49.6167 88.6639 49.7252 88.5605 49.812 88.4201C49.9014 88.2771 49.9678 88.0945 50.0112 87.8724C50.0546 87.6477 50.0763 87.3795 50.0763 87.068Z" fill="#181819" fill-opacity="0.42"/>
<path d="M40.7921 141.905V147.512H40.0836V142.79L38.6549 143.311V142.671L40.6811 141.905H40.7921ZM46.3764 144.28V145.13C46.3764 145.587 46.3356 145.973 46.2539 146.287C46.1721 146.601 46.0547 146.853 45.9015 147.045C45.7483 147.236 45.5632 147.376 45.3461 147.462C45.1316 147.547 44.8891 147.589 44.6184 147.589C44.4039 147.589 44.206 147.562 44.0247 147.508C43.8434 147.455 43.68 147.369 43.5345 147.252C43.3915 147.132 43.2689 146.976 43.1668 146.784C43.0647 146.593 42.9868 146.361 42.9332 146.087C42.8795 145.814 42.8527 145.495 42.8527 145.13V144.28C42.8527 143.823 42.8936 143.44 42.9753 143.131C43.0596 142.822 43.1783 142.574 43.3315 142.388C43.4847 142.199 43.6685 142.063 43.883 141.982C44.1001 141.9 44.3426 141.859 44.6107 141.859C44.8278 141.859 45.0269 141.886 45.2082 141.939C45.3921 141.99 45.5555 142.073 45.6985 142.188C45.8415 142.301 45.9628 142.451 46.0624 142.64C46.1645 142.827 46.2424 143.055 46.296 143.326C46.3496 143.597 46.3764 143.914 46.3764 144.28ZM45.664 145.245V144.161C45.664 143.911 45.6487 143.691 45.6181 143.502C45.59 143.311 45.5478 143.147 45.4917 143.012C45.4355 142.877 45.364 142.767 45.2772 142.682C45.1929 142.598 45.0946 142.537 44.9823 142.499C44.8725 142.458 44.7486 142.437 44.6107 142.437C44.4422 142.437 44.2928 142.469 44.1626 142.533C44.0324 142.594 43.9226 142.693 43.8332 142.828C43.7464 142.963 43.68 143.141 43.6341 143.36C43.5881 143.58 43.5651 143.847 43.5651 144.161V145.245C43.5651 145.495 43.5792 145.716 43.6073 145.907C43.6379 146.099 43.6826 146.265 43.7413 146.405C43.8 146.543 43.8715 146.657 43.9558 146.746C44.0401 146.836 44.1371 146.902 44.2469 146.945C44.3592 146.986 44.4831 147.007 44.6184 147.007C44.792 147.007 44.944 146.973 45.0742 146.907C45.2044 146.841 45.3129 146.737 45.3997 146.597C45.4891 146.454 45.5555 146.271 45.5989 146.049C45.6423 145.824 45.664 145.556 45.664 145.245ZM50.7887 144.28V145.13C50.7887 145.587 50.7478 145.973 50.6661 146.287C50.5844 146.601 50.467 146.853 50.3138 147.045C50.1606 147.236 49.9754 147.376 49.7584 147.462C49.5439 147.547 49.3013 147.589 49.0307 147.589C48.8162 147.589 48.6183 147.562 48.437 147.508C48.2557 147.455 48.0923 147.369 47.9468 147.252C47.8038 147.132 47.6812 146.976 47.5791 146.784C47.4769 146.593 47.3991 146.361 47.3454 146.087C47.2918 145.814 47.265 145.495 47.265 145.13V144.28C47.265 143.823 47.3059 143.44 47.3876 143.131C47.4718 142.822 47.5906 142.574 47.7438 142.388C47.897 142.199 48.0808 142.063 48.2953 141.982C48.5123 141.9 48.7549 141.859 49.023 141.859C49.2401 141.859 49.4392 141.886 49.6205 141.939C49.8044 141.99 49.9678 142.073 50.1108 142.188C50.2538 142.301 50.375 142.451 50.4746 142.64C50.5768 142.827 50.6546 143.055 50.7083 143.326C50.7619 143.597 50.7887 143.914 50.7887 144.28ZM50.0763 145.245V144.161C50.0763 143.911 50.061 143.691 50.0303 143.502C50.0022 143.311 49.9601 143.147 49.9039 143.012C49.8478 142.877 49.7763 142.767 49.6895 142.682C49.6052 142.598 49.5069 142.537 49.3945 142.499C49.2847 142.458 49.1609 142.437 49.023 142.437C48.8545 142.437 48.7051 142.469 48.5749 142.533C48.4447 142.594 48.3349 142.693 48.2455 142.828C48.1587 142.963 48.0923 143.141 48.0463 143.36C48.0004 143.58 47.9774 143.847 47.9774 144.161V145.245C47.9774 145.495 47.9914 145.716 48.0195 145.907C48.0502 146.099 48.0949 146.265 48.1536 146.405C48.2123 146.543 48.2838 146.657 48.3681 146.746C48.4523 146.836 48.5494 146.902 48.6592 146.945C48.7715 146.986 48.8953 147.007 49.0307 147.007C49.2043 147.007 49.3562 146.973 49.4865 146.907C49.6167 146.841 49.7252 146.737 49.812 146.597C49.9014 146.454 49.9678 146.271 50.0112 146.049C50.0546 145.824 50.0763 145.556 50.0763 145.245Z" fill="#181819" fill-opacity="0.42"/>
<path d="M46.43 173.62L45.8631 173.474L46.1427 170.697H49.0038V171.352H46.7441L46.5755 172.869C46.6777 172.81 46.8066 172.755 46.9624 172.704C47.1207 172.653 47.302 172.628 47.5063 172.628C47.7641 172.628 47.9952 172.672 48.1995 172.762C48.4038 172.849 48.5774 172.974 48.7204 173.137C48.8659 173.3 48.977 173.497 49.0536 173.727C49.1302 173.957 49.1685 174.213 49.1685 174.497C49.1685 174.765 49.1315 175.011 49.0574 175.236C48.9859 175.461 48.8774 175.657 48.7319 175.826C48.5863 175.992 48.4025 176.121 48.1804 176.213C47.9608 176.305 47.7016 176.351 47.4028 176.351C47.1781 176.351 46.9649 176.32 46.7632 176.259C46.564 176.195 46.3853 176.099 46.227 175.971C46.0712 175.841 45.9436 175.68 45.844 175.489C45.747 175.295 45.6857 175.067 45.6601 174.807H46.3342C46.3649 175.016 46.4262 175.193 46.5181 175.336C46.61 175.479 46.73 175.587 46.8781 175.661C47.0288 175.733 47.2037 175.768 47.4028 175.768C47.5714 175.768 47.7207 175.739 47.851 175.68C47.9812 175.622 48.091 175.537 48.1804 175.427C48.2697 175.318 48.3374 175.185 48.3833 175.029C48.4319 174.873 48.4561 174.698 48.4561 174.504C48.4561 174.328 48.4319 174.165 48.3833 174.014C48.3348 173.864 48.2621 173.732 48.165 173.62C48.0706 173.507 47.9544 173.421 47.8165 173.359C47.6786 173.295 47.5203 173.263 47.3416 173.263C47.1041 173.263 46.9241 173.295 46.8015 173.359C46.6815 173.423 46.5577 173.51 46.43 173.62ZM53.4467 173.041V173.892C53.4467 174.349 53.4059 174.734 53.3242 175.048C53.2425 175.362 53.125 175.615 52.9718 175.807C52.8186 175.998 52.6335 176.137 52.4164 176.224C52.202 176.308 51.9594 176.351 51.6887 176.351C51.4742 176.351 51.2763 176.324 51.0951 176.27C50.9138 176.216 50.7503 176.131 50.6048 176.013C50.4618 175.893 50.3392 175.738 50.2371 175.546C50.135 175.355 50.0571 175.122 50.0035 174.849C49.9499 174.576 49.923 174.257 49.923 173.892V173.041C49.923 172.584 49.9639 172.201 50.0456 171.892C50.1299 171.583 50.2486 171.336 50.4018 171.149C50.555 170.96 50.7389 170.825 50.9533 170.743C51.1704 170.662 51.413 170.621 51.6811 170.621C51.8981 170.621 52.0973 170.648 52.2786 170.701C52.4624 170.752 52.6258 170.835 52.7688 170.95C52.9118 171.062 53.0331 171.213 53.1327 171.402C53.2348 171.588 53.3127 171.817 53.3663 172.088C53.4199 172.358 53.4467 172.676 53.4467 173.041ZM52.7343 174.007V172.923C52.7343 172.672 52.719 172.453 52.6884 172.264C52.6603 172.072 52.6182 171.909 52.562 171.774C52.5058 171.638 52.4343 171.528 52.3475 171.444C52.2632 171.36 52.1649 171.299 52.0526 171.26C51.9428 171.219 51.8189 171.199 51.6811 171.199C51.5125 171.199 51.3632 171.231 51.2329 171.295C51.1027 171.356 50.9929 171.454 50.9035 171.59C50.8167 171.725 50.7503 171.903 50.7044 172.122C50.6584 172.342 50.6354 172.609 50.6354 172.923V174.007C50.6354 174.257 50.6495 174.478 50.6776 174.669C50.7082 174.861 50.7529 175.027 50.8116 175.167C50.8704 175.305 50.9418 175.419 51.0261 175.508C51.1104 175.597 51.2074 175.664 51.3172 175.707C51.4295 175.748 51.5534 175.768 51.6887 175.768C51.8623 175.768 52.0143 175.735 52.1445 175.669C52.2747 175.602 52.3832 175.499 52.4701 175.359C52.5594 175.216 52.6258 175.033 52.6692 174.811C52.7126 174.586 52.7343 174.318 52.7343 174.007Z" fill="#181819" fill-opacity="0.42"/>
<path d="M56.097 201.803V202.653C56.097 203.11 56.0561 203.495 55.9744 203.81C55.8927 204.124 55.7752 204.376 55.622 204.568C55.4688 204.759 55.2837 204.899 55.0667 204.985C54.8522 205.07 54.6096 205.112 54.3389 205.112C54.1245 205.112 53.9266 205.085 53.7453 205.031C53.564 204.978 53.4006 204.892 53.255 204.775C53.112 204.655 52.9895 204.499 52.8873 204.307C52.7852 204.116 52.7073 203.884 52.6537 203.61C52.6001 203.337 52.5733 203.018 52.5733 202.653V201.803C52.5733 201.345 52.6141 200.962 52.6958 200.654C52.7801 200.345 52.8988 200.097 53.052 199.91C53.2052 199.722 53.3891 199.586 53.6036 199.504C53.8206 199.423 54.0632 199.382 54.3313 199.382C54.5483 199.382 54.7475 199.409 54.9288 199.462C55.1126 199.513 55.276 199.596 55.419 199.711C55.562 199.824 55.6833 199.974 55.7829 200.163C55.885 200.35 55.9629 200.578 56.0165 200.849C56.0702 201.12 56.097 201.437 56.097 201.803ZM55.3846 202.768V201.684C55.3846 201.434 55.3692 201.214 55.3386 201.025C55.3105 200.834 55.2684 200.67 55.2122 200.535C55.156 200.399 55.0845 200.29 54.9977 200.205C54.9135 200.121 54.8152 200.06 54.7028 200.022C54.593 199.981 54.4692 199.96 54.3313 199.96C54.1628 199.96 54.0134 199.992 53.8832 200.056C53.7529 200.117 53.6431 200.216 53.5538 200.351C53.467 200.486 53.4006 200.664 53.3546 200.883C53.3087 201.103 53.2857 201.37 53.2857 201.684V202.768C53.2857 203.018 53.2997 203.239 53.3278 203.43C53.3584 203.622 53.4031 203.788 53.4619 203.928C53.5206 204.066 53.5921 204.18 53.6763 204.269C53.7606 204.359 53.8576 204.425 53.9674 204.468C54.0798 204.509 54.2036 204.53 54.3389 204.53C54.5126 204.53 54.6645 204.496 54.7947 204.43C54.925 204.364 55.0335 204.26 55.1203 204.12C55.2097 203.977 55.276 203.794 55.3195 203.572C55.3629 203.347 55.3846 203.079 55.3846 202.768Z" fill="#181819" fill-opacity="0.42"/>
<path d="M203.679 207.272V212.879H202.971V208.157L201.542 208.678V208.038L203.568 207.272H203.679ZM206.797 209.743H207.303C207.55 209.743 207.755 209.702 207.915 209.62C208.079 209.536 208.2 209.422 208.279 209.279C208.361 209.134 208.402 208.97 208.402 208.789C208.402 208.574 208.366 208.394 208.295 208.249C208.223 208.103 208.116 207.993 207.973 207.919C207.83 207.845 207.649 207.808 207.429 207.808C207.23 207.808 207.054 207.848 206.9 207.927C206.75 208.004 206.631 208.113 206.544 208.256C206.46 208.399 206.418 208.568 206.418 208.762H205.709C205.709 208.479 205.781 208.221 205.924 207.988C206.067 207.756 206.267 207.571 206.525 207.433C206.786 207.295 207.087 207.226 207.429 207.226C207.766 207.226 208.061 207.286 208.314 207.406C208.567 207.524 208.763 207.7 208.904 207.935C209.044 208.167 209.114 208.457 209.114 208.804C209.114 208.945 209.081 209.095 209.015 209.256C208.951 209.414 208.85 209.563 208.712 209.7C208.577 209.838 208.401 209.952 208.184 210.041C207.967 210.128 207.706 210.172 207.402 210.172H206.797V209.743ZM206.797 210.325V209.9H207.402C207.757 209.9 208.051 209.942 208.283 210.026C208.515 210.11 208.698 210.223 208.831 210.363C208.966 210.503 209.061 210.658 209.114 210.826C209.17 210.992 209.199 211.158 209.199 211.324C209.199 211.585 209.154 211.816 209.064 212.018C208.978 212.219 208.854 212.39 208.693 212.531C208.535 212.671 208.348 212.777 208.134 212.849C207.919 212.92 207.686 212.956 207.433 212.956C207.19 212.956 206.962 212.922 206.747 212.853C206.535 212.784 206.348 212.684 206.184 212.554C206.021 212.421 205.893 212.259 205.801 212.067C205.709 211.873 205.663 211.652 205.663 211.405H206.372C206.372 211.599 206.414 211.769 206.498 211.914C206.585 212.06 206.708 212.173 206.866 212.255C207.027 212.334 207.216 212.374 207.433 212.374C207.65 212.374 207.836 212.337 207.992 212.263C208.15 212.186 208.272 212.071 208.356 211.918C208.443 211.765 208.486 211.572 208.486 211.34C208.486 211.107 208.438 210.917 208.341 210.769C208.244 210.618 208.106 210.507 207.927 210.436C207.751 210.362 207.543 210.325 207.303 210.325H206.797ZM210.221 212.504C210.221 212.384 210.258 212.283 210.332 212.201C210.409 212.117 210.519 212.075 210.662 212.075C210.805 212.075 210.913 212.117 210.987 212.201C211.064 212.283 211.102 212.384 211.102 212.504C211.102 212.622 211.064 212.721 210.987 212.803C210.913 212.885 210.805 212.925 210.662 212.925C210.519 212.925 210.409 212.885 210.332 212.803C210.258 212.721 210.221 212.622 210.221 212.504ZM210.225 209.122C210.225 209.002 210.262 208.901 210.336 208.819C210.413 208.735 210.522 208.693 210.665 208.693C210.808 208.693 210.917 208.735 210.991 208.819C211.068 208.901 211.106 209.002 211.106 209.122C211.106 209.24 211.068 209.339 210.991 209.421C210.917 209.503 210.808 209.543 210.665 209.543C210.522 209.543 210.413 209.503 210.336 209.421C210.262 209.339 210.225 209.24 210.225 209.122ZM215.576 209.647V210.497C215.576 210.954 215.535 211.34 215.453 211.654C215.371 211.968 215.254 212.221 215.101 212.412C214.948 212.604 214.762 212.743 214.545 212.83C214.331 212.914 214.088 212.956 213.818 212.956C213.603 212.956 213.405 212.929 213.224 212.876C213.043 212.822 212.879 212.736 212.734 212.619C212.591 212.499 212.468 212.343 212.366 212.152C212.264 211.96 212.186 211.728 212.132 211.455C212.079 211.181 212.052 210.862 212.052 210.497V209.647C212.052 209.19 212.093 208.807 212.175 208.498C212.259 208.189 212.378 207.941 212.531 207.755C212.684 207.566 212.868 207.43 213.082 207.349C213.299 207.267 213.542 207.226 213.81 207.226C214.027 207.226 214.226 207.253 214.407 207.307C214.591 207.358 214.755 207.441 214.898 207.556C215.041 207.668 215.162 207.819 215.262 208.008C215.364 208.194 215.442 208.422 215.495 208.693C215.549 208.964 215.576 209.282 215.576 209.647ZM214.863 210.612V209.528C214.863 209.278 214.848 209.058 214.817 208.869C214.789 208.678 214.747 208.514 214.691 208.379C214.635 208.244 214.563 208.134 214.476 208.05C214.392 207.965 214.294 207.904 214.181 207.866C214.072 207.825 213.948 207.805 213.81 207.805C213.641 207.805 213.492 207.836 213.362 207.9C213.232 207.962 213.122 208.06 213.032 208.195C212.946 208.331 212.879 208.508 212.833 208.728C212.787 208.947 212.764 209.214 212.764 209.528V210.612C212.764 210.862 212.778 211.083 212.806 211.275C212.837 211.466 212.882 211.632 212.941 211.772C212.999 211.91 213.071 212.024 213.155 212.113C213.239 212.203 213.336 212.269 213.446 212.313C213.558 212.353 213.682 212.374 213.818 212.374C213.991 212.374 214.143 212.341 214.273 212.274C214.404 212.208 214.512 212.104 214.599 211.964C214.688 211.821 214.755 211.638 214.798 211.416C214.842 211.192 214.863 210.923 214.863 210.612ZM219.988 209.647V210.497C219.988 210.954 219.947 211.34 219.865 211.654C219.784 211.968 219.666 212.221 219.513 212.412C219.36 212.604 219.175 212.743 218.958 212.83C218.743 212.914 218.501 212.956 218.23 212.956C218.015 212.956 217.818 212.929 217.636 212.876C217.455 212.822 217.292 212.736 217.146 212.619C217.003 212.499 216.88 212.343 216.778 212.152C216.676 211.96 216.598 211.728 216.545 211.455C216.491 211.181 216.464 210.862 216.464 210.497V209.647C216.464 209.19 216.505 208.807 216.587 208.498C216.671 208.189 216.79 207.941 216.943 207.755C217.096 207.566 217.28 207.43 217.495 207.349C217.712 207.267 217.954 207.226 218.222 207.226C218.439 207.226 218.638 207.253 218.82 207.307C219.004 207.358 219.167 207.441 219.31 207.556C219.453 207.668 219.574 207.819 219.674 208.008C219.776 208.194 219.854 208.422 219.907 208.693C219.961 208.964 219.988 209.282 219.988 209.647ZM219.276 210.612V209.528C219.276 209.278 219.26 209.058 219.23 208.869C219.201 208.678 219.159 208.514 219.103 208.379C219.047 208.244 218.975 208.134 218.889 208.05C218.804 207.965 218.706 207.904 218.594 207.866C218.484 207.825 218.36 207.805 218.222 207.805C218.054 207.805 217.904 207.836 217.774 207.9C217.644 207.962 217.534 208.06 217.445 208.195C217.358 208.331 217.292 208.508 217.246 208.728C217.2 208.947 217.177 209.214 217.177 209.528V210.612C217.177 210.862 217.191 211.083 217.219 211.275C217.249 211.466 217.294 211.632 217.353 211.772C217.412 211.91 217.483 212.024 217.567 212.113C217.652 212.203 217.749 212.269 217.858 212.313C217.971 212.353 218.095 212.374 218.23 212.374C218.404 212.374 218.555 212.341 218.686 212.274C218.816 212.208 218.924 212.104 219.011 211.964C219.101 211.821 219.167 211.638 219.21 211.416C219.254 211.192 219.276 210.923 219.276 210.612Z" fill="#181819" fill-opacity="0.42"/>
<path d="M425.691 134.405C405.843 134.405 343.277 144.692 316.538 144.692C289.799 144.692 252.438 173.763 216.908 173.763C181.378 173.763 134.86 142.903 111.051 142.903C87.2428 142.903 65.2656 157.215 65.2656 157.215V202.611H783.186V135.747C763.338 135.747 749.073 126.131 729.709 126.131C710.345 126.131 653.155 169.291 627.515 169.291C601.875 169.291 569.436 135.868 539.694 144.692C509.952 153.517 445.539 134.405 425.691 134.405Z" fill="url(#paint0_linear_136_11699)"/>
<path d="M783.186 135.765C763.338 135.765 749.073 126.131 729.709 126.131C710.345 126.131 653.155 169.369 627.515 169.369C601.875 169.369 571.397 135.765 543.289 144.726C515.182 153.687 445.539 134.42 425.691 134.42C405.843 134.42 343.277 144.726 316.538 144.726C289.799 144.726 252.438 173.849 216.908 173.849C181.378 173.849 134.86 142.933 111.051 142.933C87.2428 142.933 65.2656 157.271 65.2656 157.271" stroke="#F4BE37" stroke-width="1.30734"/>
</g>
<defs>
<linearGradient id="paint0_linear_136_11699" x1="424.226" y1="124.322" x2="424.226" y2="202.611" gradientUnits="userSpaceOnUse">
<stop stop-color="#F8DD9C"/>
<stop offset="1" stop-color="white" stop-opacity="0"/>
</linearGradient>
<clipPath id="clip0_136_11699">
<rect y="0.626953" width="445" height="284.765" rx="28" fill="white"/>
</clipPath>
</defs>
</svg>
