<svg width="265" height="231" viewBox="0 0 265 231" fill="none" xmlns="http://www.w3.org/2000/svg">
<g clip-path="url(#clip0_131_8798)">
<rect width="265" height="230.809" rx="28" fill="white"/>
<path d="M71.3041 54.8291L130.826 26.1649L190.348 54.8291L205.049 119.237L163.858 170.888H97.7939L56.6034 119.237L71.3041 54.8291Z" stroke="black" stroke-opacity="0.12" stroke-width="0.477477"/>
<path d="M78.7754 60.7834L130.831 35.7147L182.887 60.7834L195.744 117.112L159.72 162.285H101.942L65.9187 117.112L78.7754 60.7834Z" stroke="black" stroke-opacity="0.12" stroke-width="0.477477"/>
<path d="M86.2389 66.7373L130.829 45.264L175.418 66.7373L186.431 114.987L155.574 153.681H106.083L75.2261 114.987L86.2389 66.7373Z" stroke="black" stroke-opacity="0.12" stroke-width="0.477477"/>
<path d="M93.7024 72.6911L130.826 54.8133L167.949 72.6911L177.118 112.862L151.428 145.077H110.224L84.5336 112.862L93.7024 72.6911Z" stroke="black" stroke-opacity="0.12" stroke-width="0.477477"/>
<path d="M101.174 78.6454L130.831 64.3631L160.488 78.6454L167.813 110.737L147.29 136.473H114.372L93.8489 110.737L101.174 78.6454Z" stroke="black" stroke-opacity="0.12" stroke-width="0.477477"/>
<path d="M108.637 84.5992L130.828 73.9124L153.02 84.5992L158.5 108.612L143.144 127.869H118.513L103.156 108.612L108.637 84.5992Z" stroke="black" stroke-opacity="0.12" stroke-width="0.477477"/>
<path d="M116.101 90.5535L130.826 83.4622L145.551 90.5535L149.188 106.487L138.997 119.265H122.654L112.464 106.487L116.101 90.5535Z" stroke="black" stroke-opacity="0.12" stroke-width="0.477477"/>
<path d="M123.572 96.5073L130.831 93.0116L138.09 96.5073L139.883 104.362L134.859 110.661H126.802L121.779 104.362L123.572 96.5073Z" stroke="black" stroke-opacity="0.12" stroke-width="0.477477"/>
<path d="M131.068 102.535L190.275 55.0261M131.068 102.535L204.838 119.247M131.068 102.535L163.775 170.814M131.068 102.535L97.8834 170.814M131.068 102.535L56.8203 119.247M131.068 102.535L71.3834 55.0261M131.068 102.535L130.829 26.3774" stroke="black" stroke-opacity="0.12" stroke-width="0.477477" stroke-linecap="round" stroke-linejoin="round"/>
<path d="M165.424 172.959L164.3 176.053H163.841L165.135 172.659H165.431L165.424 172.959ZM166.366 176.053L165.24 172.959L165.233 172.659H165.529L166.828 176.053H166.366ZM166.308 174.797V175.165H164.401V174.797H166.308ZM167.648 174.016V177.023H167.215V173.531H167.611L167.648 174.016ZM169.348 174.771V174.82C169.348 175.003 169.326 175.173 169.283 175.33C169.239 175.486 169.175 175.621 169.091 175.736C169.009 175.851 168.907 175.941 168.786 176.004C168.665 176.068 168.526 176.1 168.369 176.1C168.209 176.1 168.067 176.073 167.944 176.021C167.822 175.968 167.717 175.891 167.632 175.79C167.546 175.689 167.478 175.568 167.427 175.426C167.377 175.285 167.343 175.125 167.324 174.948V174.687C167.343 174.5 167.378 174.333 167.429 174.186C167.48 174.038 167.548 173.912 167.632 173.808C167.717 173.702 167.821 173.622 167.942 173.568C168.063 173.512 168.203 173.484 168.362 173.484C168.52 173.484 168.661 173.515 168.784 173.577C168.906 173.638 169.01 173.725 169.094 173.838C169.178 173.952 169.241 174.088 169.283 174.246C169.326 174.403 169.348 174.578 169.348 174.771ZM168.914 174.82V174.771C168.914 174.645 168.901 174.527 168.875 174.417C168.848 174.305 168.807 174.207 168.751 174.123C168.697 174.037 168.627 173.97 168.541 173.922C168.456 173.873 168.354 173.848 168.236 173.848C168.127 173.848 168.032 173.866 167.951 173.904C167.872 173.941 167.804 173.991 167.749 174.055C167.693 174.117 167.647 174.189 167.611 174.27C167.577 174.349 167.551 174.431 167.534 174.517V175.121C167.565 175.229 167.609 175.332 167.665 175.428C167.721 175.523 167.795 175.6 167.888 175.659C167.982 175.717 168.099 175.745 168.24 175.745C168.357 175.745 168.457 175.721 168.541 175.673C168.627 175.623 168.697 175.556 168.751 175.47C168.807 175.385 168.848 175.287 168.875 175.177C168.901 175.065 168.914 174.946 168.914 174.82ZM170.329 173.927V176.053H169.898V173.531H170.318L170.329 173.927ZM171.117 173.517L171.115 173.918C171.079 173.91 171.045 173.905 171.013 173.904C170.981 173.901 170.946 173.899 170.905 173.899C170.806 173.899 170.718 173.915 170.642 173.946C170.566 173.977 170.501 174.02 170.448 174.076C170.395 174.132 170.354 174.199 170.322 174.277C170.293 174.353 170.273 174.437 170.264 174.528L170.143 174.598C170.143 174.446 170.158 174.303 170.187 174.169C170.218 174.036 170.266 173.918 170.329 173.815C170.393 173.711 170.474 173.63 170.572 173.573C170.671 173.514 170.789 173.484 170.926 173.484C170.957 173.484 170.993 173.488 171.034 173.496C171.074 173.502 171.102 173.509 171.117 173.517ZM171.985 173.531V176.053H171.551V173.531H171.985ZM171.518 172.861C171.518 172.792 171.539 172.732 171.581 172.684C171.625 172.636 171.689 172.612 171.773 172.612C171.855 172.612 171.918 172.636 171.961 172.684C172.007 172.732 172.029 172.792 172.029 172.861C172.029 172.928 172.007 172.986 171.961 173.034C171.918 173.081 171.855 173.104 171.773 173.104C171.689 173.104 171.625 173.081 171.581 173.034C171.539 172.986 171.518 172.928 171.518 172.861ZM173.146 172.472V176.053H172.712V172.472H173.146Z" fill="black"/>
<path d="M90.7784 172.659H91.2144L92.3265 175.426L93.4363 172.659H93.8746L92.4944 176.053H92.154L90.7784 172.659ZM90.6362 172.659H91.0209L91.0838 174.729V176.053H90.6362V172.659ZM93.6298 172.659H94.0144V176.053H93.5668V174.729L93.6298 172.659ZM96.227 175.622V174.323C96.227 174.224 96.2068 174.138 96.1664 174.065C96.1275 173.99 96.0684 173.932 95.9892 173.892C95.9099 173.852 95.812 173.831 95.6954 173.831C95.5866 173.831 95.491 173.85 95.4086 173.887C95.3278 173.925 95.2641 173.974 95.2175 174.034C95.1724 174.095 95.1499 174.16 95.1499 174.23H94.7185C94.7185 174.14 94.7419 174.051 94.7885 173.962C94.8351 173.873 94.9019 173.793 94.989 173.722C95.0776 173.649 95.1833 173.591 95.3061 173.549C95.4304 173.506 95.5687 173.484 95.7211 173.484C95.9045 173.484 96.0661 173.515 96.206 173.577C96.3474 173.639 96.4578 173.733 96.5371 173.859C96.6179 173.984 96.6583 174.14 96.6583 174.328V175.503C96.6583 175.587 96.6653 175.676 96.6793 175.771C96.6948 175.866 96.7174 175.948 96.7469 176.016V176.053H96.2969C96.2752 176.003 96.2581 175.937 96.2456 175.855C96.2332 175.771 96.227 175.693 96.227 175.622ZM96.3016 174.524L96.3062 174.827H95.8703C95.7475 174.827 95.6379 174.837 95.5415 174.857C95.4452 174.876 95.3643 174.905 95.2991 174.943C95.2338 174.982 95.184 175.031 95.1499 175.09C95.1157 175.148 95.0986 175.215 95.0986 175.293C95.0986 175.372 95.1164 175.445 95.1522 175.51C95.1879 175.575 95.2416 175.627 95.3131 175.666C95.3861 175.704 95.4755 175.722 95.5812 175.722C95.7133 175.722 95.8299 175.694 95.9309 175.638C96.0319 175.582 96.112 175.514 96.171 175.433C96.2316 175.352 96.2643 175.274 96.2689 175.198L96.4531 175.405C96.4422 175.47 96.4127 175.543 96.3645 175.622C96.3163 175.701 96.2518 175.777 96.171 175.85C96.0918 175.922 95.9969 175.982 95.8866 176.03C95.7778 176.077 95.655 176.1 95.5182 176.1C95.3472 176.1 95.1973 176.066 95.0683 176C94.9408 175.933 94.8413 175.843 94.7698 175.731C94.6999 175.618 94.6649 175.491 94.6649 175.351C94.6649 175.216 94.6913 175.097 94.7442 174.995C94.797 174.891 94.8732 174.804 94.9727 174.736C95.0721 174.666 95.1918 174.613 95.3317 174.577C95.4716 174.542 95.6278 174.524 95.8003 174.524H96.3016ZM98.0082 175.792L98.71 173.531H99.1716L98.1597 176.443C98.1364 176.505 98.1053 176.572 98.0665 176.643C98.0292 176.716 97.981 176.785 97.9219 176.851C97.8629 176.916 97.7914 176.969 97.7074 177.009C97.6251 177.051 97.5264 177.072 97.4113 177.072C97.3772 177.072 97.3336 177.067 97.2808 177.058C97.2279 177.049 97.1906 177.041 97.1689 177.035L97.1665 176.685C97.179 176.687 97.1984 176.688 97.2248 176.69C97.2528 176.693 97.2722 176.694 97.2831 176.694C97.381 176.694 97.4642 176.681 97.5326 176.655C97.601 176.63 97.6585 176.587 97.7051 176.527C97.7533 176.467 97.7945 176.386 97.8287 176.282L98.0082 175.792ZM97.4929 173.531L98.1481 175.489L98.26 175.944L97.9499 176.102L97.022 173.531H97.4929Z" fill="black"/>
<path d="M47.1779 119.675V117.271H47.6255V119.675C47.6255 119.898 47.5797 120.087 47.488 120.241C47.3963 120.395 47.2696 120.512 47.1079 120.593C46.9479 120.673 46.7637 120.712 46.5554 120.712C46.3471 120.712 46.1622 120.676 46.0005 120.605C45.8389 120.533 45.7122 120.425 45.6205 120.279C45.5288 120.132 45.4829 119.948 45.4829 119.726H45.9329C45.9329 119.869 45.9593 119.986 46.0122 120.078C46.065 120.17 46.1381 120.237 46.2313 120.281C46.3261 120.324 46.4342 120.346 46.5554 120.346C46.6735 120.346 46.7792 120.321 46.8725 120.272C46.9673 120.22 47.0419 120.145 47.0963 120.045C47.1507 119.944 47.1779 119.821 47.1779 119.675ZM49.866 120.083V118.143H50.2997V120.666H49.887L49.866 120.083ZM49.9476 119.551L50.1272 119.546C50.1272 119.714 50.1093 119.87 50.0735 120.013C50.0393 120.154 49.9834 120.277 49.9057 120.381C49.828 120.485 49.7261 120.567 49.6003 120.626C49.4744 120.683 49.3213 120.712 49.141 120.712C49.0182 120.712 48.9055 120.694 48.8029 120.659C48.7019 120.623 48.6148 120.568 48.5418 120.493C48.4687 120.418 48.412 120.321 48.3716 120.202C48.3327 120.082 48.3133 119.938 48.3133 119.77V118.143H48.7446V119.775C48.7446 119.888 48.7571 119.982 48.7819 120.057C48.8083 120.13 48.8433 120.188 48.8868 120.232C48.9319 120.274 48.9816 120.303 49.036 120.32C49.092 120.338 49.1495 120.346 49.2086 120.346C49.392 120.346 49.5373 120.311 49.6445 120.241C49.7518 120.17 49.8287 120.074 49.8754 119.954C49.9235 119.833 49.9476 119.699 49.9476 119.551ZM51.3885 118.681V120.666H50.9571V118.143H51.3651L51.3885 118.681ZM51.2859 119.309L51.1064 119.302C51.1079 119.129 51.1336 118.97 51.1833 118.824C51.233 118.676 51.303 118.548 51.3931 118.439C51.4833 118.33 51.5905 118.246 51.7149 118.187C51.8408 118.127 51.9799 118.096 52.1322 118.096C52.2565 118.096 52.3684 118.113 52.4679 118.148C52.5674 118.18 52.6521 118.233 52.722 118.306C52.7935 118.379 52.8479 118.474 52.8852 118.591C52.9225 118.706 52.9412 118.846 52.9412 119.013V120.666H52.5075V119.008C52.5075 118.876 52.4881 118.77 52.4493 118.691C52.4104 118.61 52.3537 118.552 52.2791 118.516C52.2045 118.479 52.1128 118.46 52.004 118.46C51.8967 118.46 51.7988 118.483 51.7102 118.528C51.6232 118.573 51.5478 118.635 51.484 118.714C51.4219 118.793 51.3729 118.884 51.3372 118.987C51.303 119.088 51.2859 119.195 51.2859 119.309ZM54.6431 120.712C54.4675 120.712 54.3082 120.683 54.1652 120.624C54.0238 120.563 53.9017 120.478 53.7992 120.369C53.6981 120.261 53.6204 120.132 53.566 119.982C53.5116 119.833 53.4844 119.67 53.4844 119.493V119.395C53.4844 119.19 53.5147 119.007 53.5753 118.847C53.636 118.685 53.7183 118.549 53.8225 118.437C53.9266 118.325 54.0447 118.24 54.1769 118.183C54.309 118.125 54.4457 118.096 54.5872 118.096C54.7675 118.096 54.9229 118.127 55.0535 118.19C55.1856 118.252 55.2936 118.339 55.3775 118.451C55.4615 118.561 55.5236 118.692 55.5641 118.842C55.6045 118.992 55.6247 119.155 55.6247 119.332V119.525H53.7409V119.173H55.1934V119.141C55.1871 119.029 55.1638 118.92 55.1234 118.814C55.0846 118.709 55.0224 118.622 54.9369 118.553C54.8514 118.485 54.7348 118.451 54.5872 118.451C54.4893 118.451 54.3991 118.472 54.3167 118.514C54.2344 118.554 54.1636 118.615 54.1046 118.695C54.0455 118.776 53.9997 118.875 53.967 118.992C53.9344 119.108 53.9181 119.243 53.9181 119.395V119.493C53.9181 119.612 53.9344 119.725 53.967 119.831C54.0012 119.935 54.0502 120.027 54.1139 120.106C54.1792 120.185 54.2577 120.247 54.3494 120.292C54.4426 120.338 54.5483 120.36 54.6665 120.36C54.8188 120.36 54.9478 120.329 55.0535 120.267C55.1592 120.205 55.2516 120.122 55.3309 120.017L55.592 120.225C55.5376 120.307 55.4685 120.386 55.3845 120.46C55.3006 120.535 55.1972 120.596 55.0745 120.642C54.9532 120.689 54.8095 120.712 54.6431 120.712Z" fill="black"/>
<path d="M63.8888 54.2606V51.8569H64.3365V54.2606C64.3365 54.4844 64.2906 54.6733 64.1989 54.8271C64.1072 54.981 63.9805 55.0984 63.8189 55.1792C63.6588 55.2585 63.4746 55.2981 63.2663 55.2981C63.0581 55.2981 62.8731 55.2623 62.7115 55.1908C62.5498 55.1194 62.4231 55.0106 62.3314 54.8644C62.2397 54.7183 62.1939 54.5342 62.1939 54.3119H62.6438C62.6438 54.4549 62.6703 54.5722 62.7231 54.6639C62.776 54.7556 62.849 54.8233 62.9423 54.8668C63.0371 54.9103 63.1451 54.9321 63.2663 54.9321C63.3845 54.9321 63.4902 54.9072 63.5834 54.8575C63.6782 54.8062 63.7528 54.7308 63.8072 54.6313C63.8616 54.5303 63.8888 54.4067 63.8888 54.2606ZM66.577 54.6686V52.7289H67.0106V55.2515H66.598L66.577 54.6686ZM66.6586 54.137L66.8381 54.1324C66.8381 54.3002 66.8202 54.4557 66.7845 54.5987C66.7503 54.7401 66.6943 54.8629 66.6166 54.967C66.5389 55.0712 66.4371 55.1528 66.3112 55.2118C66.1853 55.2693 66.0322 55.2981 65.8519 55.2981C65.7291 55.2981 65.6164 55.2802 65.5138 55.2445C65.4128 55.2087 65.3258 55.1535 65.2527 55.0789C65.1797 55.0043 65.1229 54.9072 65.0825 54.7875C65.0437 54.6678 65.0242 54.5241 65.0242 54.3562V52.7289H65.4556V54.3609C65.4556 54.4743 65.468 54.5684 65.4929 54.643C65.5193 54.716 65.5543 54.7743 65.5978 54.8178C65.6428 54.8598 65.6926 54.8893 65.747 54.9064C65.8029 54.9235 65.8604 54.9321 65.9195 54.9321C66.1029 54.9321 66.2482 54.8971 66.3555 54.8271C66.4627 54.7556 66.5397 54.6601 66.5863 54.5404C66.6345 54.4191 66.6586 54.2847 66.6586 54.137ZM68.1367 51.6704V55.2515H67.7031V51.6704H68.1367ZM69.5379 54.9903L70.2397 52.7289H70.7013L69.6894 55.6408C69.6661 55.703 69.635 55.7698 69.5962 55.8413C69.5589 55.9144 69.5107 55.9835 69.4516 56.0488C69.3926 56.1141 69.3211 56.1669 69.2371 56.2074C69.1548 56.2493 69.0561 56.2703 68.941 56.2703C68.9069 56.2703 68.8633 56.2656 68.8105 56.2563C68.7576 56.247 68.7203 56.2392 68.6986 56.233L68.6962 55.8833C68.7087 55.8848 68.7281 55.8864 68.7545 55.8879C68.7825 55.8911 68.8019 55.8926 68.8128 55.8926C68.9107 55.8926 68.9939 55.8794 69.0623 55.853C69.1307 55.8281 69.1882 55.7854 69.2348 55.7247C69.283 55.6657 69.3242 55.5841 69.3584 55.4799L69.5379 54.9903ZM69.0226 52.7289L69.6778 54.6873L69.7897 55.1419L69.4796 55.3004L68.5517 52.7289H69.0226Z" fill="black"/>
<path d="M124.529 17.972V15.5683H124.977V17.972C124.977 18.1958 124.931 18.3847 124.84 18.5386C124.748 18.6924 124.621 18.8098 124.46 18.8906C124.299 18.9699 124.115 19.0095 123.907 19.0095C123.699 19.0095 123.514 18.9738 123.352 18.9023C123.19 18.8308 123.064 18.722 122.972 18.5759C122.88 18.4298 122.835 18.2456 122.835 18.0233H123.284C123.284 18.1663 123.311 18.2837 123.364 18.3754C123.417 18.4671 123.49 18.5347 123.583 18.5782C123.678 18.6217 123.786 18.6435 123.907 18.6435C124.025 18.6435 124.131 18.6186 124.224 18.5689C124.319 18.5176 124.393 18.4422 124.448 18.3427C124.502 18.2417 124.529 18.1181 124.529 17.972ZM127.162 18.5316V17.233C127.162 17.1335 127.141 17.0472 127.101 16.9742C127.062 16.8996 127.003 16.8421 126.924 16.8017C126.845 16.7612 126.747 16.741 126.63 16.741C126.521 16.741 126.426 16.7597 126.343 16.797C126.262 16.8343 126.199 16.8833 126.152 16.9439C126.107 17.0045 126.085 17.0698 126.085 17.1397H125.653C125.653 17.0496 125.677 16.9602 125.723 16.8716C125.77 16.783 125.837 16.703 125.924 16.6315C126.012 16.5584 126.118 16.5009 126.241 16.4589C126.365 16.4154 126.503 16.3937 126.656 16.3937C126.839 16.3937 127.001 16.4247 127.141 16.4869C127.282 16.5491 127.392 16.6431 127.472 16.769C127.553 16.8934 127.593 17.0496 127.593 17.2376V18.4127C127.593 18.4966 127.6 18.586 127.614 18.6808C127.629 18.7756 127.652 18.8572 127.682 18.9256V18.9629H127.232C127.21 18.9132 127.193 18.8471 127.18 18.7647C127.168 18.6808 127.162 18.6031 127.162 18.5316ZM127.236 17.4335L127.241 17.7366H126.805C126.682 17.7366 126.573 17.7467 126.476 17.7669C126.38 17.7855 126.299 17.8143 126.234 17.8531C126.168 17.892 126.119 17.9409 126.085 18C126.05 18.0575 126.033 18.1251 126.033 18.2028C126.033 18.2821 126.051 18.3544 126.087 18.4197C126.123 18.4849 126.176 18.537 126.248 18.5759C126.321 18.6132 126.41 18.6318 126.516 18.6318C126.648 18.6318 126.765 18.6038 126.866 18.5479C126.967 18.4919 127.047 18.4236 127.106 18.3427C127.166 18.2619 127.199 18.1834 127.204 18.1073L127.388 18.3148C127.377 18.38 127.347 18.4523 127.299 18.5316C127.251 18.6108 127.187 18.687 127.106 18.7601C127.026 18.8316 126.932 18.8914 126.821 18.9396C126.712 18.9862 126.59 19.0095 126.453 19.0095C126.282 19.0095 126.132 18.9761 126.003 18.9093C125.875 18.8424 125.776 18.7531 125.704 18.6412C125.635 18.5277 125.6 18.401 125.6 18.2611C125.6 18.1259 125.626 18.007 125.679 17.9044C125.732 17.8003 125.808 17.714 125.907 17.6456C126.007 17.5757 126.126 17.5228 126.266 17.4871C126.406 17.4513 126.562 17.4335 126.735 17.4335H127.236ZM128.703 16.9788V18.9629H128.271V16.4403H128.679L128.703 16.9788ZM128.6 17.606L128.421 17.599C128.422 17.4265 128.448 17.2672 128.498 17.1211C128.547 16.9734 128.617 16.8452 128.707 16.7364C128.798 16.6276 128.905 16.5436 129.029 16.4846C129.155 16.424 129.294 16.3937 129.446 16.3937C129.571 16.3937 129.683 16.4107 129.782 16.4449C129.882 16.4776 129.966 16.5304 130.036 16.6035C130.108 16.6765 130.162 16.7713 130.2 16.8879C130.237 17.0029 130.255 17.1436 130.255 17.3099V18.9629H129.822V17.3052C129.822 17.1731 129.802 17.0674 129.764 16.9882C129.725 16.9073 129.668 16.8491 129.593 16.8133C129.519 16.776 129.427 16.7574 129.318 16.7574C129.211 16.7574 129.113 16.7799 129.024 16.825C128.937 16.87 128.862 16.9322 128.798 17.0115C128.736 17.0907 128.687 17.1817 128.651 17.2843C128.617 17.3853 128.6 17.4925 128.6 17.606ZM132.454 18.38V16.4403H132.888V18.9629H132.475L132.454 18.38ZM132.536 17.8485L132.715 17.8438C132.715 18.0117 132.697 18.1671 132.661 18.3101C132.627 18.4515 132.571 18.5743 132.494 18.6785C132.416 18.7826 132.314 18.8642 132.188 18.9233C132.062 18.9808 131.909 19.0095 131.729 19.0095C131.606 19.0095 131.493 18.9916 131.391 18.9559C131.29 18.9201 131.203 18.865 131.13 18.7904C131.057 18.7158 131 18.6186 130.96 18.4989C130.921 18.3793 130.901 18.2355 130.901 18.0676V16.4403H131.333V18.0723C131.333 18.1857 131.345 18.2798 131.37 18.3544C131.396 18.4274 131.431 18.4857 131.475 18.5292C131.52 18.5712 131.57 18.6007 131.624 18.6178C131.68 18.6349 131.737 18.6435 131.797 18.6435C131.98 18.6435 132.125 18.6085 132.233 18.5386C132.34 18.4671 132.417 18.3715 132.463 18.2518C132.512 18.1306 132.536 17.9961 132.536 17.8485ZM135.033 18.5316V17.233C135.033 17.1335 135.012 17.0472 134.972 16.9742C134.933 16.8996 134.874 16.8421 134.795 16.8017C134.715 16.7612 134.618 16.741 134.501 16.741C134.392 16.741 134.297 16.7597 134.214 16.797C134.133 16.8343 134.07 16.8833 134.023 16.9439C133.978 17.0045 133.955 17.0698 133.955 17.1397H133.524C133.524 17.0496 133.547 16.9602 133.594 16.8716C133.641 16.783 133.708 16.703 133.795 16.6315C133.883 16.5584 133.989 16.5009 134.112 16.4589C134.236 16.4154 134.374 16.3937 134.527 16.3937C134.71 16.3937 134.872 16.4247 135.012 16.4869C135.153 16.5491 135.263 16.6431 135.343 16.769C135.423 16.8934 135.464 17.0496 135.464 17.2376V18.4127C135.464 18.4966 135.471 18.586 135.485 18.6808C135.5 18.7756 135.523 18.8572 135.552 18.9256V18.9629H135.103C135.081 18.9132 135.064 18.8471 135.051 18.7647C135.039 18.6808 135.033 18.6031 135.033 18.5316ZM135.107 17.4335L135.112 17.7366H134.676C134.553 17.7366 134.443 17.7467 134.347 17.7669C134.251 17.7855 134.17 17.8143 134.105 17.8531C134.039 17.892 133.99 17.9409 133.955 18C133.921 18.0575 133.904 18.1251 133.904 18.2028C133.904 18.2821 133.922 18.3544 133.958 18.4197C133.994 18.4849 134.047 18.537 134.119 18.5759C134.192 18.6132 134.281 18.6318 134.387 18.6318C134.519 18.6318 134.635 18.6038 134.736 18.5479C134.837 18.4919 134.918 18.4236 134.977 18.3427C135.037 18.2619 135.07 18.1834 135.075 18.1073L135.259 18.3148C135.248 18.38 135.218 18.4523 135.17 18.5316C135.122 18.6108 135.057 18.687 134.977 18.7601C134.897 18.8316 134.803 18.8914 134.692 18.9396C134.583 18.9862 134.461 19.0095 134.324 19.0095C134.153 19.0095 134.003 18.9761 133.874 18.9093C133.746 18.8424 133.647 18.7531 133.575 18.6412C133.505 18.5277 133.471 18.401 133.471 18.2611C133.471 18.1259 133.497 18.007 133.55 17.9044C133.603 17.8003 133.679 17.714 133.778 17.6456C133.878 17.5757 133.997 17.5228 134.137 17.4871C134.277 17.4513 134.433 17.4335 134.606 17.4335H135.107ZM136.574 16.8366V18.9629H136.142V16.4403H136.562L136.574 16.8366ZM137.362 16.4263L137.359 16.8273C137.324 16.8195 137.289 16.8149 137.257 16.8133C137.226 16.8102 137.19 16.8086 137.15 16.8086C137.05 16.8086 136.962 16.8242 136.886 16.8553C136.81 16.8864 136.745 16.9299 136.693 16.9858C136.64 17.0418 136.598 17.1086 136.567 17.1863C136.537 17.2625 136.518 17.3464 136.508 17.4381L136.387 17.5081C136.387 17.3558 136.402 17.2128 136.431 17.0791C136.463 16.9454 136.51 16.8273 136.574 16.7247C136.637 16.6206 136.718 16.5398 136.816 16.4822C136.916 16.4232 137.034 16.3937 137.17 16.3937C137.202 16.3937 137.237 16.3975 137.278 16.4053C137.318 16.4115 137.346 16.4185 137.362 16.4263ZM138.511 18.7018L139.213 16.4403H139.674L138.663 19.3522C138.639 19.4144 138.608 19.4812 138.569 19.5527C138.532 19.6258 138.484 19.695 138.425 19.7602C138.366 19.8255 138.294 19.8784 138.21 19.9188C138.128 19.9607 138.029 19.9817 137.914 19.9817C137.88 19.9817 137.836 19.9771 137.784 19.9677C137.731 19.9584 137.694 19.9506 137.672 19.9444L137.669 19.5947C137.682 19.5963 137.701 19.5978 137.728 19.5994C137.756 19.6025 137.775 19.604 137.786 19.604C137.884 19.604 137.967 19.5908 138.035 19.5644C138.104 19.5395 138.161 19.4968 138.208 19.4362C138.256 19.3771 138.297 19.2955 138.332 19.1914L138.511 18.7018ZM137.996 16.4403L138.651 18.3987L138.763 18.8533L138.453 19.0119L137.525 16.4403H137.996Z" fill="black"/>
<path d="M192.313 52.8115V56.2061H191.863V52.8115H192.313ZM193.735 54.3386V54.7069H192.215V54.3386H193.735ZM193.966 52.8115V53.1799H192.215V52.8115H193.966ZM195.432 56.2527C195.257 56.2527 195.097 56.2232 194.954 56.1641C194.813 56.1035 194.691 56.0188 194.588 55.91C194.487 55.8012 194.409 55.6722 194.355 55.5229C194.301 55.3737 194.273 55.2105 194.273 55.0333V54.9354C194.273 54.7303 194.304 54.5476 194.364 54.3875C194.425 54.2259 194.507 54.0891 194.612 53.9772C194.716 53.8653 194.834 53.7806 194.966 53.7231C195.098 53.6656 195.235 53.6368 195.376 53.6368C195.557 53.6368 195.712 53.6679 195.843 53.7301C195.975 53.7922 196.083 53.8793 196.167 53.9912C196.251 54.1015 196.313 54.2321 196.353 54.3829C196.394 54.5321 196.414 54.6953 196.414 54.8725V55.066H194.53V54.7139H195.982V54.6813C195.976 54.5694 195.953 54.4606 195.912 54.3549C195.874 54.2492 195.811 54.1622 195.726 54.0938C195.64 54.0254 195.524 53.9912 195.376 53.9912C195.278 53.9912 195.188 54.0122 195.106 54.0541C195.023 54.0946 194.953 54.1552 194.894 54.236C194.835 54.3168 194.789 54.4155 194.756 54.5321C194.723 54.6487 194.707 54.7831 194.707 54.9354V55.0333C194.707 55.153 194.723 55.2657 194.756 55.3714C194.79 55.4755 194.839 55.5672 194.903 55.6465C194.968 55.7258 195.047 55.788 195.138 55.833C195.232 55.8781 195.337 55.9006 195.456 55.9006C195.608 55.9006 195.737 55.8696 195.843 55.8074C195.948 55.7452 196.041 55.6621 196.12 55.5579L196.381 55.7654C196.327 55.8478 196.258 55.9263 196.174 56.0009C196.09 56.0755 195.986 56.1361 195.864 56.1827C195.742 56.2294 195.598 56.2527 195.432 56.2527ZM196.915 52.625H197.349V55.7165L197.311 56.2061H196.915V52.625ZM199.053 54.9238V54.9727C199.053 55.1561 199.031 55.3263 198.988 55.4833C198.944 55.6387 198.88 55.774 198.796 55.889C198.713 56.004 198.61 56.0934 198.489 56.1571C198.367 56.2208 198.228 56.2527 198.071 56.2527C197.911 56.2527 197.771 56.2255 197.649 56.1711C197.53 56.1151 197.429 56.0351 197.346 55.9309C197.264 55.8268 197.198 55.7009 197.148 55.5533C197.1 55.4056 197.067 55.2393 197.048 55.0543V54.8398C197.067 54.6533 197.1 54.4862 197.148 54.3386C197.198 54.1909 197.264 54.065 197.346 53.9609C197.429 53.8552 197.53 53.7751 197.649 53.7207C197.769 53.6648 197.908 53.6368 198.067 53.6368C198.225 53.6368 198.366 53.6679 198.489 53.7301C198.611 53.7907 198.714 53.8777 198.796 53.9912C198.88 54.1047 198.944 54.2407 198.988 54.3992C199.031 54.5562 199.053 54.731 199.053 54.9238ZM198.619 54.9727V54.9238C198.619 54.7979 198.608 54.6797 198.584 54.5694C198.561 54.4575 198.524 54.3596 198.472 54.2756C198.421 54.1901 198.353 54.1233 198.27 54.0751C198.186 54.0254 198.082 54.0005 197.959 54.0005C197.851 54.0005 197.756 54.0192 197.675 54.0565C197.596 54.0938 197.528 54.1443 197.472 54.208C197.416 54.2702 197.37 54.3417 197.335 54.4225C197.3 54.5018 197.275 54.5842 197.258 54.6696V55.2315C197.283 55.3403 197.323 55.4452 197.379 55.5463C197.436 55.6457 197.513 55.7273 197.607 55.7911C197.704 55.8548 197.823 55.8866 197.964 55.8866C198.081 55.8866 198.18 55.8633 198.263 55.8167C198.346 55.7685 198.414 55.7025 198.465 55.6185C198.518 55.5346 198.557 55.4375 198.582 55.3271C198.607 55.2167 198.619 55.0986 198.619 54.9727ZM200.03 54.0798V56.2061H199.598V53.6834H200.018L200.03 54.0798ZM200.818 53.6695L200.815 54.0705C200.78 54.0627 200.746 54.058 200.713 54.0565C200.682 54.0534 200.646 54.0518 200.606 54.0518C200.506 54.0518 200.418 54.0674 200.342 54.0984C200.266 54.1295 200.202 54.173 200.149 54.229C200.096 54.285 200.054 54.3518 200.023 54.4295C199.993 54.5057 199.974 54.5896 199.964 54.6813L199.843 54.7512C199.843 54.5989 199.858 54.4559 199.888 54.3223C199.919 54.1886 199.966 54.0705 200.03 53.9679C200.093 53.8637 200.174 53.7829 200.272 53.7254C200.372 53.6663 200.49 53.6368 200.627 53.6368C200.658 53.6368 200.693 53.6407 200.734 53.6485C200.774 53.6547 200.802 53.6617 200.818 53.6695ZM202.76 55.6232V53.6834H203.194V56.2061H202.781L202.76 55.6232ZM202.841 55.0916L203.021 55.087C203.021 55.2548 203.003 55.4103 202.967 55.5533C202.933 55.6947 202.877 55.8175 202.8 55.9216C202.722 56.0258 202.62 56.1074 202.494 56.1664C202.368 56.2239 202.215 56.2527 202.035 56.2527C201.912 56.2527 201.799 56.2348 201.697 56.1991C201.596 56.1633 201.509 56.1081 201.436 56.0335C201.363 55.9589 201.306 55.8618 201.265 55.7421C201.227 55.6224 201.207 55.4786 201.207 55.3108V53.6834H201.638V55.3154C201.638 55.4289 201.651 55.5229 201.676 55.5976C201.702 55.6706 201.737 55.7289 201.781 55.7724C201.826 55.8144 201.875 55.8439 201.93 55.861C201.986 55.8781 202.043 55.8866 202.102 55.8866C202.286 55.8866 202.431 55.8517 202.538 55.7817C202.646 55.7102 202.723 55.6146 202.769 55.495C202.817 55.3737 202.841 55.2393 202.841 55.0916ZM205.338 55.7747V54.4761C205.338 54.3767 205.318 54.2904 205.278 54.2173C205.239 54.1427 205.18 54.0852 205.101 54.0448C205.021 54.0044 204.923 53.9842 204.807 53.9842C204.698 53.9842 204.602 54.0029 204.52 54.0402C204.439 54.0775 204.376 54.1264 204.329 54.187C204.284 54.2477 204.261 54.3129 204.261 54.3829H203.83C203.83 54.2927 203.853 54.2034 203.9 54.1148C203.947 54.0262 204.013 53.9461 204.1 53.8746C204.189 53.8016 204.295 53.7441 204.418 53.7021C204.542 53.6586 204.68 53.6368 204.833 53.6368C205.016 53.6368 205.178 53.6679 205.317 53.7301C205.459 53.7922 205.569 53.8863 205.649 54.0122C205.729 54.1365 205.77 54.2927 205.77 54.4808V55.6558C205.77 55.7398 205.777 55.8291 205.791 55.924C205.806 56.0188 205.829 56.1004 205.858 56.1688V56.2061H205.408C205.387 56.1563 205.37 56.0903 205.357 56.0079C205.345 55.924 205.338 55.8462 205.338 55.7747ZM205.413 54.6766L205.418 54.9797H204.982C204.859 54.9797 204.749 54.9898 204.653 55.01C204.557 55.0287 204.476 55.0574 204.411 55.0963C204.345 55.1351 204.296 55.1841 204.261 55.2432C204.227 55.3007 204.21 55.3683 204.21 55.446C204.21 55.5253 204.228 55.5976 204.264 55.6628C204.299 55.7281 204.353 55.7802 204.425 55.819C204.498 55.8563 204.587 55.875 204.693 55.875C204.825 55.875 204.941 55.847 205.042 55.7911C205.143 55.7351 205.223 55.6667 205.282 55.5859C205.343 55.5051 205.376 55.4266 205.38 55.3504L205.565 55.5579C205.554 55.6232 205.524 55.6955 205.476 55.7747C205.428 55.854 205.363 55.9302 205.282 56.0032C205.203 56.0747 205.108 56.1346 204.998 56.1827C204.889 56.2294 204.766 56.2527 204.63 56.2527C204.459 56.2527 204.309 56.2193 204.18 56.1524C204.052 56.0856 203.953 55.9962 203.881 55.8843C203.811 55.7709 203.776 55.6442 203.776 55.5043C203.776 55.3691 203.803 55.2502 203.856 55.1476C203.908 55.0434 203.985 54.9572 204.084 54.8888C204.184 54.8189 204.303 54.766 204.443 54.7303C204.583 54.6945 204.739 54.6766 204.912 54.6766H205.413ZM206.88 54.0798V56.2061H206.448V53.6834H206.868L206.88 54.0798ZM207.668 53.6695L207.665 54.0705C207.629 54.0627 207.595 54.058 207.563 54.0565C207.532 54.0534 207.496 54.0518 207.455 54.0518C207.356 54.0518 207.268 54.0674 207.192 54.0984C207.116 54.1295 207.051 54.173 206.998 54.229C206.946 54.285 206.904 54.3518 206.873 54.4295C206.843 54.5057 206.824 54.5896 206.814 54.6813L206.693 54.7512C206.693 54.5989 206.708 54.4559 206.737 54.3223C206.768 54.1886 206.816 54.0705 206.88 53.9679C206.943 53.8637 207.024 53.7829 207.122 53.7254C207.221 53.6663 207.34 53.6368 207.476 53.6368C207.507 53.6368 207.543 53.6407 207.584 53.6485C207.624 53.6547 207.652 53.6617 207.668 53.6695ZM208.817 55.9449L209.519 53.6834H209.98L208.968 56.5954C208.945 56.6576 208.914 56.7244 208.875 56.7959C208.838 56.869 208.79 56.9381 208.731 57.0034C208.672 57.0687 208.6 57.1215 208.516 57.1619C208.434 57.2039 208.335 57.2249 208.22 57.2249C208.186 57.2249 208.142 57.2202 208.09 57.2109C208.037 57.2016 207.999 57.1938 207.978 57.1876L207.975 56.8379C207.988 56.8394 208.007 56.841 208.034 56.8425C208.062 56.8456 208.081 56.8472 208.092 56.8472C208.19 56.8472 208.273 56.834 208.341 56.8076C208.41 56.7827 208.467 56.74 208.514 56.6793C208.562 56.6203 208.603 56.5387 208.637 56.4345L208.817 55.9449ZM208.302 53.6834L208.957 55.6418L209.069 56.0965L208.759 56.255L207.831 53.6834H208.302Z" fill="black"/>
<path d="M206.325 117.271H206.761L207.873 120.038L208.983 117.271H209.421L208.041 120.666H207.701L206.325 117.271ZM206.183 117.271H206.568L206.631 119.341V120.666H206.183V117.271ZM209.177 117.271H209.561V120.666H209.114V119.341L209.177 117.271ZM211.774 120.234V118.936C211.774 118.836 211.754 118.75 211.713 118.677C211.674 118.602 211.615 118.545 211.536 118.504C211.457 118.464 211.359 118.444 211.242 118.444C211.133 118.444 211.038 118.462 210.956 118.5C210.875 118.537 210.811 118.586 210.764 118.647C210.719 118.707 210.697 118.772 210.697 118.842H210.265C210.265 118.752 210.289 118.663 210.335 118.574C210.382 118.486 210.449 118.406 210.536 118.334C210.624 118.261 210.73 118.204 210.853 118.162C210.977 118.118 211.116 118.096 211.268 118.096C211.451 118.096 211.613 118.127 211.753 118.19C211.894 118.252 212.005 118.346 212.084 118.472C212.165 118.596 212.205 118.752 212.205 118.94V120.115C212.205 120.199 212.212 120.289 212.226 120.383C212.242 120.478 212.264 120.56 212.294 120.628V120.666H211.844C211.822 120.616 211.805 120.55 211.793 120.467C211.78 120.383 211.774 120.306 211.774 120.234ZM211.848 119.136L211.853 119.439H211.417C211.294 119.439 211.185 119.449 211.088 119.47C210.992 119.488 210.911 119.517 210.846 119.556C210.781 119.595 210.731 119.644 210.697 119.703C210.663 119.76 210.645 119.828 210.645 119.905C210.645 119.985 210.663 120.057 210.699 120.122C210.735 120.188 210.788 120.24 210.86 120.279C210.933 120.316 211.022 120.334 211.128 120.334C211.26 120.334 211.377 120.306 211.478 120.251C211.579 120.195 211.659 120.126 211.718 120.045C211.779 119.965 211.811 119.886 211.816 119.81L212 120.017C211.989 120.083 211.96 120.155 211.911 120.234C211.863 120.313 211.799 120.39 211.718 120.463C211.639 120.534 211.544 120.594 211.433 120.642C211.325 120.689 211.202 120.712 211.065 120.712C210.894 120.712 210.744 120.679 210.615 120.612C210.488 120.545 210.388 120.456 210.317 120.344C210.247 120.23 210.212 120.104 210.212 119.964C210.212 119.829 210.238 119.71 210.291 119.607C210.344 119.503 210.42 119.417 210.52 119.348C210.619 119.278 210.739 119.225 210.879 119.19C211.018 119.154 211.175 119.136 211.347 119.136H211.848ZM213.315 118.539V120.666H212.884V118.143H213.303L213.315 118.539ZM214.103 118.129L214.101 118.53C214.065 118.522 214.031 118.518 213.998 118.516C213.967 118.513 213.931 118.511 213.891 118.511C213.791 118.511 213.704 118.527 213.627 118.558C213.551 118.589 213.487 118.633 213.434 118.688C213.381 118.744 213.339 118.811 213.308 118.889C213.278 118.965 213.259 119.049 213.25 119.141L213.128 119.211C213.128 119.058 213.143 118.915 213.173 118.782C213.204 118.648 213.251 118.53 213.315 118.427C213.379 118.323 213.459 118.242 213.557 118.185C213.657 118.126 213.775 118.096 213.912 118.096C213.943 118.096 213.979 118.1 214.019 118.108C214.059 118.114 214.087 118.121 214.103 118.129ZM215.465 120.358C215.567 120.358 215.662 120.337 215.749 120.295C215.836 120.253 215.907 120.195 215.963 120.122C216.019 120.048 216.051 119.963 216.059 119.868H216.469C216.462 120.017 216.411 120.156 216.318 120.286C216.226 120.413 216.106 120.516 215.956 120.596C215.807 120.673 215.643 120.712 215.465 120.712C215.275 120.712 215.109 120.679 214.968 120.612C214.828 120.545 214.711 120.453 214.618 120.337C214.526 120.22 214.457 120.087 214.411 119.936C214.366 119.783 214.343 119.623 214.343 119.453V119.355C214.343 119.186 214.366 119.026 214.411 118.875C214.457 118.723 214.526 118.588 214.618 118.472C214.711 118.355 214.828 118.263 214.968 118.197C215.109 118.13 215.275 118.096 215.465 118.096C215.662 118.096 215.834 118.137 215.982 118.218C216.13 118.297 216.246 118.406 216.329 118.544C216.415 118.681 216.462 118.836 216.469 119.01H216.059C216.051 118.906 216.022 118.812 215.97 118.728C215.921 118.644 215.852 118.577 215.765 118.528C215.68 118.476 215.58 118.451 215.465 118.451C215.332 118.451 215.221 118.477 215.131 118.53C215.043 118.581 214.972 118.651 214.919 118.74C214.868 118.827 214.83 118.924 214.807 119.031C214.785 119.137 214.774 119.245 214.774 119.355V119.453C214.774 119.564 214.785 119.672 214.807 119.78C214.829 119.887 214.865 119.984 214.917 120.071C214.969 120.158 215.04 120.228 215.129 120.281C215.219 120.332 215.331 120.358 215.465 120.358ZM217.386 117.084V120.666H216.954V117.084H217.386ZM217.283 119.309L217.104 119.302C217.105 119.129 217.131 118.97 217.18 118.824C217.23 118.676 217.3 118.548 217.39 118.439C217.48 118.33 217.588 118.246 217.712 118.187C217.838 118.127 217.977 118.096 218.129 118.096C218.254 118.096 218.366 118.113 218.465 118.148C218.565 118.18 218.649 118.233 218.719 118.306C218.791 118.379 218.845 118.474 218.882 118.591C218.92 118.706 218.938 118.846 218.938 119.013V120.666H218.505V119.008C218.505 118.876 218.485 118.77 218.446 118.691C218.408 118.61 218.351 118.552 218.276 118.516C218.202 118.479 218.11 118.46 218.001 118.46C217.894 118.46 217.796 118.483 217.707 118.528C217.62 118.573 217.545 118.635 217.481 118.714C217.419 118.793 217.37 118.884 217.334 118.987C217.3 119.088 217.283 119.195 217.283 119.309Z" fill="black"/>
<g clip-path="url(#clip1_131_8798)">
<rect x="128.438" y="95.6118" width="5.72973" height="4.77477" rx="1.90991" fill="white" fill-opacity="0.4"/>
<path d="M130.137 97.1986V100.612H129.706V97.7372L128.836 98.0542V97.6649L130.07 97.1986H130.137ZM133.536 98.6441V99.1617C133.536 99.4399 133.511 99.6746 133.462 99.8658C133.412 100.057 133.341 100.211 133.247 100.327C133.154 100.444 133.041 100.529 132.909 100.582C132.779 100.633 132.631 100.658 132.466 100.658C132.336 100.658 132.215 100.642 132.105 100.609C131.994 100.577 131.895 100.525 131.806 100.453C131.719 100.38 131.645 100.285 131.583 100.169C131.52 100.052 131.473 99.9108 131.44 99.7445C131.408 99.5782 131.391 99.3839 131.391 99.1617V98.6441C131.391 98.3659 131.416 98.1327 131.466 97.9447C131.517 97.7566 131.59 97.6058 131.683 97.4924C131.776 97.3773 131.888 97.295 132.019 97.2452C132.151 97.1955 132.298 97.1706 132.462 97.1706C132.594 97.1706 132.715 97.1869 132.825 97.2196C132.937 97.2507 133.037 97.3012 133.124 97.3711C133.211 97.4395 133.285 97.5312 133.345 97.6462C133.407 97.7597 133.455 97.8988 133.487 98.0636C133.52 98.2283 133.536 98.4218 133.536 98.6441ZM133.103 99.2316V98.5718C133.103 98.4195 133.093 98.2858 133.075 98.1708C133.058 98.0542 133.032 97.9548 132.998 97.8724C132.964 97.79 132.92 97.7232 132.867 97.6719C132.816 97.6206 132.756 97.5833 132.688 97.56C132.621 97.5351 132.545 97.5227 132.462 97.5227C132.359 97.5227 132.268 97.5421 132.189 97.581C132.11 97.6183 132.043 97.6781 131.988 97.7605C131.935 97.8429 131.895 97.9509 131.867 98.0845C131.839 98.2182 131.825 98.3806 131.825 98.5718V99.2316C131.825 99.3839 131.834 99.5184 131.851 99.6349C131.869 99.7515 131.897 99.8525 131.932 99.938C131.968 100.022 132.012 100.091 132.063 100.146C132.114 100.2 132.173 100.24 132.24 100.267C132.308 100.292 132.384 100.304 132.466 100.304C132.572 100.304 132.664 100.284 132.744 100.243C132.823 100.203 132.889 100.14 132.942 100.055C132.996 99.9676 133.037 99.8564 133.063 99.7212C133.089 99.5844 133.103 99.4212 133.103 99.2316Z" fill="black"/>
</g>
<g clip-path="url(#clip2_131_8798)">
<rect width="5.72973" height="5.72973" transform="translate(128.438 86.062)" fill="white" fill-opacity="0.4"/>
<path d="M130.944 90.7076V91.062H128.722V90.7519L129.834 89.5139C129.971 89.3616 130.076 89.2326 130.151 89.1269C130.227 89.0197 130.28 88.9241 130.31 88.8402C130.341 88.7547 130.356 88.6676 130.356 88.579C130.356 88.4671 130.333 88.3661 130.286 88.2759C130.241 88.1842 130.174 88.1112 130.086 88.0568C129.997 88.0024 129.89 87.9752 129.764 87.9752C129.613 87.9752 129.487 88.0047 129.386 88.0638C129.287 88.1213 129.212 88.2021 129.163 88.3063C129.113 88.4104 129.088 88.5301 129.088 88.6653H128.657C128.657 88.4741 128.699 88.2993 128.783 88.1407C128.866 87.9822 128.991 87.8563 129.156 87.763C129.32 87.6682 129.523 87.6208 129.764 87.6208C129.979 87.6208 130.162 87.6589 130.314 87.7351C130.467 87.8097 130.583 87.9154 130.664 88.0521C130.746 88.1874 130.788 88.3459 130.788 88.5277C130.788 88.6272 130.77 88.7282 130.736 88.8308C130.704 88.9319 130.658 89.0329 130.599 89.1339C130.541 89.2349 130.474 89.3344 130.396 89.4323C130.32 89.5303 130.238 89.6266 130.151 89.7214L129.242 90.7076H130.944ZM133.536 89.0943V89.6119C133.536 89.8901 133.511 90.1248 133.462 90.316C133.412 90.5071 133.341 90.661 133.247 90.7776C133.154 90.8941 133.041 90.9789 132.909 91.0317C132.779 91.083 132.631 91.1086 132.466 91.1086C132.336 91.1086 132.215 91.0923 132.105 91.0597C131.994 91.027 131.895 90.975 131.806 90.9035C131.719 90.8304 131.645 90.7356 131.583 90.619C131.52 90.5025 131.473 90.361 131.44 90.1947C131.408 90.0284 131.391 89.8341 131.391 89.6119V89.0943C131.391 88.8161 131.416 88.5829 131.466 88.3949C131.517 88.2068 131.59 88.056 131.683 87.9426C131.776 87.8275 131.888 87.7452 132.019 87.6954C132.151 87.6457 132.298 87.6208 132.462 87.6208C132.594 87.6208 132.715 87.6371 132.825 87.6698C132.937 87.7009 133.037 87.7514 133.124 87.8213C133.211 87.8897 133.285 87.9814 133.345 88.0964C133.407 88.2099 133.455 88.349 133.487 88.5138C133.52 88.6785 133.536 88.872 133.536 89.0943ZM133.103 89.6818V89.022C133.103 88.8697 133.093 88.736 133.075 88.621C133.058 88.5044 133.032 88.405 132.998 88.3226C132.964 88.2402 132.92 88.1734 132.867 88.1221C132.816 88.0708 132.756 88.0335 132.688 88.0102C132.621 87.9853 132.545 87.9729 132.462 87.9729C132.359 87.9729 132.268 87.9923 132.189 88.0311C132.11 88.0685 132.043 88.1283 131.988 88.2107C131.935 88.293 131.895 88.4011 131.867 88.5347C131.839 88.6684 131.825 88.8308 131.825 89.022V89.6818C131.825 89.8341 131.834 89.9686 131.851 90.0851C131.869 90.2017 131.897 90.3027 131.932 90.3882C131.968 90.4722 132.012 90.5413 132.063 90.5957C132.114 90.6501 132.173 90.6905 132.24 90.717C132.308 90.7418 132.384 90.7543 132.466 90.7543C132.572 90.7543 132.664 90.7341 132.744 90.6936C132.823 90.6532 132.889 90.5903 132.942 90.5048C132.996 90.4178 133.037 90.3066 133.063 90.1714C133.089 90.0346 133.103 89.8714 133.103 89.6818Z" fill="black"/>
</g>
<g clip-path="url(#clip3_131_8798)">
<rect width="5.72973" height="5.72973" transform="translate(128.438 76.5127)" fill="white" fill-opacity="0.4"/>
<path d="M129.349 79.6033H129.657C129.808 79.6033 129.932 79.5784 130.03 79.5286C130.129 79.4774 130.203 79.4082 130.251 79.3211C130.301 79.2326 130.326 79.1331 130.326 79.0227C130.326 78.8922 130.304 78.7826 130.261 78.694C130.217 78.6054 130.152 78.5386 130.065 78.4935C129.978 78.4484 129.867 78.4259 129.734 78.4259C129.613 78.4259 129.505 78.45 129.412 78.4982C129.32 78.5448 129.248 78.6116 129.195 78.6987C129.144 78.7857 129.118 78.8883 129.118 79.0064H128.687C128.687 78.8339 128.73 78.6769 128.818 78.5355C128.905 78.394 129.027 78.2813 129.184 78.1974C129.342 78.1135 129.526 78.0715 129.734 78.0715C129.939 78.0715 130.118 78.108 130.272 78.1811C130.426 78.2526 130.546 78.3598 130.631 78.5028C130.717 78.6443 130.76 78.8207 130.76 79.0321C130.76 79.1175 130.739 79.2092 130.699 79.3072C130.66 79.4035 130.599 79.4937 130.515 79.5776C130.432 79.6615 130.325 79.7307 130.193 79.7851C130.061 79.8379 129.902 79.8644 129.717 79.8644H129.349V79.6033ZM129.349 79.9576V79.6988H129.717C129.934 79.6988 130.112 79.7245 130.254 79.7758C130.395 79.8271 130.506 79.8955 130.587 79.9809C130.669 80.0664 130.727 80.1605 130.76 80.263C130.794 80.3641 130.811 80.4651 130.811 80.5661C130.811 80.7247 130.784 80.8653 130.729 80.9881C130.676 81.1109 130.601 81.215 130.503 81.3005C130.407 81.386 130.293 81.4505 130.163 81.494C130.032 81.5376 129.89 81.5593 129.736 81.5593C129.588 81.5593 129.449 81.5383 129.319 81.4964C129.19 81.4544 129.076 81.3938 128.976 81.3145C128.877 81.2337 128.799 81.135 128.743 81.0184C128.687 80.9003 128.659 80.7659 128.659 80.6151H129.09C129.09 80.7332 129.116 80.8366 129.167 80.9252C129.22 81.0138 129.295 81.0829 129.391 81.1327C129.489 81.1809 129.604 81.2049 129.736 81.2049C129.868 81.2049 129.982 81.1824 130.076 81.1373C130.173 81.0907 130.247 81.0208 130.298 80.9275C130.351 80.8342 130.377 80.7169 130.377 80.5755C130.377 80.434 130.348 80.3182 130.289 80.2281C130.23 80.1364 130.146 80.0688 130.037 80.0252C129.93 79.9802 129.803 79.9576 129.657 79.9576H129.349ZM133.536 79.545V80.0625C133.536 80.3408 133.511 80.5755 133.462 80.7666C133.412 80.9578 133.341 81.1117 133.247 81.2283C133.154 81.3448 133.041 81.4295 132.909 81.4824C132.779 81.5337 132.631 81.5593 132.466 81.5593C132.336 81.5593 132.215 81.543 132.105 81.5104C131.994 81.4777 131.895 81.4257 131.806 81.3542C131.719 81.2811 131.645 81.1863 131.583 81.0697C131.52 80.9532 131.473 80.8117 131.44 80.6454C131.408 80.4791 131.391 80.2848 131.391 80.0625V79.545C131.391 79.2667 131.416 79.0336 131.466 78.8455C131.517 78.6575 131.59 78.5067 131.683 78.3932C131.776 78.2782 131.888 78.1958 132.019 78.1461C132.151 78.0964 132.298 78.0715 132.462 78.0715C132.594 78.0715 132.715 78.0878 132.825 78.1205C132.937 78.1515 133.037 78.2021 133.124 78.272C133.211 78.3404 133.285 78.4321 133.345 78.5471C133.407 78.6606 133.455 78.7997 133.487 78.9644C133.52 79.1292 133.536 79.3227 133.536 79.545ZM133.103 80.1325V79.4727C133.103 79.3204 133.093 79.1867 133.075 79.0717C133.058 78.9551 133.032 78.8556 132.998 78.7733C132.964 78.6909 132.92 78.624 132.867 78.5728C132.816 78.5215 132.756 78.4842 132.688 78.4608C132.621 78.436 132.545 78.4235 132.462 78.4235C132.359 78.4235 132.268 78.443 132.189 78.4818C132.11 78.5191 132.043 78.579 131.988 78.6614C131.935 78.7437 131.895 78.8518 131.867 78.9854C131.839 79.1191 131.825 79.2815 131.825 79.4727V80.1325C131.825 80.2848 131.834 80.4193 131.851 80.5358C131.869 80.6524 131.897 80.7534 131.932 80.8389C131.968 80.9228 132.012 80.992 132.063 81.0464C132.114 81.1008 132.173 81.1412 132.24 81.1676C132.308 81.1925 132.384 81.2049 132.466 81.2049C132.572 81.2049 132.664 81.1847 132.744 81.1443C132.823 81.1039 132.889 81.041 132.942 80.9555C132.996 80.8684 133.037 80.7573 133.063 80.6221C133.089 80.4853 133.103 80.3221 133.103 80.1325Z" fill="black"/>
</g>
<g clip-path="url(#clip4_131_8798)">
<rect width="5.72973" height="5.72973" transform="translate(128.438 66.9629)" fill="white" fill-opacity="0.4"/>
<path d="M131.014 70.8205V71.1749H128.561V70.9207L130.081 68.5683H130.433L130.056 69.2491L129.051 70.8205H131.014ZM130.54 68.5683V71.9629H130.109V68.5683H130.54ZM133.536 69.9952V70.5127C133.536 70.791 133.511 71.0257 133.462 71.2168C133.412 71.408 133.341 71.5619 133.247 71.6785C133.154 71.795 133.041 71.8797 132.909 71.9326C132.779 71.9839 132.631 72.0095 132.466 72.0095C132.336 72.0095 132.215 71.9932 132.105 71.9606C131.994 71.9279 131.895 71.8759 131.806 71.8044C131.719 71.7313 131.645 71.6365 131.583 71.5199C131.52 71.4033 131.473 71.2619 131.44 71.0956C131.408 70.9293 131.391 70.735 131.391 70.5127V69.9952C131.391 69.7169 131.416 69.4838 131.466 69.2957C131.517 69.1077 131.59 68.9569 131.683 68.8434C131.776 68.7284 131.888 68.646 132.019 68.5963C132.151 68.5466 132.298 68.5217 132.462 68.5217C132.594 68.5217 132.715 68.538 132.825 68.5707C132.937 68.6017 133.037 68.6523 133.124 68.7222C133.211 68.7906 133.285 68.8823 133.345 68.9973C133.407 69.1108 133.455 69.2499 133.487 69.4146C133.52 69.5794 133.536 69.7729 133.536 69.9952ZM133.103 70.5827V69.9229C133.103 69.7706 133.093 69.6369 133.075 69.5219C133.058 69.4053 133.032 69.3058 132.998 69.2235C132.964 69.1411 132.92 69.0742 132.867 69.023C132.816 68.9717 132.756 68.9344 132.688 68.911C132.621 68.8862 132.545 68.8737 132.462 68.8737C132.359 68.8737 132.268 68.8932 132.189 68.932C132.11 68.9693 132.043 69.0292 131.988 69.1115C131.935 69.1939 131.895 69.3019 131.867 69.4356C131.839 69.5693 131.825 69.7317 131.825 69.9229V70.5827C131.825 70.735 131.834 70.8694 131.851 70.986C131.869 71.1026 131.897 71.2036 131.932 71.2891C131.968 71.373 132.012 71.4422 132.063 71.4966C132.114 71.551 132.173 71.5914 132.24 71.6178C132.308 71.6427 132.384 71.6551 132.466 71.6551C132.572 71.6551 132.664 71.6349 132.744 71.5945C132.823 71.5541 132.889 71.4912 132.942 71.4057C132.996 71.3186 133.037 71.2075 133.063 71.0723C133.089 70.9355 133.103 70.7723 133.103 70.5827Z" fill="black"/>
</g>
<g clip-path="url(#clip5_131_8798)">
<rect width="5.72973" height="5.72973" transform="translate(128.438 57.4136)" fill="white" fill-opacity="0.4"/>
<path d="M129.265 60.7979L128.92 60.7093L129.09 59.019H130.832V59.4177H129.456L129.354 60.3409C129.416 60.3052 129.494 60.2718 129.589 60.2407C129.686 60.2096 129.796 60.194 129.92 60.194C130.077 60.194 130.218 60.2212 130.342 60.2757C130.467 60.3285 130.572 60.4047 130.659 60.5041C130.748 60.6036 130.816 60.7233 130.862 60.8632C130.909 61.0031 130.932 61.1593 130.932 61.3318C130.932 61.495 130.91 61.645 130.865 61.7818C130.821 61.9185 130.755 62.0382 130.666 62.1408C130.578 62.2418 130.466 62.3203 130.331 62.3763C130.197 62.4322 130.039 62.4602 129.857 62.4602C129.721 62.4602 129.591 62.4416 129.468 62.4042C129.347 62.3654 129.238 62.3071 129.142 62.2294C129.047 62.1501 128.969 62.0522 128.908 61.9356C128.849 61.8175 128.812 61.6792 128.797 61.5206H129.207C129.226 61.6481 129.263 61.7553 129.319 61.8424C129.375 61.9294 129.448 61.9955 129.538 62.0405C129.63 62.0841 129.736 62.1058 129.857 62.1058C129.96 62.1058 130.051 62.088 130.13 62.0522C130.209 62.0165 130.276 61.9652 130.331 61.8983C130.385 61.8315 130.426 61.7507 130.454 61.6559C130.484 61.561 130.498 61.4546 130.498 61.3365C130.498 61.2292 130.484 61.1297 130.454 61.038C130.425 60.9463 130.38 60.8663 130.321 60.7979C130.264 60.7295 130.193 60.6767 130.109 60.6394C130.025 60.6005 129.929 60.5811 129.82 60.5811C129.675 60.5811 129.566 60.6005 129.491 60.6394C129.418 60.6782 129.343 60.7311 129.265 60.7979ZM133.536 60.4458V60.9634C133.536 61.2416 133.511 61.4763 133.462 61.6675C133.412 61.8587 133.341 62.0126 133.247 62.1291C133.154 62.2457 133.041 62.3304 132.909 62.3833C132.779 62.4346 132.631 62.4602 132.466 62.4602C132.336 62.4602 132.215 62.4439 132.105 62.4112C131.994 62.3786 131.895 62.3265 131.806 62.255C131.719 62.182 131.645 62.0872 131.583 61.9706C131.52 61.854 131.473 61.7126 131.44 61.5463C131.408 61.38 131.391 61.1857 131.391 60.9634V60.4458C131.391 60.1676 131.416 59.9345 131.466 59.7464C131.517 59.5583 131.59 59.4076 131.683 59.2941C131.776 59.1791 131.888 59.0967 132.019 59.047C132.151 58.9972 132.298 58.9724 132.462 58.9724C132.594 58.9724 132.715 58.9887 132.825 59.0213C132.937 59.0524 133.037 59.1029 133.124 59.1729C133.211 59.2413 133.285 59.333 133.345 59.448C133.407 59.5615 133.455 59.7006 133.487 59.8653C133.52 60.0301 133.536 60.2236 133.536 60.4458ZM133.103 61.0334V60.3736C133.103 60.2212 133.093 60.0876 133.075 59.9726C133.058 59.856 133.032 59.7565 132.998 59.6741C132.964 59.5918 132.92 59.5249 132.867 59.4736C132.816 59.4223 132.756 59.385 132.688 59.3617C132.621 59.3369 132.545 59.3244 132.462 59.3244C132.359 59.3244 132.268 59.3439 132.189 59.3827C132.11 59.42 132.043 59.4799 131.988 59.5622C131.935 59.6446 131.895 59.7526 131.867 59.8863C131.839 60.02 131.825 60.1824 131.825 60.3736V61.0334C131.825 61.1857 131.834 61.3201 131.851 61.4367C131.869 61.5533 131.897 61.6543 131.932 61.7398C131.968 61.8237 132.012 61.8929 132.063 61.9473C132.114 62.0017 132.173 62.0421 132.24 62.0685C132.308 62.0934 132.384 62.1058 132.466 62.1058C132.572 62.1058 132.664 62.0856 132.744 62.0452C132.823 62.0048 132.889 61.9418 132.942 61.8564C132.996 61.7693 133.037 61.6582 133.063 61.523C133.089 61.3862 133.103 61.223 133.103 61.0334Z" fill="black"/>
</g>
<g clip-path="url(#clip6_131_8798)">
<rect width="5.72973" height="5.72973" transform="translate(128.438 47.8638)" fill="white" fill-opacity="0.4"/>
<path d="M130.375 49.4645H130.412V49.8306H130.375C130.146 49.8306 129.955 49.8679 129.801 49.9425C129.648 50.0155 129.526 50.1142 129.435 50.2386C129.345 50.3614 129.28 50.4997 129.24 50.6536C129.201 50.8074 129.181 50.9637 129.181 51.1222V51.6211C129.181 51.7719 129.199 51.9056 129.235 52.0221C129.271 52.1371 129.32 52.2343 129.382 52.3136C129.444 52.3928 129.514 52.4527 129.592 52.4931C129.671 52.5335 129.753 52.5537 129.839 52.5537C129.938 52.5537 130.027 52.535 130.104 52.4977C130.182 52.4589 130.247 52.4053 130.3 52.3369C130.355 52.2669 130.396 52.1845 130.424 52.0897C130.452 51.9949 130.466 51.8908 130.466 51.7773C130.466 51.6763 130.453 51.5791 130.429 51.4859C130.404 51.3911 130.366 51.3071 130.314 51.2341C130.263 51.1595 130.199 51.1012 130.121 51.0592C130.045 51.0157 129.954 50.994 129.848 50.994C129.728 50.994 129.616 51.0235 129.512 51.0826C129.41 51.1401 129.325 51.2162 129.258 51.311C129.193 51.4043 129.156 51.5061 129.146 51.6165L128.918 51.6141C128.94 51.44 128.98 51.2916 129.039 51.1688C129.1 51.0445 129.174 50.9434 129.263 50.8657C129.353 50.7865 129.453 50.729 129.564 50.6932C129.675 50.6559 129.794 50.6373 129.918 50.6373C130.087 50.6373 130.233 50.6691 130.356 50.7328C130.479 50.7966 130.58 50.8821 130.659 50.9893C130.739 51.095 130.797 51.2147 130.834 51.3483C130.873 51.4805 130.892 51.6165 130.892 51.7563C130.892 51.9164 130.87 52.0664 130.825 52.2063C130.78 52.3462 130.712 52.469 130.622 52.5747C130.533 52.6804 130.424 52.7627 130.293 52.8218C130.163 52.8809 130.011 52.9104 129.839 52.9104C129.655 52.9104 129.495 52.8731 129.358 52.7985C129.222 52.7223 129.108 52.6213 129.018 52.4954C128.928 52.3695 128.86 52.2296 128.815 52.0757C128.77 51.9219 128.748 51.7657 128.748 51.6071V51.4043C128.748 51.1649 128.772 50.9302 128.82 50.7002C128.868 50.4702 128.951 50.2619 129.069 50.0754C129.189 49.8889 129.355 49.7404 129.566 49.6301C129.777 49.5197 130.047 49.4645 130.375 49.4645ZM133.536 50.896V51.4136C133.536 51.6918 133.511 51.9265 133.462 52.1177C133.412 52.3089 133.341 52.4628 133.247 52.5793C133.154 52.6959 133.041 52.7806 132.909 52.8335C132.779 52.8848 132.631 52.9104 132.466 52.9104C132.336 52.9104 132.215 52.8941 132.105 52.8614C131.994 52.8288 131.895 52.7767 131.806 52.7052C131.719 52.6322 131.645 52.5374 131.583 52.4208C131.52 52.3042 131.473 52.1628 131.44 51.9965C131.408 51.8302 131.391 51.6359 131.391 51.4136V50.896C131.391 50.6178 131.416 50.3847 131.466 50.1966C131.517 50.0085 131.59 49.8578 131.683 49.7443C131.776 49.6293 131.888 49.5469 132.019 49.4972C132.151 49.4474 132.298 49.4226 132.462 49.4226C132.594 49.4226 132.715 49.4389 132.825 49.4715C132.937 49.5026 133.037 49.5531 133.124 49.6231C133.211 49.6915 133.285 49.7832 133.345 49.8982C133.407 50.0116 133.455 50.1508 133.487 50.3155C133.52 50.4803 133.536 50.6738 133.536 50.896ZM133.103 51.4836V50.8238C133.103 50.6714 133.093 50.5378 133.075 50.4228C133.058 50.3062 133.032 50.2067 132.998 50.1243C132.964 50.042 132.92 49.9751 132.867 49.9238C132.816 49.8725 132.756 49.8352 132.688 49.8119C132.621 49.7871 132.545 49.7746 132.462 49.7746C132.359 49.7746 132.268 49.794 132.189 49.8329C132.11 49.8702 132.043 49.93 131.988 50.0124C131.935 50.0948 131.895 50.2028 131.867 50.3365C131.839 50.4702 131.825 50.6326 131.825 50.8238V51.4836C131.825 51.6359 131.834 51.7703 131.851 51.8869C131.869 52.0035 131.897 52.1045 131.932 52.19C131.968 52.2739 132.012 52.3431 132.063 52.3975C132.114 52.4519 132.173 52.4923 132.24 52.5187C132.308 52.5436 132.384 52.556 132.466 52.556C132.572 52.556 132.664 52.5358 132.744 52.4954C132.823 52.455 132.889 52.392 132.942 52.3066C132.996 52.2195 133.037 52.1084 133.063 51.9732C133.089 51.8364 133.103 51.6732 133.103 51.4836Z" fill="black"/>
</g>
<g clip-path="url(#clip7_131_8798)">
<rect width="5.72973" height="5.72973" transform="translate(128.438 38.3145)" fill="white" fill-opacity="0.4"/>
<path d="M130.913 39.9199V40.1624L129.508 43.3145H129.053L130.457 40.2743H128.619V39.9199H130.913ZM133.536 41.3467V41.8643C133.536 42.1425 133.511 42.3772 133.462 42.5684C133.412 42.7596 133.341 42.9134 133.247 43.03C133.154 43.1466 133.041 43.2313 132.909 43.2841C132.779 43.3354 132.631 43.3611 132.466 43.3611C132.336 43.3611 132.215 43.3448 132.105 43.3121C131.994 43.2795 131.895 43.2274 131.806 43.1559C131.719 43.0829 131.645 42.9881 131.583 42.8715C131.52 42.7549 131.473 42.6135 131.44 42.4472C131.408 42.2809 131.391 42.0866 131.391 41.8643V41.3467C131.391 41.0685 131.416 40.8354 131.466 40.6473C131.517 40.4592 131.59 40.3085 131.683 40.195C131.776 40.08 131.888 39.9976 132.019 39.9479C132.151 39.8981 132.298 39.8733 132.462 39.8733C132.594 39.8733 132.715 39.8896 132.825 39.9222C132.937 39.9533 133.037 40.0038 133.124 40.0738C133.211 40.1421 133.285 40.2339 133.345 40.3489C133.407 40.4623 133.455 40.6014 133.487 40.7662C133.52 40.931 133.536 41.1245 133.536 41.3467ZM133.103 41.9342V41.2744C133.103 41.1221 133.093 40.9885 133.075 40.8734C133.058 40.7569 133.032 40.6574 132.998 40.575C132.964 40.4926 132.92 40.4258 132.867 40.3745C132.816 40.3232 132.756 40.2859 132.688 40.2626C132.621 40.2377 132.545 40.2253 132.462 40.2253C132.359 40.2253 132.268 40.2447 132.189 40.2836C132.11 40.3209 132.043 40.3807 131.988 40.4631C131.935 40.5455 131.895 40.6535 131.867 40.7872C131.839 40.9208 131.825 41.0833 131.825 41.2744V41.9342C131.825 42.0866 131.834 42.221 131.851 42.3376C131.869 42.4542 131.897 42.5552 131.932 42.6407C131.968 42.7246 132.012 42.7938 132.063 42.8482C132.114 42.9026 132.173 42.943 132.24 42.9694C132.308 42.9943 132.384 43.0067 132.466 43.0067C132.572 43.0067 132.664 42.9865 132.744 42.9461C132.823 42.9057 132.889 42.8427 132.942 42.7572C132.996 42.6702 133.037 42.5591 133.063 42.4238C133.089 42.2871 133.103 42.1239 133.103 41.9342Z" fill="black"/>
</g>
<g clip-path="url(#clip8_131_8798)">
<rect width="5.72973" height="5.72973" transform="translate(128.438 28.7646)" fill="white" fill-opacity="0.4"/>
<path d="M130.86 32.8461C130.86 33.0528 130.812 33.2284 130.715 33.373C130.62 33.516 130.491 33.6248 130.328 33.6994C130.167 33.774 129.984 33.8113 129.78 33.8113C129.577 33.8113 129.393 33.774 129.23 33.6994C129.067 33.6248 128.938 33.516 128.843 33.373C128.748 33.2284 128.701 33.0528 128.701 32.8461C128.701 32.7108 128.727 32.5873 128.778 32.4754C128.831 32.3619 128.905 32.2632 128.999 32.1793C129.096 32.0953 129.209 32.0308 129.34 31.9858C129.472 31.9391 129.617 31.9158 129.776 31.9158C129.984 31.9158 130.17 31.9562 130.333 32.0371C130.496 32.1163 130.624 32.2259 130.718 32.3658C130.812 32.5057 130.86 32.6658 130.86 32.8461ZM130.426 32.8367C130.426 32.7108 130.399 32.5997 130.345 32.5033C130.29 32.4054 130.214 32.3293 130.116 32.2749C130.018 32.2205 129.905 32.1933 129.776 32.1933C129.644 32.1933 129.529 32.2205 129.433 32.2749C129.338 32.3293 129.264 32.4054 129.212 32.5033C129.159 32.5997 129.132 32.7108 129.132 32.8367C129.132 32.9673 129.158 33.0792 129.209 33.1725C129.262 33.2642 129.337 33.3349 129.433 33.3846C129.531 33.4328 129.647 33.4569 129.78 33.4569C129.914 33.4569 130.029 33.4328 130.125 33.3846C130.222 33.3349 130.296 33.2642 130.347 33.1725C130.4 33.0792 130.426 32.9673 130.426 32.8367ZM130.781 31.2537C130.781 31.4184 130.737 31.5669 130.65 31.699C130.563 31.8311 130.444 31.9353 130.293 32.0114C130.143 32.0876 129.972 32.1257 129.78 32.1257C129.586 32.1257 129.413 32.0876 129.26 32.0114C129.11 31.9353 128.992 31.8311 128.906 31.699C128.821 31.5669 128.778 31.4184 128.778 31.2537C128.778 31.0563 128.821 30.8884 128.906 30.7501C128.993 30.6118 129.112 30.5061 129.263 30.433C129.414 30.36 129.585 30.3235 129.778 30.3235C129.972 30.3235 130.145 30.36 130.296 30.433C130.446 30.5061 130.565 30.6118 130.65 30.7501C130.737 30.8884 130.781 31.0563 130.781 31.2537ZM130.349 31.2607C130.349 31.1472 130.325 31.047 130.277 30.9599C130.229 30.8729 130.162 30.8045 130.076 30.7548C129.991 30.7035 129.892 30.6778 129.778 30.6778C129.665 30.6778 129.565 30.7019 129.48 30.7501C129.396 30.7967 129.33 30.8636 129.281 30.9506C129.235 31.0376 129.212 31.141 129.212 31.2607C129.212 31.3773 129.235 31.4791 129.281 31.5661C129.33 31.6531 129.396 31.7208 129.482 31.7689C129.567 31.8171 129.667 31.8412 129.78 31.8412C129.894 31.8412 129.993 31.8171 130.076 31.7689C130.162 31.7208 130.229 31.6531 130.277 31.5661C130.325 31.4791 130.349 31.3773 130.349 31.2607ZM133.536 31.7969V32.3145C133.536 32.5927 133.511 32.8274 133.462 33.0186C133.412 33.2098 133.341 33.3636 133.247 33.4802C133.154 33.5968 133.041 33.6815 132.909 33.7343C132.779 33.7856 132.631 33.8113 132.466 33.8113C132.336 33.8113 132.215 33.795 132.105 33.7623C131.994 33.7297 131.895 33.6776 131.806 33.6061C131.719 33.5331 131.645 33.4382 131.583 33.3217C131.52 33.2051 131.473 33.0637 131.44 32.8974C131.408 32.731 131.391 32.5368 131.391 32.3145V31.7969C131.391 31.5187 131.416 31.2856 131.466 31.0975C131.517 30.9094 131.59 30.7587 131.683 30.6452C131.776 30.5302 131.888 30.4478 132.019 30.3981C132.151 30.3483 132.298 30.3235 132.462 30.3235C132.594 30.3235 132.715 30.3398 132.825 30.3724C132.937 30.4035 133.037 30.454 133.124 30.524C133.211 30.5923 133.285 30.684 133.345 30.7991C133.407 30.9125 133.455 31.0516 133.487 31.2164C133.52 31.3811 133.536 31.5747 133.536 31.7969ZM133.103 32.3844V31.7246C133.103 31.5723 133.093 31.4387 133.075 31.3236C133.058 31.2071 133.032 31.1076 132.998 31.0252C132.964 30.9428 132.92 30.876 132.867 30.8247C132.816 30.7734 132.756 30.7361 132.688 30.7128C132.621 30.6879 132.545 30.6755 132.462 30.6755C132.359 30.6755 132.268 30.6949 132.189 30.7338C132.11 30.7711 132.043 30.8309 131.988 30.9133C131.935 30.9957 131.895 31.1037 131.867 31.2374C131.839 31.371 131.825 31.5335 131.825 31.7246V32.3844C131.825 32.5368 131.834 32.6712 131.851 32.7878C131.869 32.9043 131.897 33.0054 131.932 33.0909C131.968 33.1748 132.012 33.244 132.063 33.2984C132.114 33.3528 132.173 33.3932 132.24 33.4196C132.308 33.4445 132.384 33.4569 132.466 33.4569C132.572 33.4569 132.664 33.4367 132.744 33.3963C132.823 33.3559 132.889 33.2929 132.942 33.2074C132.996 33.1204 133.037 33.0093 133.063 32.874C133.089 32.7373 133.103 32.5741 133.103 32.3844Z" fill="black"/>
</g>
<g clip-path="url(#clip9_131_8798)">
<rect width="5.72973" height="5.72973" transform="translate(128.438 19.2153)" fill="white" fill-opacity="0.4"/>
<path d="M129.149 23.854H129.193C129.442 23.854 129.644 23.819 129.799 23.749C129.954 23.6791 130.074 23.5851 130.158 23.4669C130.242 23.3488 130.3 23.2159 130.331 23.0683C130.362 22.9191 130.377 22.766 130.377 22.609V22.0891C130.377 21.9352 130.359 21.7984 130.324 21.6787C130.289 21.5591 130.241 21.4588 130.179 21.378C130.118 21.2972 130.049 21.2358 129.972 21.1938C129.894 21.1518 129.811 21.1308 129.724 21.1308C129.625 21.1308 129.536 21.1511 129.456 21.1915C129.379 21.2303 129.313 21.2855 129.258 21.357C129.205 21.4285 129.165 21.5124 129.137 21.6088C129.109 21.7052 129.095 21.8101 129.095 21.9235C129.095 22.0246 129.107 22.1225 129.132 22.2173C129.157 22.3121 129.195 22.3976 129.247 22.4738C129.298 22.5499 129.362 22.6105 129.438 22.6556C129.515 22.6991 129.606 22.7209 129.71 22.7209C129.807 22.7209 129.897 22.7022 129.981 22.6649C130.066 22.6261 130.142 22.574 130.207 22.5087C130.274 22.4419 130.327 22.3665 130.366 22.2826C130.406 22.1986 130.429 22.1108 130.436 22.0191H130.641C130.641 22.1481 130.615 22.2756 130.564 22.4015C130.514 22.5258 130.444 22.6393 130.354 22.7419C130.264 22.8444 130.158 22.9268 130.037 22.989C129.916 23.0496 129.784 23.0799 129.641 23.0799C129.473 23.0799 129.327 23.0473 129.205 22.982C129.082 22.9167 128.981 22.8297 128.901 22.7209C128.824 22.6121 128.765 22.4908 128.727 22.3572C128.689 22.222 128.671 22.0852 128.671 21.9468C128.671 21.7852 128.693 21.6337 128.738 21.4922C128.783 21.3508 128.85 21.2264 128.939 21.1192C129.027 21.0104 129.137 20.9257 129.267 20.8651C129.4 20.8044 129.552 20.7741 129.724 20.7741C129.919 20.7741 130.084 20.813 130.221 20.8907C130.358 20.9684 130.469 21.0726 130.554 21.2031C130.641 21.3337 130.705 21.4806 130.746 21.6438C130.786 21.807 130.806 21.9748 130.806 22.1474V22.3036C130.806 22.4792 130.795 22.6579 130.771 22.8398C130.75 23.0201 130.707 23.1926 130.643 23.3574C130.581 23.5221 130.49 23.6698 130.37 23.8003C130.251 23.9293 130.094 24.0319 129.902 24.1081C129.71 24.1827 129.474 24.22 129.193 24.22H129.149V23.854ZM133.536 22.2476V22.7652C133.536 23.0434 133.511 23.2781 133.462 23.4693C133.412 23.6605 133.341 23.8143 133.247 23.9309C133.154 24.0475 133.041 24.1322 132.909 24.185C132.779 24.2363 132.631 24.262 132.466 24.262C132.336 24.262 132.215 24.2456 132.105 24.213C131.994 24.1804 131.895 24.1283 131.806 24.0568C131.719 23.9837 131.645 23.8889 131.583 23.7724C131.52 23.6558 131.473 23.5143 131.44 23.348C131.408 23.1817 131.391 22.9874 131.391 22.7652V22.2476C131.391 21.9694 131.416 21.7362 131.466 21.5482C131.517 21.3601 131.59 21.2093 131.683 21.0959C131.776 20.9809 131.888 20.8985 132.019 20.8487C132.151 20.799 132.298 20.7741 132.462 20.7741C132.594 20.7741 132.715 20.7905 132.825 20.8231C132.937 20.8542 133.037 20.9047 133.124 20.9746C133.211 21.043 133.285 21.1347 133.345 21.2497C133.407 21.3632 133.455 21.5023 133.487 21.6671C133.52 21.8318 133.536 22.0253 133.536 22.2476ZM133.103 22.8351V22.1753C133.103 22.023 133.093 21.8893 133.075 21.7743C133.058 21.6577 133.032 21.5583 132.998 21.4759C132.964 21.3935 132.92 21.3267 132.867 21.2754C132.816 21.2241 132.756 21.1868 132.688 21.1635C132.621 21.1386 132.545 21.1262 132.462 21.1262C132.359 21.1262 132.268 21.1456 132.189 21.1845C132.11 21.2218 132.043 21.2816 131.988 21.364C131.935 21.4464 131.895 21.5544 131.867 21.6881C131.839 21.8217 131.825 21.9842 131.825 22.1753V22.8351C131.825 22.9874 131.834 23.1219 131.851 23.2385C131.869 23.355 131.897 23.4561 131.932 23.5415C131.968 23.6255 132.012 23.6946 132.063 23.749C132.114 23.8034 132.173 23.8439 132.24 23.8703C132.308 23.8951 132.384 23.9076 132.466 23.9076C132.572 23.9076 132.664 23.8874 132.744 23.847C132.823 23.8066 132.889 23.7436 132.942 23.6581C132.996 23.5711 133.037 23.4599 133.063 23.3247C133.089 23.1879 133.103 23.0247 133.103 22.8351Z" fill="black"/>
</g>
<path d="M127.675 110.268C127.624 110.202 127.542 110.167 127.459 110.176L66.2403 117.057L84.2046 65.292H131.305C131.311 65.292 131.317 65.2917 131.323 65.2913L183.128 61.4891L186.683 115.288L147.368 135.893L127.675 110.268Z" fill="#5388D8" stroke="#5388D8" stroke-width="0.477477" stroke-linecap="round" stroke-linejoin="round"/>
<circle cx="183.115" cy="61.4721" r="0.716216" fill="#5388D8"/>
<circle cx="131.068" cy="65.2919" r="0.716216" fill="#5388D8"/>
<path d="M84.9871 65.2919C84.9871 65.6875 84.6665 66.0081 84.2709 66.0081C83.8753 66.0081 83.5547 65.6875 83.5547 65.2919C83.5547 64.8963 83.8753 64.5757 84.2709 64.5757C84.6665 64.5757 84.9871 64.8963 84.9871 65.2919Z" fill="#5388D8"/>
<circle cx="66.1303" cy="116.859" r="0.716216" fill="#5388D8"/>
<circle cx="127.247" cy="110.175" r="0.716216" fill="#5388D8"/>
<circle cx="147.302" cy="135.958" r="0.716216" fill="#5388D8"/>
<circle cx="186.451" cy="115.427" r="0.716216" fill="#5388D8"/>
<path d="M130.827 45.4766L145.39 90.8369L167.592 110.891H135.124L106.236 153.386L84.75 112.562L93.8221 73.1703L130.827 45.4766Z" fill="#F4BE37" fill-opacity="0.4" stroke="#F4BE37" stroke-width="0.477477" stroke-linecap="round" stroke-linejoin="round"/>
<circle cx="130.591" cy="45.2377" r="0.716216" fill="#F4BE37"/>
<circle cx="93.8256" cy="72.9315" r="0.716216" fill="#F4BE37"/>
<circle cx="84.7475" cy="112.562" r="0.716216" fill="#F4BE37"/>
<circle cx="106.24" cy="153.625" r="0.716216" fill="#F4BE37"/>
<circle cx="135.365" cy="111.13" r="0.716216" fill="#F4BE37"/>
<circle cx="167.357" cy="110.652" r="0.716216" fill="#F4BE37"/>
<circle cx="145.388" cy="90.5981" r="0.716216" fill="#F4BE37"/>
<rect x="79.135" y="192.181" width="3.58108" height="3.58108" rx="1.79054" fill="#F4BE37" fill-opacity="0.4" stroke="#F4BE37" stroke-width="0.238739"/>
<path d="M92.2867 194.408L93.3582 191.079H94.1332L92.6728 195.152H92.1496L92.2867 194.408ZM91.2963 191.079L92.3594 194.408L92.5049 195.152H91.9789L90.5241 191.079H91.2963ZM96.1 194.545V193.102C96.1 192.993 96.0804 192.9 96.0412 192.822C96.0021 192.744 95.9424 192.683 95.8622 192.64C95.7838 192.597 95.685 192.576 95.5656 192.576C95.4556 192.576 95.3604 192.594 95.2802 192.632C95.2 192.669 95.1376 192.719 95.0928 192.783C95.048 192.846 95.0257 192.918 95.0257 192.998H94.3542C94.3542 192.879 94.3831 192.763 94.4409 192.651C94.4988 192.539 94.5827 192.439 94.6927 192.352C94.8028 192.264 94.9343 192.195 95.0872 192.145C95.2401 192.094 95.4117 192.069 95.602 192.069C95.8295 192.069 96.031 192.107 96.2063 192.184C96.3835 192.26 96.5224 192.376 96.6232 192.531C96.7257 192.684 96.777 192.876 96.777 193.107V194.453C96.777 194.591 96.7864 194.715 96.805 194.825C96.8255 194.933 96.8544 195.027 96.8917 195.108V195.152H96.2007C96.169 195.08 96.1438 194.987 96.1252 194.875C96.1084 194.762 96.1 194.652 96.1 194.545ZM96.1979 193.311L96.2035 193.728H95.7195C95.5945 193.728 95.4845 193.74 95.3894 193.765C95.2942 193.787 95.215 193.821 95.1516 193.865C95.0881 193.91 95.0406 193.964 95.0089 194.028C94.9772 194.091 94.9613 194.163 94.9613 194.243C94.9613 194.323 94.98 194.397 95.0173 194.464C95.0546 194.529 95.1087 194.581 95.1795 194.618C95.2523 194.655 95.3399 194.674 95.4425 194.674C95.5805 194.674 95.7008 194.646 95.8034 194.59C95.9079 194.532 95.9899 194.462 96.0496 194.38C96.1093 194.296 96.141 194.217 96.1447 194.142L96.363 194.442C96.3406 194.518 96.3023 194.6 96.2483 194.688C96.1942 194.776 96.1233 194.86 96.0356 194.94C95.9498 195.018 95.8463 195.082 95.7251 195.133C95.6057 195.183 95.4677 195.208 95.311 195.208C95.1133 195.208 94.9371 195.169 94.7823 195.091C94.6274 195.011 94.5062 194.903 94.4185 194.769C94.3309 194.633 94.2871 194.479 94.2871 194.307C94.2871 194.147 94.3169 194.005 94.3766 193.882C94.4381 193.757 94.5277 193.653 94.6452 193.569C94.7645 193.485 94.91 193.421 95.0816 193.379C95.2532 193.334 95.449 193.311 95.6691 193.311H96.1979ZM98.2039 190.855V195.152H97.5268V190.855H98.2039ZM100.764 194.439V192.125H101.441V195.152H100.803L100.764 194.439ZM100.859 193.809L101.086 193.804C101.086 194.007 101.063 194.195 101.018 194.366C100.974 194.536 100.905 194.684 100.811 194.811C100.718 194.936 100.599 195.034 100.453 195.105C100.308 195.174 100.133 195.208 99.9301 195.208C99.7827 195.208 99.6475 195.187 99.5244 195.144C99.4013 195.101 99.295 195.035 99.2054 194.945C99.1178 194.856 99.0497 194.739 99.0012 194.596C98.9527 194.452 98.9285 194.28 98.9285 194.081V192.125H99.6027V194.086C99.6027 194.196 99.6158 194.289 99.6419 194.363C99.668 194.436 99.7034 194.495 99.7482 194.54C99.793 194.584 99.8452 194.616 99.9049 194.635C99.9646 194.653 100.028 194.663 100.095 194.663C100.287 194.663 100.438 194.625 100.548 194.551C100.66 194.474 100.74 194.372 100.786 194.243C100.835 194.114 100.859 193.97 100.859 193.809ZM103.466 195.208C103.243 195.208 103.04 195.172 102.859 195.099C102.68 195.025 102.527 194.921 102.4 194.789C102.275 194.656 102.179 194.5 102.112 194.321C102.045 194.142 102.012 193.949 102.012 193.742V193.63C102.012 193.394 102.046 193.179 102.115 192.987C102.184 192.795 102.28 192.631 102.403 192.495C102.526 192.356 102.672 192.251 102.84 192.178C103.008 192.106 103.189 192.069 103.385 192.069C103.602 192.069 103.791 192.106 103.953 192.178C104.115 192.251 104.25 192.354 104.356 192.486C104.464 192.617 104.544 192.772 104.597 192.953C104.651 193.134 104.678 193.334 104.678 193.552V193.84H102.339V193.356H104.012V193.303C104.008 193.182 103.984 193.068 103.939 192.962C103.896 192.855 103.83 192.77 103.741 192.704C103.651 192.639 103.532 192.606 103.382 192.606C103.271 192.606 103.171 192.631 103.083 192.679C102.997 192.726 102.925 192.794 102.868 192.883C102.81 192.973 102.765 193.081 102.733 193.208C102.704 193.333 102.689 193.474 102.689 193.63V193.742C102.689 193.875 102.706 193.998 102.742 194.112C102.779 194.224 102.833 194.321 102.904 194.405C102.975 194.489 103.061 194.555 103.161 194.604C103.262 194.651 103.377 194.674 103.506 194.674C103.668 194.674 103.812 194.641 103.939 194.576C104.066 194.511 104.176 194.418 104.269 194.299L104.625 194.643C104.559 194.738 104.474 194.83 104.37 194.917C104.266 195.003 104.138 195.073 103.987 195.127C103.838 195.181 103.664 195.208 103.466 195.208ZM107.987 193.144V193.681H106.507V193.144H107.987ZM112.621 192.774V193.44C112.621 193.759 112.589 194.031 112.525 194.257C112.464 194.481 112.374 194.663 112.257 194.803C112.139 194.943 111.998 195.045 111.834 195.11C111.672 195.176 111.49 195.208 111.289 195.208C111.128 195.208 110.979 195.188 110.841 195.147C110.705 195.106 110.582 195.041 110.472 194.954C110.362 194.866 110.268 194.753 110.189 194.615C110.113 194.475 110.053 194.308 110.01 194.114C109.969 193.92 109.949 193.696 109.949 193.44V192.774C109.949 192.453 109.98 192.183 110.044 191.963C110.107 191.741 110.198 191.561 110.315 191.423C110.433 191.283 110.573 191.181 110.735 191.118C110.899 191.055 111.082 191.023 111.283 191.023C111.445 191.023 111.595 191.043 111.731 191.084C111.869 191.124 111.992 191.186 112.1 191.272C112.21 191.358 112.303 191.47 112.38 191.608C112.458 191.744 112.518 191.909 112.559 192.103C112.6 192.295 112.621 192.519 112.621 192.774ZM111.946 193.535V192.674C111.946 192.511 111.937 192.369 111.918 192.246C111.9 192.121 111.872 192.015 111.834 191.929C111.799 191.842 111.754 191.771 111.7 191.717C111.646 191.661 111.584 191.621 111.515 191.596C111.446 191.57 111.369 191.557 111.283 191.557C111.179 191.557 111.085 191.578 111.003 191.619C110.921 191.658 110.852 191.721 110.796 191.809C110.74 191.897 110.698 192.012 110.668 192.156C110.64 192.298 110.626 192.47 110.626 192.674V193.535C110.626 193.699 110.635 193.844 110.654 193.969C110.672 194.094 110.7 194.201 110.738 194.291C110.775 194.378 110.82 194.451 110.872 194.509C110.926 194.565 110.988 194.606 111.057 194.632C111.127 194.658 111.205 194.671 111.289 194.671C111.395 194.671 111.489 194.651 111.571 194.61C111.653 194.569 111.722 194.503 111.778 194.414C111.834 194.322 111.876 194.204 111.904 194.058C111.932 193.913 111.946 193.739 111.946 193.535ZM115.063 191.065V195.152H114.389V191.865L113.39 192.204V191.647L114.982 191.065H115.063ZM117.898 193.812V193.772C117.898 193.44 117.934 193.138 118.006 192.868C118.079 192.596 118.174 192.358 118.29 192.154C118.407 191.949 118.531 191.78 118.663 191.646C118.797 191.511 118.925 191.414 119.048 191.354L119.16 191.676C119.07 191.743 118.979 191.835 118.889 191.954C118.801 192.072 118.719 192.217 118.644 192.39C118.571 192.561 118.512 192.761 118.467 192.991C118.424 193.22 118.402 193.478 118.402 193.767V193.816C118.402 194.106 118.424 194.365 118.467 194.595C118.512 194.824 118.571 195.024 118.644 195.197C118.719 195.369 118.801 195.515 118.889 195.635C118.979 195.756 119.07 195.853 119.16 195.924L119.048 196.232C118.925 196.171 118.797 196.073 118.663 195.938C118.531 195.804 118.407 195.635 118.29 195.43C118.174 195.226 118.079 194.989 118.006 194.719C117.934 194.447 117.898 194.144 117.898 193.812ZM120.144 191.571V195.152H119.579V191.571H120.144ZM121.915 192.63V193.04H120.493V192.63H121.915ZM120.904 192.012H121.466V194.455C121.466 194.533 121.476 194.593 121.498 194.635C121.521 194.675 121.553 194.702 121.594 194.716C121.634 194.73 121.682 194.737 121.736 194.737C121.775 194.737 121.812 194.735 121.848 194.73C121.884 194.726 121.912 194.721 121.934 194.716L121.936 195.145C121.89 195.159 121.835 195.172 121.773 195.183C121.713 195.194 121.643 195.199 121.563 195.199C121.434 195.199 121.32 195.176 121.221 195.131C121.121 195.085 121.044 195.009 120.988 194.905C120.932 194.801 120.904 194.663 120.904 194.49V192.012ZM123.433 193.772V193.812C123.433 194.14 123.396 194.439 123.321 194.709C123.248 194.98 123.153 195.218 123.035 195.423C122.918 195.628 122.791 195.799 122.655 195.936C122.519 196.072 122.39 196.171 122.265 196.232L122.151 195.924C122.241 195.856 122.33 195.762 122.419 195.642C122.509 195.524 122.591 195.377 122.664 195.201C122.738 195.027 122.798 194.825 122.841 194.595C122.886 194.365 122.909 194.106 122.909 193.816V193.767C122.909 193.478 122.885 193.219 122.839 192.989C122.794 192.757 122.733 192.555 122.657 192.383C122.581 192.209 122.498 192.062 122.41 191.942C122.321 191.822 122.235 191.729 122.151 191.662L122.265 191.354C122.39 191.414 122.519 191.511 122.655 191.648C122.791 191.785 122.918 191.957 123.035 192.163C123.153 192.369 123.248 192.606 123.321 192.877C123.396 193.147 123.433 193.446 123.433 193.772Z" fill="black"/>
<path d="M93.3414 202.207V207.657H92.4424V203.274L91.1107 203.725V202.983L93.2332 202.207H93.3414ZM98.8697 206.941V207.657H95.229V207.041L96.9971 205.113C97.1911 204.894 97.344 204.705 97.4559 204.546C97.5678 204.387 97.6462 204.244 97.6909 204.117C97.7382 203.987 97.7618 203.862 97.7618 203.74C97.7618 203.568 97.7295 203.418 97.6648 203.289C97.6027 203.157 97.5107 203.054 97.3888 202.979C97.2669 202.902 97.119 202.863 96.9449 202.863C96.7435 202.863 96.5743 202.907 96.4376 202.994C96.3008 203.081 96.1976 203.202 96.128 203.356C96.0583 203.507 96.0235 203.681 96.0235 203.878H95.1245C95.1245 203.562 95.1966 203.274 95.3409 203.013C95.4851 202.749 95.694 202.54 95.9676 202.386C96.2411 202.229 96.5706 202.151 96.9561 202.151C97.3192 202.151 97.6275 202.212 97.8812 202.334C98.1349 202.455 98.3276 202.628 98.4594 202.852C98.5937 203.076 98.6608 203.341 98.6608 203.647C98.6608 203.816 98.6335 203.984 98.5788 204.15C98.524 204.317 98.4457 204.484 98.3438 204.65C98.2443 204.814 98.1261 204.98 97.9894 205.146C97.8526 205.31 97.7021 205.477 97.538 205.646L96.363 206.941H98.8697ZM100.466 206.791L100.463 207.433C100.463 207.687 100.399 207.948 100.272 208.216C100.145 208.485 99.9776 208.706 99.7687 208.88L99.2875 208.601C99.3571 208.489 99.4206 208.375 99.4778 208.261C99.535 208.147 99.581 208.025 99.6158 207.895C99.6506 207.766 99.668 207.623 99.668 207.466V206.791H100.466ZM105.021 205.721V206.437H101.104L101.074 205.896L103.417 202.225H104.137L103.357 203.561L102.011 205.721H105.021ZM104.342 202.225V207.657H103.443V202.225H104.342ZM109.262 206.941V207.657H105.622V207.041L107.39 205.113C107.584 204.894 107.737 204.705 107.849 204.546C107.96 204.387 108.039 204.244 108.084 204.117C108.131 203.987 108.154 203.862 108.154 203.74C108.154 203.568 108.122 203.418 108.057 203.289C107.995 203.157 107.903 203.054 107.781 202.979C107.66 202.902 107.512 202.863 107.337 202.863C107.136 202.863 106.967 202.907 106.83 202.994C106.693 203.081 106.59 203.202 106.521 203.356C106.451 203.507 106.416 203.681 106.416 203.878H105.517C105.517 203.562 105.589 203.274 105.733 203.013C105.878 202.749 106.087 202.54 106.36 202.386C106.634 202.229 106.963 202.151 107.349 202.151C107.712 202.151 108.02 202.212 108.274 202.334C108.527 202.455 108.72 202.628 108.852 202.852C108.986 203.076 109.053 203.341 109.053 203.647C109.053 203.816 109.026 203.984 108.971 204.15C108.917 204.317 108.838 204.484 108.736 204.65C108.637 204.814 108.519 204.98 108.382 205.146C108.245 205.31 108.095 205.477 107.931 205.646L106.756 206.941H109.262ZM111.019 204.534H111.556C111.765 204.534 111.938 204.498 112.075 204.426C112.214 204.354 112.317 204.255 112.385 204.128C112.452 204.001 112.485 203.856 112.485 203.691C112.485 203.52 112.454 203.373 112.392 203.251C112.332 203.127 112.24 203.031 112.116 202.964C111.994 202.897 111.839 202.863 111.65 202.863C111.491 202.863 111.346 202.896 111.217 202.96C111.09 203.022 110.989 203.112 110.915 203.229C110.84 203.343 110.803 203.48 110.803 203.639H109.9C109.9 203.351 109.976 203.095 110.128 202.871C110.279 202.647 110.486 202.472 110.747 202.345C111.011 202.215 111.307 202.151 111.635 202.151C111.985 202.151 112.291 202.209 112.552 202.326C112.816 202.441 113.021 202.612 113.168 202.841C113.315 203.07 113.388 203.353 113.388 203.691C113.388 203.846 113.352 204.002 113.28 204.161C113.208 204.321 113.101 204.466 112.959 204.598C112.817 204.727 112.641 204.833 112.429 204.915C112.218 204.995 111.973 205.034 111.694 205.034H111.019V204.534ZM111.019 205.236V204.743H111.694C112.013 204.743 112.284 204.781 112.508 204.855C112.734 204.93 112.918 205.033 113.06 205.165C113.202 205.294 113.305 205.442 113.369 205.609C113.437 205.775 113.47 205.952 113.47 206.139C113.47 206.392 113.424 206.618 113.332 206.817C113.243 207.014 113.114 207.181 112.948 207.317C112.781 207.454 112.586 207.557 112.362 207.627C112.141 207.697 111.9 207.731 111.639 207.731C111.405 207.731 111.181 207.699 110.967 207.634C110.753 207.57 110.562 207.474 110.393 207.347C110.223 207.218 110.089 207.057 109.99 206.866C109.893 206.672 109.844 206.448 109.844 206.194H110.743C110.743 206.356 110.781 206.499 110.855 206.623C110.932 206.745 111.039 206.841 111.176 206.911C111.315 206.98 111.474 207.015 111.653 207.015C111.842 207.015 112.005 206.982 112.142 206.914C112.279 206.847 112.383 206.748 112.455 206.616C112.53 206.484 112.567 206.325 112.567 206.139C112.567 205.927 112.526 205.756 112.444 205.624C112.362 205.492 112.245 205.395 112.094 205.333C111.942 205.268 111.763 205.236 111.556 205.236H111.019Z" fill="black" fill-opacity="0.87"/>
<rect x="143.119" y="192.181" width="3.58108" height="3.58108" rx="1.79054" fill="#5388D8" stroke="#5388D8" stroke-width="0.238739"/>
<path d="M156.271 194.408L157.343 191.079H158.118L156.657 195.152H156.134L156.271 194.408ZM155.281 191.079L156.344 194.408L156.489 195.152H155.963L154.508 191.079H155.281ZM160.084 194.545V193.102C160.084 192.993 160.065 192.9 160.026 192.822C159.986 192.744 159.927 192.683 159.847 192.64C159.768 192.597 159.669 192.576 159.55 192.576C159.44 192.576 159.345 192.594 159.265 192.632C159.184 192.669 159.122 192.719 159.077 192.783C159.032 192.846 159.01 192.918 159.01 192.998H158.339C158.339 192.879 158.367 192.763 158.425 192.651C158.483 192.539 158.567 192.439 158.677 192.352C158.787 192.264 158.919 192.195 159.072 192.145C159.225 192.094 159.396 192.069 159.586 192.069C159.814 192.069 160.015 192.107 160.191 192.184C160.368 192.26 160.507 192.376 160.608 192.531C160.71 192.684 160.761 192.876 160.761 193.107V194.453C160.761 194.591 160.771 194.715 160.789 194.825C160.81 194.933 160.839 195.027 160.876 195.108V195.152H160.185C160.153 195.08 160.128 194.987 160.11 194.875C160.093 194.762 160.084 194.652 160.084 194.545ZM160.182 193.311L160.188 193.728H159.704C159.579 193.728 159.469 193.74 159.374 193.765C159.279 193.787 159.199 193.821 159.136 193.865C159.073 193.91 159.025 193.964 158.993 194.028C158.962 194.091 158.946 194.163 158.946 194.243C158.946 194.323 158.964 194.397 159.002 194.464C159.039 194.529 159.093 194.581 159.164 194.618C159.237 194.655 159.324 194.674 159.427 194.674C159.565 194.674 159.685 194.646 159.788 194.59C159.892 194.532 159.974 194.462 160.034 194.38C160.094 194.296 160.125 194.217 160.129 194.142L160.347 194.442C160.325 194.518 160.287 194.6 160.233 194.688C160.179 194.776 160.108 194.86 160.02 194.94C159.934 195.018 159.831 195.082 159.709 195.133C159.59 195.183 159.452 195.208 159.295 195.208C159.098 195.208 158.921 195.169 158.767 195.091C158.612 195.011 158.491 194.903 158.403 194.769C158.315 194.633 158.271 194.479 158.271 194.307C158.271 194.147 158.301 194.005 158.361 193.882C158.423 193.757 158.512 193.653 158.63 193.569C158.749 193.485 158.894 193.421 159.066 193.379C159.238 193.334 159.433 193.311 159.654 193.311H160.182ZM162.188 190.855V195.152H161.511V190.855H162.188ZM164.748 194.439V192.125H165.425V195.152H164.787L164.748 194.439ZM164.843 193.809L165.07 193.804C165.07 194.007 165.048 194.195 165.003 194.366C164.958 194.536 164.889 194.684 164.796 194.811C164.702 194.936 164.583 195.034 164.438 195.105C164.292 195.174 164.118 195.208 163.914 195.208C163.767 195.208 163.632 195.187 163.509 195.144C163.386 195.101 163.279 195.035 163.19 194.945C163.102 194.856 163.034 194.739 162.986 194.596C162.937 194.452 162.913 194.28 162.913 194.081V192.125H163.587V194.086C163.587 194.196 163.6 194.289 163.626 194.363C163.652 194.436 163.688 194.495 163.733 194.54C163.777 194.584 163.83 194.616 163.889 194.635C163.949 194.653 164.012 194.663 164.079 194.663C164.272 194.663 164.423 194.625 164.533 194.551C164.645 194.474 164.724 194.372 164.771 194.243C164.819 194.114 164.843 193.97 164.843 193.809ZM167.451 195.208C167.227 195.208 167.025 195.172 166.844 195.099C166.665 195.025 166.512 194.921 166.385 194.789C166.26 194.656 166.164 194.5 166.097 194.321C166.03 194.142 165.996 193.949 165.996 193.742V193.63C165.996 193.394 166.03 193.179 166.099 192.987C166.168 192.795 166.265 192.631 166.388 192.495C166.511 192.356 166.656 192.251 166.824 192.178C166.992 192.106 167.174 192.069 167.37 192.069C167.586 192.069 167.775 192.106 167.938 192.178C168.1 192.251 168.234 192.354 168.34 192.486C168.449 192.617 168.529 192.772 168.581 192.953C168.635 193.134 168.662 193.334 168.662 193.552V193.84H166.323V193.356H167.996V193.303C167.993 193.182 167.968 193.068 167.924 192.962C167.881 192.855 167.814 192.77 167.725 192.704C167.635 192.639 167.516 192.606 167.367 192.606C167.255 192.606 167.155 192.631 167.067 192.679C166.982 192.726 166.91 192.794 166.852 192.883C166.794 192.973 166.749 193.081 166.718 193.208C166.688 193.333 166.673 193.474 166.673 193.63V193.742C166.673 193.875 166.691 193.998 166.726 194.112C166.763 194.224 166.818 194.321 166.888 194.405C166.959 194.489 167.045 194.555 167.146 194.604C167.247 194.651 167.361 194.674 167.49 194.674C167.652 194.674 167.797 194.641 167.924 194.576C168.05 194.511 168.16 194.418 168.254 194.299L168.609 194.643C168.544 194.738 168.459 194.83 168.354 194.917C168.25 195.003 168.122 195.073 167.971 195.127C167.822 195.181 167.648 195.208 167.451 195.208ZM171.972 193.144V193.681H170.492V193.144H171.972ZM176.605 192.774V193.44C176.605 193.759 176.573 194.031 176.51 194.257C176.448 194.481 176.359 194.663 176.241 194.803C176.124 194.943 175.983 195.045 175.819 195.11C175.656 195.176 175.475 195.208 175.273 195.208C175.113 195.208 174.964 195.188 174.826 195.147C174.689 195.106 174.566 195.041 174.456 194.954C174.346 194.866 174.252 194.753 174.174 194.615C174.097 194.475 174.038 194.308 173.995 194.114C173.954 193.92 173.933 193.696 173.933 193.44V192.774C173.933 192.453 173.965 192.183 174.028 191.963C174.092 191.741 174.182 191.561 174.3 191.423C174.417 191.283 174.557 191.181 174.719 191.118C174.883 191.055 175.066 191.023 175.268 191.023C175.43 191.023 175.579 191.043 175.715 191.084C175.853 191.124 175.976 191.186 176.085 191.272C176.195 191.358 176.288 191.47 176.364 191.608C176.443 191.744 176.502 191.909 176.543 192.103C176.584 192.295 176.605 192.519 176.605 192.774ZM175.931 193.535V192.674C175.931 192.511 175.921 192.369 175.903 192.246C175.884 192.121 175.856 192.015 175.819 191.929C175.783 191.842 175.739 191.771 175.684 191.717C175.63 191.661 175.569 191.621 175.5 191.596C175.431 191.57 175.353 191.557 175.268 191.557C175.163 191.557 175.07 191.578 174.988 191.619C174.906 191.658 174.837 191.721 174.781 191.809C174.725 191.897 174.682 192.012 174.652 192.156C174.624 192.298 174.61 192.47 174.61 192.674V193.535C174.61 193.699 174.619 193.844 174.638 193.969C174.657 194.094 174.685 194.201 174.722 194.291C174.759 194.378 174.804 194.451 174.856 194.509C174.91 194.565 174.972 194.606 175.041 194.632C175.112 194.658 175.189 194.671 175.273 194.671C175.379 194.671 175.474 194.651 175.556 194.61C175.638 194.569 175.707 194.503 175.763 194.414C175.819 194.322 175.861 194.204 175.889 194.058C175.917 193.913 175.931 193.739 175.931 193.535ZM179.047 191.065V195.152H178.373V191.865L177.374 192.204V191.647L178.966 191.065H179.047ZM181.883 193.812V193.772C181.883 193.44 181.919 193.138 181.99 192.868C182.063 192.596 182.158 192.358 182.274 192.154C182.391 191.949 182.515 191.78 182.647 191.646C182.781 191.511 182.909 191.414 183.032 191.354L183.144 191.676C183.054 191.743 182.964 191.835 182.874 191.954C182.785 192.072 182.703 192.217 182.629 192.39C182.556 192.561 182.497 192.761 182.452 192.991C182.408 193.22 182.386 193.478 182.386 193.767V193.816C182.386 194.106 182.408 194.365 182.452 194.595C182.497 194.824 182.556 195.024 182.629 195.197C182.703 195.369 182.785 195.515 182.874 195.635C182.964 195.756 183.054 195.853 183.144 195.924L183.032 196.232C182.909 196.171 182.781 196.073 182.647 195.938C182.515 195.804 182.391 195.635 182.274 195.43C182.158 195.226 182.063 194.989 181.99 194.719C181.919 194.447 181.883 194.144 181.883 193.812ZM184.128 191.571V195.152H183.564V191.571H184.128ZM185.9 192.63V193.04H184.478V192.63H185.9ZM184.888 192.012H185.45V194.455C185.45 194.533 185.461 194.593 185.483 194.635C185.506 194.675 185.538 194.702 185.578 194.716C185.619 194.73 185.666 194.737 185.72 194.737C185.759 194.737 185.796 194.735 185.832 194.73C185.868 194.726 185.897 194.721 185.918 194.716L185.921 195.145C185.874 195.159 185.82 195.172 185.758 195.183C185.697 195.194 185.627 195.199 185.548 195.199C185.419 195.199 185.305 195.176 185.205 195.131C185.106 195.085 185.028 195.009 184.972 194.905C184.916 194.801 184.888 194.663 184.888 194.49V192.012ZM187.418 193.772V193.812C187.418 194.14 187.38 194.439 187.306 194.709C187.233 194.98 187.137 195.218 187.019 195.423C186.902 195.628 186.776 195.799 186.639 195.936C186.504 196.072 186.374 196.171 186.25 196.232L186.135 195.924C186.225 195.856 186.315 195.762 186.403 195.642C186.494 195.524 186.575 195.377 186.648 195.201C186.723 195.027 186.782 194.825 186.825 194.595C186.87 194.365 186.893 194.106 186.893 193.816V193.767C186.893 193.478 186.87 193.219 186.823 192.989C186.778 192.757 186.717 192.555 186.641 192.383C186.565 192.209 186.483 192.062 186.394 191.942C186.306 191.822 186.219 191.729 186.135 191.662L186.25 191.354C186.374 191.414 186.504 191.511 186.639 191.648C186.776 191.785 186.902 191.957 187.019 192.163C187.137 192.369 187.233 192.606 187.306 192.877C187.38 193.147 187.418 193.446 187.418 193.772Z" fill="black"/>
<path d="M157.326 202.207V207.657H156.427V203.274L155.095 203.725V202.983L157.218 202.207H157.326ZM162.854 206.941V207.657H159.213V207.041L160.981 205.113C161.175 204.894 161.328 204.705 161.44 204.546C161.552 204.387 161.631 204.244 161.675 204.117C161.723 203.987 161.746 203.862 161.746 203.74C161.746 203.568 161.714 203.418 161.649 203.289C161.587 203.157 161.495 203.054 161.373 202.979C161.251 202.902 161.103 202.863 160.929 202.863C160.728 202.863 160.559 202.907 160.422 202.994C160.285 203.081 160.182 203.202 160.112 203.356C160.043 203.507 160.008 203.681 160.008 203.878H159.109C159.109 203.562 159.181 203.274 159.325 203.013C159.469 202.749 159.678 202.54 159.952 202.386C160.225 202.229 160.555 202.151 160.94 202.151C161.304 202.151 161.612 202.212 161.866 202.334C162.119 202.455 162.312 202.628 162.444 202.852C162.578 203.076 162.645 203.341 162.645 203.647C162.645 203.816 162.618 203.984 162.563 204.15C162.508 204.317 162.43 204.484 162.328 204.65C162.229 204.814 162.111 204.98 161.974 205.146C161.837 205.31 161.687 205.477 161.522 205.646L160.347 206.941H162.854ZM164.451 206.791L164.447 207.433C164.447 207.687 164.384 207.948 164.257 208.216C164.13 208.485 163.962 208.706 163.753 208.88L163.272 208.601C163.342 208.489 163.405 208.375 163.462 208.261C163.519 208.147 163.565 208.025 163.6 207.895C163.635 207.766 163.652 207.623 163.652 207.466V206.791H164.451ZM169.005 205.721V206.437H165.089L165.059 205.896L167.401 202.225H168.121L167.342 203.561L165.995 205.721H169.005ZM168.326 202.225V207.657H167.427V202.225H168.326ZM173.247 206.941V207.657H169.606V207.041L171.374 205.113C171.568 204.894 171.721 204.705 171.833 204.546C171.945 204.387 172.023 204.244 172.068 204.117C172.115 203.987 172.139 203.862 172.139 203.74C172.139 203.568 172.106 203.418 172.042 203.289C171.98 203.157 171.888 203.054 171.766 202.979C171.644 202.902 171.496 202.863 171.322 202.863C171.12 202.863 170.951 202.907 170.815 202.994C170.678 203.081 170.575 203.202 170.505 203.356C170.435 203.507 170.4 203.681 170.4 203.878H169.501C169.501 203.562 169.574 203.274 169.718 203.013C169.862 202.749 170.071 202.54 170.345 202.386C170.618 202.229 170.948 202.151 171.333 202.151C171.696 202.151 172.005 202.212 172.258 202.334C172.512 202.455 172.705 202.628 172.836 202.852C172.971 203.076 173.038 203.341 173.038 203.647C173.038 203.816 173.01 203.984 172.956 204.15C172.901 204.317 172.823 204.484 172.721 204.65C172.621 204.814 172.503 204.98 172.366 205.146C172.23 205.31 172.079 205.477 171.915 205.646L170.74 206.941H173.247ZM175.004 204.534H175.541C175.75 204.534 175.923 204.498 176.059 204.426C176.199 204.354 176.302 204.255 176.369 204.128C176.436 204.001 176.47 203.856 176.47 203.691C176.47 203.52 176.439 203.373 176.376 203.251C176.317 203.127 176.225 203.031 176.1 202.964C175.979 202.897 175.823 202.863 175.634 202.863C175.475 202.863 175.331 202.896 175.201 202.96C175.075 203.022 174.974 203.112 174.899 203.229C174.825 203.343 174.787 203.48 174.787 203.639H173.885C173.885 203.351 173.96 203.095 174.112 202.871C174.264 202.647 174.47 202.472 174.731 202.345C174.995 202.215 175.291 202.151 175.619 202.151C175.97 202.151 176.276 202.209 176.537 202.326C176.8 202.441 177.006 202.612 177.152 202.841C177.299 203.07 177.372 203.353 177.372 203.691C177.372 203.846 177.336 204.002 177.264 204.161C177.192 204.321 177.085 204.466 176.943 204.598C176.802 204.727 176.625 204.833 176.414 204.915C176.202 204.995 175.957 205.034 175.679 205.034H175.004V204.534ZM175.004 205.236V204.743H175.679C175.997 204.743 176.268 204.781 176.492 204.855C176.718 204.93 176.902 205.033 177.044 205.165C177.186 205.294 177.289 205.442 177.354 205.609C177.421 205.775 177.454 205.952 177.454 206.139C177.454 206.392 177.408 206.618 177.316 206.817C177.227 207.014 177.099 207.181 176.932 207.317C176.766 207.454 176.57 207.557 176.347 207.627C176.125 207.697 175.884 207.731 175.623 207.731C175.389 207.731 175.165 207.699 174.951 207.634C174.738 207.57 174.546 207.474 174.377 207.347C174.208 207.218 174.074 207.057 173.974 206.866C173.877 206.672 173.829 206.448 173.829 206.194H174.728C174.728 206.356 174.765 206.499 174.84 206.623C174.917 206.745 175.024 206.841 175.16 206.911C175.3 206.98 175.459 207.015 175.638 207.015C175.827 207.015 175.99 206.982 176.126 206.914C176.263 206.847 176.368 206.748 176.44 206.616C176.514 206.484 176.552 206.325 176.552 206.139C176.552 205.927 176.511 205.756 176.429 205.624C176.347 205.492 176.23 205.395 176.078 205.333C175.926 205.268 175.747 205.236 175.541 205.236H175.004Z" fill="black" fill-opacity="0.87"/>
</g>
<defs>
<clipPath id="clip0_131_8798">
<rect width="265" height="230.809" rx="28" fill="white"/>
</clipPath>
<clipPath id="clip1_131_8798">
<rect x="128.438" y="95.6118" width="5.72973" height="4.77477" rx="1.90991" fill="white"/>
</clipPath>
<clipPath id="clip2_131_8798">
<rect width="5.72973" height="5.72973" fill="white" transform="translate(128.438 86.062)"/>
</clipPath>
<clipPath id="clip3_131_8798">
<rect width="5.72973" height="5.72973" fill="white" transform="translate(128.438 76.5127)"/>
</clipPath>
<clipPath id="clip4_131_8798">
<rect width="5.72973" height="5.72973" fill="white" transform="translate(128.438 66.9629)"/>
</clipPath>
<clipPath id="clip5_131_8798">
<rect width="5.72973" height="5.72973" fill="white" transform="translate(128.438 57.4136)"/>
</clipPath>
<clipPath id="clip6_131_8798">
<rect width="5.72973" height="5.72973" fill="white" transform="translate(128.438 47.8638)"/>
</clipPath>
<clipPath id="clip7_131_8798">
<rect width="5.72973" height="5.72973" fill="white" transform="translate(128.438 38.3145)"/>
</clipPath>
<clipPath id="clip8_131_8798">
<rect width="5.72973" height="5.72973" fill="white" transform="translate(128.438 28.7646)"/>
</clipPath>
<clipPath id="clip9_131_8798">
<rect width="5.72973" height="5.72973" fill="white" transform="translate(128.438 19.2153)"/>
</clipPath>
</defs>
</svg>
