<svg width="202" height="58" viewBox="0 0 202 58" fill="none" xmlns="http://www.w3.org/2000/svg">
<g filter="url(#filter0_d_1351_21849)">
<rect x="4" width="194" height="50" rx="10" fill="black"/>
<path d="M75.597 8.6C76.749 8.6 77.705 9.004 78.465 9.812C79.233 10.62 79.617 11.616 79.617 12.8C79.617 13.976 79.233 14.972 78.465 15.788C77.705 16.596 76.749 17 75.597 17H72.297V8.6H75.597ZM75.597 15.68C76.389 15.68 77.033 15.408 77.529 14.864C78.033 14.32 78.285 13.632 78.285 12.8C78.285 11.96 78.033 11.272 77.529 10.736C77.033 10.192 76.389 9.92 75.597 9.92H73.677V15.68H75.597ZM83.6232 17.156C82.7432 17.156 81.9952 16.852 81.3792 16.244C80.7632 15.636 80.4552 14.888 80.4552 14C80.4552 13.112 80.7632 12.364 81.3792 11.756C81.9952 11.148 82.7432 10.844 83.6232 10.844C84.5112 10.844 85.2592 11.148 85.8672 11.756C86.4832 12.364 86.7912 13.112 86.7912 14C86.7912 14.888 86.4832 15.636 85.8672 16.244C85.2592 16.852 84.5112 17.156 83.6232 17.156ZM82.2912 15.356C82.6512 15.716 83.0952 15.896 83.6232 15.896C84.1512 15.896 84.5952 15.716 84.9552 15.356C85.3152 14.996 85.4952 14.544 85.4952 14C85.4952 13.456 85.3152 13.004 84.9552 12.644C84.5952 12.284 84.1512 12.104 83.6232 12.104C83.0952 12.104 82.6512 12.284 82.2912 12.644C81.9312 13.004 81.7512 13.456 81.7512 14C81.7512 14.544 81.9312 14.996 82.2912 15.356ZM94.6407 11H96.0087L94.1247 17H92.8527L91.6047 12.956L90.3447 17H89.0727L87.1887 11H88.5567L89.7207 15.14L90.9807 11H92.2167L93.4647 15.14L94.6407 11ZM100.119 10.844C100.807 10.844 101.363 11.064 101.787 11.504C102.211 11.944 102.423 12.548 102.423 13.316V17H101.127V13.448C101.127 13 101.007 12.656 100.767 12.416C100.527 12.176 100.199 12.056 99.783 12.056C99.327 12.056 98.959 12.2 98.679 12.488C98.399 12.768 98.259 13.2 98.259 13.784V17H96.963V11H98.259V11.768C98.651 11.152 99.271 10.844 100.119 10.844ZM103.819 17V8.24H105.115V17H103.819ZM109.451 17.156C108.571 17.156 107.823 16.852 107.207 16.244C106.591 15.636 106.283 14.888 106.283 14C106.283 13.112 106.591 12.364 107.207 11.756C107.823 11.148 108.571 10.844 109.451 10.844C110.339 10.844 111.087 11.148 111.695 11.756C112.311 12.364 112.619 13.112 112.619 14C112.619 14.888 112.311 15.636 111.695 16.244C111.087 16.852 110.339 17.156 109.451 17.156ZM108.119 15.356C108.479 15.716 108.923 15.896 109.451 15.896C109.979 15.896 110.423 15.716 110.783 15.356C111.143 14.996 111.323 14.544 111.323 14C111.323 13.456 111.143 13.004 110.783 12.644C110.423 12.284 109.979 12.104 109.451 12.104C108.923 12.104 108.479 12.284 108.119 12.644C107.759 13.004 107.579 13.456 107.579 14C107.579 14.544 107.759 14.996 108.119 15.356ZM118.543 11H119.839V17H118.543V16.136C118.055 16.816 117.355 17.156 116.443 17.156C115.619 17.156 114.915 16.852 114.331 16.244C113.747 15.628 113.455 14.88 113.455 14C113.455 13.112 113.747 12.364 114.331 11.756C114.915 11.148 115.619 10.844 116.443 10.844C117.355 10.844 118.055 11.18 118.543 11.852V11ZM115.291 15.38C115.651 15.74 116.103 15.92 116.647 15.92C117.191 15.92 117.643 15.74 118.003 15.38C118.363 15.012 118.543 14.552 118.543 14C118.543 13.448 118.363 12.992 118.003 12.632C117.643 12.264 117.191 12.08 116.647 12.08C116.103 12.08 115.651 12.264 115.291 12.632C114.931 12.992 114.751 13.448 114.751 14C114.751 14.552 114.931 15.012 115.291 15.38ZM126.102 8.6H127.398V17H126.102V16.136C125.614 16.816 124.914 17.156 124.002 17.156C123.178 17.156 122.474 16.852 121.89 16.244C121.306 15.628 121.014 14.88 121.014 14C121.014 13.112 121.306 12.364 121.89 11.756C122.474 11.148 123.178 10.844 124.002 10.844C124.914 10.844 125.614 11.18 126.102 11.852V8.6ZM122.85 15.38C123.21 15.74 123.662 15.92 124.206 15.92C124.75 15.92 125.202 15.74 125.562 15.38C125.922 15.012 126.102 14.552 126.102 14C126.102 13.448 125.922 12.992 125.562 12.632C125.202 12.264 124.75 12.08 124.206 12.08C123.662 12.08 123.21 12.264 122.85 12.632C122.49 12.992 122.31 13.448 122.31 14C122.31 14.552 122.49 15.012 122.85 15.38ZM134.74 17.156C133.86 17.156 133.112 16.852 132.496 16.244C131.88 15.636 131.572 14.888 131.572 14C131.572 13.112 131.88 12.364 132.496 11.756C133.112 11.148 133.86 10.844 134.74 10.844C135.628 10.844 136.376 11.148 136.984 11.756C137.6 12.364 137.908 13.112 137.908 14C137.908 14.888 137.6 15.636 136.984 16.244C136.376 16.852 135.628 17.156 134.74 17.156ZM133.408 15.356C133.768 15.716 134.212 15.896 134.74 15.896C135.268 15.896 135.712 15.716 136.072 15.356C136.432 14.996 136.612 14.544 136.612 14C136.612 13.456 136.432 13.004 136.072 12.644C135.712 12.284 135.268 12.104 134.74 12.104C134.212 12.104 133.768 12.284 133.408 12.644C133.048 13.004 132.868 13.456 132.868 14C132.868 14.544 133.048 14.996 133.408 15.356ZM142.236 10.844C142.924 10.844 143.48 11.064 143.904 11.504C144.328 11.944 144.54 12.548 144.54 13.316V17H143.244V13.448C143.244 13 143.124 12.656 142.884 12.416C142.644 12.176 142.316 12.056 141.9 12.056C141.444 12.056 141.076 12.2 140.796 12.488C140.516 12.768 140.376 13.2 140.376 13.784V17H139.08V11H140.376V11.768C140.768 11.152 141.388 10.844 142.236 10.844ZM152.284 12.248H150.796V15.128C150.796 15.376 150.852 15.556 150.964 15.668C151.076 15.772 151.24 15.832 151.456 15.848C151.68 15.856 151.956 15.852 152.284 15.836V17C151.292 17.12 150.58 17.036 150.148 16.748C149.716 16.452 149.5 15.912 149.5 15.128V12.248H148.396V11H149.5V9.704L150.796 9.32V11H152.284V12.248ZM156.615 10.844C157.303 10.844 157.859 11.064 158.283 11.504C158.707 11.944 158.919 12.548 158.919 13.316V17H157.623V13.448C157.623 13 157.503 12.656 157.263 12.416C157.023 12.176 156.695 12.056 156.279 12.056C155.823 12.056 155.455 12.2 155.175 12.488C154.895 12.768 154.755 13.2 154.755 13.784V17H153.459V8.6H154.755V11.768C155.147 11.152 155.767 10.844 156.615 10.844ZM161.335 14.552C161.431 15.008 161.651 15.36 161.995 15.608C162.339 15.848 162.759 15.968 163.255 15.968C163.943 15.968 164.459 15.72 164.803 15.224L165.871 15.848C165.279 16.72 164.403 17.156 163.243 17.156C162.267 17.156 161.479 16.86 160.879 16.268C160.279 15.668 159.979 14.912 159.979 14C159.979 13.104 160.275 12.356 160.867 11.756C161.459 11.148 162.219 10.844 163.147 10.844C164.027 10.844 164.747 11.152 165.307 11.768C165.875 12.384 166.159 13.132 166.159 14.012C166.159 14.148 166.143 14.328 166.111 14.552H161.335ZM161.323 13.496H164.851C164.763 13.008 164.559 12.64 164.239 12.392C163.927 12.144 163.559 12.02 163.135 12.02C162.655 12.02 162.255 12.152 161.935 12.416C161.615 12.68 161.411 13.04 161.323 13.496Z" fill="white"/>
<path d="M81.6704 39L80.6904 36.18H74.7304L73.7504 39H71.2504L76.3304 25H79.0904L84.1504 39H81.6704ZM75.4904 34.02H79.9304L77.7104 27.7L75.4904 34.02ZM91.1759 28.74C92.5492 28.74 93.7225 29.2533 94.6959 30.28C95.6692 31.2933 96.1559 32.5333 96.1559 34C96.1559 35.48 95.6692 36.7267 94.6959 37.74C93.7225 38.7533 92.5492 39.26 91.1759 39.26C89.6559 39.26 88.4892 38.7 87.6759 37.58V43H85.5159V29H87.6759V30.44C88.4892 29.3067 89.6559 28.74 91.1759 28.74ZM88.5759 36.3C89.1759 36.9 89.9292 37.2 90.8359 37.2C91.7425 37.2 92.4959 36.9 93.0959 36.3C93.6959 35.6867 93.9959 34.92 93.9959 34C93.9959 33.08 93.6959 32.32 93.0959 31.72C92.4959 31.1067 91.7425 30.8 90.8359 30.8C89.9292 30.8 89.1759 31.1067 88.5759 31.72C87.9759 32.32 87.6759 33.08 87.6759 34C87.6759 34.92 87.9759 35.6867 88.5759 36.3ZM103.774 28.74C105.147 28.74 106.32 29.2533 107.294 30.28C108.267 31.2933 108.754 32.5333 108.754 34C108.754 35.48 108.267 36.7267 107.294 37.74C106.32 38.7533 105.147 39.26 103.774 39.26C102.254 39.26 101.087 38.7 100.274 37.58V43H98.1135V29H100.274V30.44C101.087 29.3067 102.254 28.74 103.774 28.74ZM101.174 36.3C101.774 36.9 102.527 37.2 103.434 37.2C104.34 37.2 105.094 36.9 105.694 36.3C106.294 35.6867 106.594 34.92 106.594 34C106.594 33.08 106.294 32.32 105.694 31.72C105.094 31.1067 104.34 30.8 103.434 30.8C102.527 30.8 101.774 31.1067 101.174 31.72C100.574 32.32 100.274 33.08 100.274 34C100.274 34.92 100.574 35.6867 101.174 36.3ZM120.511 39.26C119.165 39.26 118.018 38.9533 117.071 38.34C116.138 37.7267 115.485 36.8867 115.111 35.82L117.091 34.66C117.651 36.2333 118.811 37.02 120.571 37.02C121.438 37.02 122.085 36.8533 122.511 36.52C122.951 36.1733 123.171 35.7267 123.171 35.18C123.171 34.6067 122.938 34.1733 122.471 33.88C122.005 33.5733 121.178 33.24 119.991 32.88C119.325 32.68 118.785 32.4933 118.371 32.32C117.958 32.1467 117.518 31.9067 117.051 31.6C116.598 31.28 116.258 30.8867 116.031 30.42C115.805 29.9533 115.691 29.4067 115.691 28.78C115.691 27.54 116.131 26.56 117.011 25.84C117.891 25.1067 118.951 24.74 120.191 24.74C121.311 24.74 122.291 25.0133 123.131 25.56C123.971 26.1067 124.618 26.86 125.071 27.82L123.131 28.94C122.545 27.6333 121.565 26.98 120.191 26.98C119.525 26.98 118.991 27.14 118.591 27.46C118.191 27.7667 117.991 28.1867 117.991 28.72C117.991 29.24 118.191 29.6533 118.591 29.96C119.005 30.2533 119.745 30.5667 120.811 30.9C121.345 31.0733 121.731 31.2067 121.971 31.3C122.225 31.38 122.571 31.5133 123.011 31.7C123.465 31.8867 123.805 32.0733 124.031 32.26C124.258 32.4467 124.498 32.68 124.751 32.96C125.018 33.24 125.205 33.56 125.311 33.92C125.418 34.28 125.471 34.6867 125.471 35.14C125.471 36.4067 125.011 37.4133 124.091 38.16C123.185 38.8933 121.991 39.26 120.511 39.26ZM132.6 31.08H130.12V35.88C130.12 36.2933 130.213 36.5933 130.4 36.78C130.586 36.9533 130.86 37.0533 131.22 37.08C131.593 37.0933 132.053 37.0867 132.6 37.06V39C130.946 39.2 129.76 39.06 129.04 38.58C128.32 38.0867 127.96 37.1867 127.96 35.88V31.08H126.12V29H127.96V26.84L130.12 26.2V29H132.6V31.08ZM138.869 39.26C137.402 39.26 136.155 38.7533 135.129 37.74C134.102 36.7267 133.589 35.48 133.589 34C133.589 32.52 134.102 31.2733 135.129 30.26C136.155 29.2467 137.402 28.74 138.869 28.74C140.349 28.74 141.595 29.2467 142.609 30.26C143.635 31.2733 144.149 32.52 144.149 34C144.149 35.48 143.635 36.7267 142.609 37.74C141.595 38.7533 140.349 39.26 138.869 39.26ZM136.649 36.26C137.249 36.86 137.989 37.16 138.869 37.16C139.749 37.16 140.489 36.86 141.089 36.26C141.689 35.66 141.989 34.9067 141.989 34C141.989 33.0933 141.689 32.34 141.089 31.74C140.489 31.14 139.749 30.84 138.869 30.84C137.989 30.84 137.249 31.14 136.649 31.74C136.049 32.34 135.749 33.0933 135.749 34C135.749 34.9067 136.049 35.66 136.649 36.26ZM148.262 30.68C148.808 29.44 149.835 28.82 151.342 28.82V31.16C150.515 31.1067 149.795 31.3067 149.182 31.76C148.568 32.2 148.262 32.9333 148.262 33.96V39H146.102V29H148.262V30.68ZM154.169 34.92C154.329 35.68 154.696 36.2667 155.269 36.68C155.842 37.08 156.542 37.28 157.369 37.28C158.516 37.28 159.376 36.8667 159.949 36.04L161.729 37.08C160.742 38.5333 159.282 39.26 157.349 39.26C155.722 39.26 154.409 38.7667 153.409 37.78C152.409 36.78 151.909 35.52 151.909 34C151.909 32.5067 152.402 31.26 153.389 30.26C154.376 29.2467 155.642 28.74 157.189 28.74C158.656 28.74 159.856 29.2533 160.789 30.28C161.736 31.3067 162.209 32.5533 162.209 34.02C162.209 34.2467 162.182 34.5467 162.129 34.92H154.169ZM154.149 33.16H160.029C159.882 32.3467 159.542 31.7333 159.009 31.32C158.489 30.9067 157.876 30.7 157.169 30.7C156.369 30.7 155.702 30.92 155.169 31.36C154.636 31.8 154.296 32.4 154.149 33.16Z" fill="white"/>
<g clip-path="url(#clip0_1351_21849)">
<path d="M48.2421 10.5624C50.1764 8.01292 52.8655 8.00049 52.8655 8.00049C52.8655 8.00049 53.2655 10.3974 51.3439 12.7064C49.2921 15.1719 46.9599 14.7685 46.9599 14.7685C46.9599 14.7685 46.522 12.8295 48.2421 10.5624ZM47.2059 16.4475C48.201 16.4475 50.0479 15.0797 52.4518 15.0797C56.5898 15.0797 58.2176 18.0241 58.2176 18.0241C58.2176 18.0241 55.0338 19.6519 55.0338 23.6018C55.0338 28.0575 59 29.5931 59 29.5931C59 29.5931 56.2275 37.3967 52.4826 37.3967C50.7626 37.3967 49.4254 36.2376 47.6131 36.2376C45.7663 36.2376 43.9335 37.4399 42.7398 37.4399C39.3202 37.44 35 30.0375 35 24.0871C35 18.2328 38.6568 15.1617 42.0867 15.1617C44.3164 15.1617 46.0467 16.4475 47.2059 16.4475Z" fill="white"/>
</g>
</g>
<defs>
<filter id="filter0_d_1351_21849" x="0" y="0" width="202" height="58" filterUnits="userSpaceOnUse" color-interpolation-filters="sRGB">
<feFlood flood-opacity="0" result="BackgroundImageFix"/>
<feColorMatrix in="SourceAlpha" type="matrix" values="0 0 0 0 0 0 0 0 0 0 0 0 0 0 0 0 0 0 127 0" result="hardAlpha"/>
<feOffset dy="4"/>
<feGaussianBlur stdDeviation="2"/>
<feComposite in2="hardAlpha" operator="out"/>
<feColorMatrix type="matrix" values="0 0 0 0 0 0 0 0 0 0 0 0 0 0 0 0 0 0 0.25 0"/>
<feBlend mode="normal" in2="BackgroundImageFix" result="effect1_dropShadow_1351_21849"/>
<feBlend mode="normal" in="SourceGraphic" in2="effect1_dropShadow_1351_21849" result="shape"/>
</filter>
<clipPath id="clip0_1351_21849">
<rect width="24" height="29.4406" fill="white" transform="translate(35 8)"/>
</clipPath>
</defs>
</svg>
