<svg width="354" height="310" viewBox="0 0 354 310" fill="none" xmlns="http://www.w3.org/2000/svg">
<g filter="url(#filter0_d_1843_3304)">
<rect x="4" y="0.328613" width="346" height="300.752" rx="28" fill="white" shape-rendering="crispEdges"/>
<path d="M247.782 117.806C247.782 132.754 243.05 147.318 234.264 159.411C225.478 171.504 213.089 180.505 198.873 185.124C184.657 189.744 169.343 189.744 155.127 185.124C140.911 180.505 128.522 171.504 119.736 159.411L142.642 142.769C147.913 150.025 155.347 155.426 163.876 158.197C172.406 160.969 181.594 160.969 190.124 158.197C198.654 155.426 206.087 150.025 211.359 142.769C216.63 135.514 219.469 126.775 219.469 117.806H247.782Z" fill="#F4BE37"/>
<path d="M146.379 181.622C135.63 176.465 126.358 168.675 119.423 158.977L142.454 142.509C146.615 148.328 152.178 153.001 158.627 156.096L146.379 181.622Z" fill="#FF9F40"/>
<path d="M154.852 50.5786C165.497 47.0714 176.823 46.1425 187.898 47.8682C198.973 49.5938 209.479 53.9248 218.553 60.5046C227.627 67.0844 235.008 75.725 240.09 85.7151C245.171 95.7052 247.808 106.759 247.782 117.968L219.469 117.903C219.485 111.178 217.903 104.546 214.854 98.5517C211.805 92.5576 207.376 87.3733 201.932 83.4254C196.488 79.4775 190.184 76.8789 183.539 75.8435C176.894 74.8081 170.098 75.3654 163.711 77.4697L154.852 50.5786Z" fill="#5388D8"/>
<path d="M119.912 159.653C113.309 150.644 108.931 140.2 107.137 129.175C105.343 118.15 106.183 106.856 109.59 96.2183C112.997 85.5804 118.873 75.8997 126.738 67.9679C134.603 60.036 144.234 54.0782 154.843 50.5816L163.706 77.4715C157.34 79.5695 151.562 83.1442 146.843 87.9033C142.124 92.6624 138.598 98.4708 136.554 104.854C134.51 111.236 134.006 118.012 135.082 124.627C136.158 131.243 138.785 137.509 142.747 142.914L119.912 159.653Z" fill="#0D2535"/>
<rect x="32.1914" y="219.261" width="4.71882" height="4.71882" rx="2.35941" fill="#F4BE37"/>
<path d="M48.5838 221.983L49.9075 217.87H50.8649L49.0607 222.902H48.4144L48.5838 221.983ZM47.3603 217.87L48.6737 221.983L48.8534 222.902H48.2036L46.4064 217.87H47.3603ZM53.2946 222.152V220.368C53.2946 220.235 53.2704 220.12 53.222 220.023C53.1736 219.926 53.0999 219.851 53.0008 219.798C52.904 219.745 52.7819 219.719 52.6344 219.719C52.4985 219.719 52.381 219.742 52.2819 219.788C52.1828 219.834 52.1056 219.896 52.0503 219.974C51.995 220.053 51.9674 220.142 51.9674 220.241H51.1379C51.1379 220.093 51.1736 219.95 51.245 219.812C51.3165 219.674 51.4202 219.551 51.5561 219.442C51.692 219.334 51.8545 219.249 52.0434 219.186C52.2324 219.124 52.4443 219.093 52.6794 219.093C52.9605 219.093 53.2093 219.14 53.4259 219.235C53.6448 219.329 53.8164 219.472 53.9409 219.663C54.0676 219.852 54.1309 220.09 54.1309 220.375V222.038C54.1309 222.208 54.1425 222.362 54.1655 222.497C54.1909 222.631 54.2266 222.747 54.2726 222.847V222.902H53.419C53.3798 222.812 53.3487 222.698 53.3257 222.56C53.3049 222.419 53.2946 222.283 53.2946 222.152ZM53.4155 220.628L53.4224 221.143H52.8245C52.6701 221.143 52.5342 221.158 52.4167 221.188C52.2992 221.215 52.2013 221.257 52.1229 221.312C52.0446 221.367 51.9858 221.434 51.9466 221.512C51.9075 221.591 51.8879 221.68 51.8879 221.779C51.8879 221.878 51.9109 221.969 51.957 222.052C52.0031 222.132 52.0699 222.196 52.1575 222.242C52.2473 222.288 52.3556 222.311 52.4824 222.311C52.6529 222.311 52.8015 222.276 52.9282 222.207C53.0572 222.136 53.1586 222.049 53.2323 221.948C53.3061 221.844 53.3452 221.746 53.3499 221.654L53.6194 222.024C53.5918 222.118 53.5445 222.22 53.4777 222.328C53.4109 222.436 53.3234 222.54 53.2151 222.639C53.1091 222.736 52.9812 222.815 52.8314 222.878C52.684 222.94 52.5135 222.971 52.3199 222.971C52.0757 222.971 51.8579 222.923 51.6667 222.826C51.4755 222.727 51.3257 222.594 51.2174 222.428C51.1091 222.26 51.055 222.07 51.055 221.858C51.055 221.66 51.0918 221.485 51.1656 221.333C51.2416 221.178 51.3522 221.049 51.4973 220.946C51.6448 220.842 51.8245 220.764 52.0365 220.711C52.2485 220.655 52.4904 220.628 52.7623 220.628H53.4155ZM55.8936 217.593V222.902H55.0572V217.593H55.8936ZM59.056 222.021V219.162H59.8924V222.902H59.1044L59.056 222.021ZM59.1735 221.243L59.4534 221.236C59.4534 221.487 59.4258 221.719 59.3705 221.931C59.3152 222.14 59.2299 222.324 59.1147 222.48C58.9995 222.635 58.8521 222.756 58.6723 222.843C58.4926 222.928 58.2772 222.971 58.026 222.971C57.844 222.971 57.677 222.944 57.5249 222.891C57.3728 222.838 57.2415 222.757 57.1309 222.646C57.0226 222.536 56.9385 222.391 56.8786 222.214C56.8187 222.037 56.7887 221.825 56.7887 221.578V219.162H57.6217V221.585C57.6217 221.721 57.6378 221.835 57.6701 221.927C57.7023 222.017 57.7461 222.09 57.8014 222.145C57.8567 222.2 57.9212 222.239 57.9949 222.262C58.0687 222.286 58.147 222.297 58.23 222.297C58.4673 222.297 58.6539 222.251 58.7899 222.159C58.9281 222.064 59.026 221.938 59.0836 221.779C59.1435 221.62 59.1735 221.441 59.1735 221.243ZM62.3946 222.971C62.1181 222.971 61.8681 222.926 61.6447 222.836C61.4235 222.744 61.2345 222.616 61.0778 222.453C60.9235 222.289 60.8048 222.097 60.7219 221.875C60.6389 221.654 60.5974 221.416 60.5974 221.16V221.022C60.5974 220.729 60.6401 220.464 60.7253 220.227C60.8106 219.989 60.9292 219.787 61.0813 219.618C61.2334 219.448 61.4131 219.318 61.6205 219.228C61.8278 219.138 62.0525 219.093 62.2944 219.093C62.5617 219.093 62.7956 219.138 62.996 219.228C63.1965 219.318 63.3624 219.445 63.4937 219.608C63.6273 219.769 63.7264 219.962 63.7909 220.185C63.8577 220.409 63.8912 220.655 63.8912 220.925V221.281H61.0018V220.683H63.0686V220.617C63.064 220.468 63.034 220.327 62.9787 220.196C62.9257 220.064 62.8439 219.958 62.7333 219.878C62.6227 219.797 62.4753 219.757 62.291 219.757C62.1527 219.757 62.0294 219.787 61.9211 219.847C61.8152 219.904 61.7264 219.988 61.655 220.099C61.5836 220.21 61.5283 220.343 61.4891 220.5C61.4523 220.654 61.4338 220.828 61.4338 221.022V221.16C61.4338 221.324 61.4557 221.476 61.4995 221.616C61.5456 221.754 61.6124 221.875 61.6999 221.979C61.7875 222.083 61.8935 222.165 62.0179 222.224C62.1423 222.282 62.284 222.311 62.443 222.311C62.6435 222.311 62.8221 222.271 62.9787 222.19C63.1354 222.109 63.2714 221.995 63.3866 221.848L63.8255 222.273C63.7448 222.39 63.64 222.503 63.511 222.612C63.382 222.718 63.2241 222.804 63.0375 222.871C62.8532 222.938 62.6389 222.971 62.3946 222.971ZM67.9798 220.42V221.084H66.1515V220.42H67.9798ZM73.7032 219.964V220.787C73.7032 221.181 73.664 221.517 73.5857 221.796C73.5097 222.072 73.3991 222.297 73.2539 222.47C73.1088 222.643 72.9348 222.769 72.732 222.85C72.5316 222.931 72.3069 222.971 72.0581 222.971C71.8599 222.971 71.6756 222.946 71.5051 222.895C71.3369 222.844 71.1848 222.765 71.0489 222.656C70.9129 222.548 70.7966 222.409 70.6998 222.238C70.6053 222.065 70.5316 221.859 70.4786 221.62C70.4279 221.38 70.4026 221.102 70.4026 220.787V219.964C70.4026 219.568 70.4417 219.234 70.5201 218.962C70.5984 218.688 70.7102 218.465 70.8553 218.295C71.0005 218.122 71.1733 217.996 71.3738 217.918C71.5765 217.84 71.8023 217.801 72.0512 217.801C72.2516 217.801 72.436 217.826 72.6042 217.877C72.7747 217.925 72.9267 218.002 73.0604 218.108C73.1963 218.214 73.3115 218.352 73.406 218.523C73.5028 218.691 73.5765 218.895 73.6272 219.135C73.6779 219.372 73.7032 219.648 73.7032 219.964ZM72.8703 220.904V219.84C72.8703 219.639 72.8588 219.463 72.8357 219.311C72.8127 219.157 72.7781 219.026 72.732 218.92C72.6883 218.812 72.633 218.725 72.5661 218.658C72.4993 218.589 72.4233 218.539 72.338 218.509C72.2528 218.477 72.1572 218.461 72.0512 218.461C71.9221 218.461 71.8069 218.486 71.7056 218.537C71.6042 218.585 71.5189 218.663 71.4498 218.772C71.3807 218.88 71.3277 219.023 71.2908 219.2C71.2563 219.375 71.239 219.589 71.239 219.84V220.904C71.239 221.107 71.2505 221.286 71.2735 221.44C71.2966 221.594 71.3311 221.727 71.3772 221.837C71.4233 221.946 71.4786 222.036 71.5431 222.107C71.6099 222.176 71.686 222.227 71.7712 222.259C71.8588 222.291 71.9544 222.307 72.0581 222.307C72.1894 222.307 72.3058 222.282 72.4072 222.231C72.5085 222.181 72.5938 222.1 72.6629 221.989C72.732 221.877 72.7839 221.73 72.8184 221.55C72.853 221.371 72.8703 221.155 72.8703 220.904ZM76.7205 217.852V222.902H75.8875V218.841L74.6537 219.259V218.571L76.6202 217.852H76.7205ZM80.2233 221.246V221.197C80.2233 220.786 80.2674 220.413 80.3558 220.079C80.446 219.743 80.5631 219.45 80.7071 219.198C80.8511 218.945 81.0048 218.735 81.168 218.57C81.3331 218.403 81.4915 218.283 81.6432 218.21L81.7814 218.608C81.6701 218.69 81.5587 218.804 81.4473 218.95C81.3379 219.096 81.2371 219.276 81.1449 219.489C81.0547 219.7 80.9817 219.948 80.926 220.232C80.8723 220.514 80.8454 220.834 80.8454 221.191V221.252C80.8454 221.609 80.8723 221.929 80.926 222.214C80.9817 222.496 81.0547 222.743 81.1449 222.957C81.2371 223.17 81.3379 223.35 81.4473 223.498C81.5587 223.648 81.6701 223.767 81.7814 223.855L81.6432 224.235C81.4915 224.16 81.3331 224.04 81.168 223.872C81.0048 223.707 80.8511 223.498 80.7071 223.245C80.5631 222.993 80.446 222.7 80.3558 222.366C80.2674 222.03 80.2233 221.657 80.2233 221.246ZM82.9969 218.478V222.902H82.2999V218.478H82.9969ZM85.1858 219.786V220.292H83.4289V219.786H85.1858ZM83.9358 219.022H84.6299V222.041C84.6299 222.137 84.6433 222.211 84.6702 222.262C84.699 222.312 84.7384 222.346 84.7883 222.363C84.8382 222.381 84.8968 222.389 84.964 222.389C85.012 222.389 85.0581 222.386 85.1022 222.381C85.1464 222.375 85.1819 222.369 85.2088 222.363L85.2117 222.893C85.1541 222.91 85.0869 222.926 85.0101 222.939C84.9352 222.953 84.8488 222.959 84.7509 222.959C84.5915 222.959 84.4504 222.932 84.3275 222.876C84.2046 222.818 84.1086 222.725 84.0395 222.597C83.9703 222.468 83.9358 222.297 83.9358 222.084V219.022ZM87.0607 221.197V221.246C87.0607 221.651 87.0146 222.021 86.9225 222.355C86.8322 222.689 86.7142 222.982 86.5682 223.236C86.4242 223.489 86.2677 223.701 86.0988 223.87C85.9317 224.039 85.7714 224.16 85.6178 224.235L85.4767 223.855C85.588 223.771 85.6984 223.655 85.8079 223.507C85.9192 223.361 86.02 223.179 86.1103 222.962C86.2024 222.747 86.2754 222.498 86.3292 222.214C86.3849 221.929 86.4127 221.609 86.4127 221.252V221.191C86.4127 220.834 86.3839 220.513 86.3263 220.229C86.2706 219.943 86.1957 219.693 86.1016 219.48C86.0076 219.265 85.9058 219.084 85.7963 218.936C85.6869 218.788 85.5803 218.673 85.4767 218.59L85.6178 218.21C85.7714 218.283 85.9317 218.404 86.0988 218.573C86.2677 218.742 86.4242 218.954 86.5682 219.21C86.7142 219.463 86.8322 219.757 86.9225 220.091C87.0146 220.425 87.0607 220.794 87.0607 221.197Z" fill="black" fill-opacity="0.38"/>
<path d="M49.8868 232.146V238.878H48.7762V233.464L47.1311 234.021V233.104L49.7531 232.146H49.8868ZM56.7162 237.994V238.878H52.2185V238.118L54.4028 235.736C54.6425 235.465 54.8314 235.232 54.9696 235.035C55.1079 234.839 55.2047 234.662 55.26 234.505C55.3183 234.345 55.3475 234.19 55.3475 234.04C55.3475 233.828 55.3076 233.642 55.2277 233.482C55.1509 233.319 55.0372 233.192 54.8867 233.1C54.7362 233.004 54.5534 232.957 54.3383 232.957C54.0895 232.957 53.8806 233.011 53.7116 233.118C53.5426 233.226 53.4151 233.375 53.3291 233.565C53.2431 233.753 53.2001 233.968 53.2001 234.21H52.0895C52.0895 233.82 52.1786 233.464 52.3568 233.141C52.535 232.816 52.793 232.557 53.131 232.367C53.4689 232.173 53.876 232.077 54.3521 232.077C54.8007 232.077 55.1816 232.152 55.495 232.302C55.8083 232.453 56.0464 232.667 56.2093 232.943C56.3751 233.22 56.4581 233.547 56.4581 233.925C56.4581 234.133 56.4243 234.341 56.3567 234.547C56.2891 234.753 56.1924 234.958 56.0664 235.164C55.9435 235.367 55.7976 235.571 55.6286 235.777C55.4596 235.98 55.2738 236.186 55.071 236.395L53.6194 237.994H56.7162ZM58.6885 237.809L58.6839 238.602C58.6839 238.915 58.6055 239.238 58.4488 239.57C58.2922 239.901 58.0848 240.175 57.8267 240.39L57.2323 240.044C57.3183 239.906 57.3966 239.766 57.4673 239.625C57.538 239.484 57.5948 239.333 57.6378 239.173C57.6808 239.014 57.7023 238.837 57.7023 238.643V237.809H58.6885ZM64.3151 236.487V237.372H59.4765L59.4396 236.703L62.3336 232.169H63.223L62.2598 233.819L60.5963 236.487H64.3151ZM63.4764 232.169V238.878H62.3658V232.169H63.4764ZM69.5547 237.994V238.878H65.057V238.118L67.2413 235.736C67.481 235.465 67.6699 235.232 67.8082 235.035C67.9464 234.839 68.0432 234.662 68.0985 234.505C68.1568 234.345 68.186 234.19 68.186 234.04C68.186 233.828 68.1461 233.642 68.0662 233.482C67.9894 233.319 67.8757 233.192 67.7252 233.1C67.5747 233.004 67.3919 232.957 67.1768 232.957C66.928 232.957 66.7191 233.011 66.5501 233.118C66.3811 233.226 66.2536 233.375 66.1676 233.565C66.0816 233.753 66.0386 233.968 66.0386 234.21H64.928C64.928 233.82 65.0171 233.464 65.1953 233.141C65.3735 232.816 65.6315 232.557 65.9695 232.367C66.3074 232.173 66.7145 232.077 67.1906 232.077C67.6392 232.077 68.0201 232.152 68.3335 232.302C68.6468 232.453 68.8849 232.667 69.0478 232.943C69.2137 233.22 69.2966 233.547 69.2966 233.925C69.2966 234.133 69.2628 234.341 69.1952 234.547C69.1276 234.753 69.0309 234.958 68.9049 235.164C68.782 235.367 68.6361 235.571 68.4671 235.777C68.2982 235.98 68.1123 236.186 67.9095 236.395L66.4579 237.994H69.5547ZM71.7251 235.021H72.3887C72.6468 235.021 72.8603 234.977 73.0293 234.888C73.2013 234.799 73.3288 234.676 73.4117 234.519C73.4947 234.362 73.5362 234.183 73.5362 233.98C73.5362 233.768 73.4978 233.587 73.421 233.436C73.3472 233.282 73.2336 233.164 73.08 233.081C72.9294 232.998 72.7374 232.957 72.5039 232.957C72.3073 232.957 72.1291 232.997 71.9694 233.077C71.8127 233.153 71.6883 233.264 71.5961 233.408C71.5039 233.55 71.4579 233.719 71.4579 233.915H70.3427C70.3427 233.559 70.4364 233.243 70.6238 232.966C70.8112 232.69 71.0662 232.473 71.3887 232.316C71.7144 232.157 72.08 232.077 72.4855 232.077C72.9187 232.077 73.2965 232.149 73.6191 232.293C73.9448 232.435 74.1982 232.647 74.3795 232.929C74.5607 233.212 74.6514 233.562 74.6514 233.98C74.6514 234.17 74.6068 234.364 74.5177 234.561C74.4286 234.757 74.2965 234.937 74.1214 235.1C73.9463 235.259 73.7282 235.39 73.467 235.491C73.2059 235.59 72.9033 235.639 72.5592 235.639H71.7251V235.021ZM71.7251 235.888V235.279H72.5592C72.9525 235.279 73.2873 235.325 73.5638 235.418C73.8434 235.51 74.0707 235.637 74.2458 235.8C74.4209 235.96 74.5484 236.143 74.6283 236.349C74.7113 236.554 74.7527 236.772 74.7527 237.003C74.7527 237.316 74.6959 237.596 74.5822 237.842C74.4716 238.084 74.3134 238.29 74.1076 238.459C73.9018 238.628 73.6606 238.756 73.3841 238.842C73.1107 238.928 72.8127 238.971 72.4901 238.971C72.2013 238.971 71.9248 238.931 71.6606 238.851C71.3964 238.771 71.1599 238.653 70.951 238.496C70.7421 238.336 70.5762 238.138 70.4533 237.901C70.3335 237.662 70.2735 237.385 70.2735 237.072H71.3841C71.3841 237.272 71.4302 237.448 71.5224 237.602C71.6176 237.752 71.7497 237.871 71.9187 237.957C72.0907 238.043 72.2873 238.086 72.5085 238.086C72.742 238.086 72.9432 238.044 73.1122 237.961C73.2812 237.878 73.4102 237.756 73.4993 237.593C73.5915 237.43 73.6376 237.233 73.6376 237.003C73.6376 236.742 73.5869 236.53 73.4855 236.367C73.3841 236.204 73.2397 236.084 73.0523 236.007C72.8649 235.928 72.6437 235.888 72.3887 235.888H71.7251Z" fill="black" fill-opacity="0.87"/>
<rect x="111.231" y="219.261" width="4.71882" height="4.71882" rx="2.35941" fill="#FF9F40"/>
<path d="M127.624 221.983L128.948 217.87H129.905L128.101 222.902H127.454L127.624 221.983ZM126.4 217.87L127.714 221.983L127.893 222.902H127.244L125.446 217.87H126.4ZM132.335 222.152V220.368C132.335 220.235 132.31 220.12 132.262 220.023C132.214 219.926 132.14 219.851 132.041 219.798C131.944 219.745 131.822 219.719 131.674 219.719C131.539 219.719 131.421 219.742 131.322 219.788C131.223 219.834 131.146 219.896 131.09 219.974C131.035 220.053 131.007 220.142 131.007 220.241H130.178C130.178 220.093 130.214 219.95 130.285 219.812C130.357 219.674 130.46 219.551 130.596 219.442C130.732 219.334 130.895 219.249 131.083 219.186C131.272 219.124 131.484 219.093 131.719 219.093C132 219.093 132.249 219.14 132.466 219.235C132.685 219.329 132.856 219.472 132.981 219.663C133.108 219.852 133.171 220.09 133.171 220.375V222.038C133.171 222.208 133.183 222.362 133.206 222.497C133.231 222.631 133.267 222.747 133.313 222.847V222.902H132.459C132.42 222.812 132.389 222.698 132.366 222.56C132.345 222.419 132.335 222.283 132.335 222.152ZM132.456 220.628L132.462 221.143H131.865C131.71 221.143 131.574 221.158 131.457 221.188C131.339 221.215 131.241 221.257 131.163 221.312C131.085 221.367 131.026 221.434 130.987 221.512C130.948 221.591 130.928 221.68 130.928 221.779C130.928 221.878 130.951 221.969 130.997 222.052C131.043 222.132 131.11 222.196 131.198 222.242C131.287 222.288 131.396 222.311 131.522 222.311C131.693 222.311 131.842 222.276 131.968 222.207C132.097 222.136 132.199 222.049 132.272 221.948C132.346 221.844 132.385 221.746 132.39 221.654L132.659 222.024C132.632 222.118 132.585 222.22 132.518 222.328C132.451 222.436 132.363 222.54 132.255 222.639C132.149 222.736 132.021 222.815 131.871 222.878C131.724 222.94 131.553 222.971 131.36 222.971C131.116 222.971 130.898 222.923 130.707 222.826C130.515 222.727 130.366 222.594 130.257 222.428C130.149 222.26 130.095 222.07 130.095 221.858C130.095 221.66 130.132 221.485 130.206 221.333C130.282 221.178 130.392 221.049 130.537 220.946C130.685 220.842 130.865 220.764 131.077 220.711C131.289 220.655 131.53 220.628 131.802 220.628H132.456ZM134.934 217.593V222.902H134.097V217.593H134.934ZM138.096 222.021V219.162H138.932V222.902H138.144L138.096 222.021ZM138.214 221.243L138.493 221.236C138.493 221.487 138.466 221.719 138.411 221.931C138.355 222.14 138.27 222.324 138.155 222.48C138.04 222.635 137.892 222.756 137.712 222.843C137.533 222.928 137.317 222.971 137.066 222.971C136.884 222.971 136.717 222.944 136.565 222.891C136.413 222.838 136.282 222.757 136.171 222.646C136.063 222.536 135.979 222.391 135.919 222.214C135.859 222.037 135.829 221.825 135.829 221.578V219.162H136.662V221.585C136.662 221.721 136.678 221.835 136.71 221.927C136.742 222.017 136.786 222.09 136.841 222.145C136.897 222.2 136.961 222.239 137.035 222.262C137.109 222.286 137.187 222.297 137.27 222.297C137.507 222.297 137.694 222.251 137.83 222.159C137.968 222.064 138.066 221.938 138.124 221.779C138.184 221.62 138.214 221.441 138.214 221.243ZM141.435 222.971C141.158 222.971 140.908 222.926 140.685 222.836C140.463 222.744 140.275 222.616 140.118 222.453C139.964 222.289 139.845 222.097 139.762 221.875C139.679 221.654 139.637 221.416 139.637 221.16V221.022C139.637 220.729 139.68 220.464 139.765 220.227C139.851 219.989 139.969 219.787 140.121 219.618C140.273 219.448 140.453 219.318 140.66 219.228C140.868 219.138 141.093 219.093 141.334 219.093C141.602 219.093 141.836 219.138 142.036 219.228C142.237 219.318 142.402 219.445 142.534 219.608C142.667 219.769 142.766 219.962 142.831 220.185C142.898 220.409 142.931 220.655 142.931 220.925V221.281H140.042V220.683H142.109V220.617C142.104 220.468 142.074 220.327 142.019 220.196C141.966 220.064 141.884 219.958 141.773 219.878C141.663 219.797 141.515 219.757 141.331 219.757C141.193 219.757 141.069 219.787 140.961 219.847C140.855 219.904 140.766 219.988 140.695 220.099C140.624 220.21 140.568 220.343 140.529 220.5C140.492 220.654 140.474 220.828 140.474 221.022V221.16C140.474 221.324 140.496 221.476 140.54 221.616C140.586 221.754 140.652 221.875 140.74 221.979C140.828 222.083 140.934 222.165 141.058 222.224C141.182 222.282 141.324 222.311 141.483 222.311C141.684 222.311 141.862 222.271 142.019 222.19C142.175 222.109 142.311 221.995 142.427 221.848L142.866 222.273C142.785 222.39 142.68 222.503 142.551 222.612C142.422 222.718 142.264 222.804 142.078 222.871C141.893 222.938 141.679 222.971 141.435 222.971ZM147.02 220.42V221.084H145.192V220.42H147.02ZM152.743 219.964V220.787C152.743 221.181 152.704 221.517 152.626 221.796C152.55 222.072 152.439 222.297 152.294 222.47C152.149 222.643 151.975 222.769 151.772 222.85C151.572 222.931 151.347 222.971 151.098 222.971C150.9 222.971 150.716 222.946 150.545 222.895C150.377 222.844 150.225 222.765 150.089 222.656C149.953 222.548 149.837 222.409 149.74 222.238C149.645 222.065 149.572 221.859 149.519 221.62C149.468 221.38 149.443 221.102 149.443 220.787V219.964C149.443 219.568 149.482 219.234 149.56 218.962C149.638 218.688 149.75 218.465 149.895 218.295C150.041 218.122 150.213 217.996 150.414 217.918C150.617 217.84 150.842 217.801 151.091 217.801C151.292 217.801 151.476 217.826 151.644 217.877C151.815 217.925 151.967 218.002 152.1 218.108C152.236 218.214 152.352 218.352 152.446 218.523C152.543 218.691 152.617 218.895 152.667 219.135C152.718 219.372 152.743 219.648 152.743 219.964ZM151.91 220.904V219.84C151.91 219.639 151.899 219.463 151.876 219.311C151.853 219.157 151.818 219.026 151.772 218.92C151.728 218.812 151.673 218.725 151.606 218.658C151.539 218.589 151.463 218.539 151.378 218.509C151.293 218.477 151.197 218.461 151.091 218.461C150.962 218.461 150.847 218.486 150.746 218.537C150.644 218.585 150.559 218.663 150.49 218.772C150.421 218.88 150.368 219.023 150.331 219.2C150.296 219.375 150.279 219.589 150.279 219.84V220.904C150.279 221.107 150.291 221.286 150.314 221.44C150.337 221.594 150.371 221.727 150.417 221.837C150.463 221.946 150.519 222.036 150.583 222.107C150.65 222.176 150.726 222.227 150.811 222.259C150.899 222.291 150.994 222.307 151.098 222.307C151.229 222.307 151.346 222.282 151.447 222.231C151.549 222.181 151.634 222.1 151.703 221.989C151.772 221.877 151.824 221.73 151.858 221.55C151.893 221.371 151.91 221.155 151.91 220.904ZM155.76 217.852V222.902H154.928V218.841L153.694 219.259V218.571L155.66 217.852H155.76ZM159.263 221.246V221.197C159.263 220.786 159.307 220.413 159.396 220.079C159.486 219.743 159.603 219.45 159.747 219.198C159.891 218.945 160.045 218.735 160.208 218.57C160.373 218.403 160.532 218.283 160.683 218.21L160.821 218.608C160.71 218.69 160.599 218.804 160.487 218.95C160.378 219.096 160.277 219.276 160.185 219.489C160.095 219.7 160.022 219.948 159.966 220.232C159.912 220.514 159.885 220.834 159.885 221.191V221.252C159.885 221.609 159.912 221.929 159.966 222.214C160.022 222.496 160.095 222.743 160.185 222.957C160.277 223.17 160.378 223.35 160.487 223.498C160.599 223.648 160.71 223.767 160.821 223.855L160.683 224.235C160.532 224.16 160.373 224.04 160.208 223.872C160.045 223.707 159.891 223.498 159.747 223.245C159.603 222.993 159.486 222.7 159.396 222.366C159.307 222.03 159.263 221.657 159.263 221.246ZM162.037 218.478V222.902H161.34V218.478H162.037ZM164.226 219.786V220.292H162.469V219.786H164.226ZM162.976 219.022H163.67V222.041C163.67 222.137 163.683 222.211 163.71 222.262C163.739 222.312 163.778 222.346 163.828 222.363C163.878 222.381 163.937 222.389 164.004 222.389C164.052 222.389 164.098 222.386 164.142 222.381C164.186 222.375 164.222 222.369 164.249 222.363L164.252 222.893C164.194 222.91 164.127 222.926 164.05 222.939C163.975 222.953 163.889 222.959 163.791 222.959C163.632 222.959 163.49 222.932 163.368 222.876C163.245 222.818 163.149 222.725 163.08 222.597C163.01 222.468 162.976 222.297 162.976 222.084V219.022ZM166.101 221.197V221.246C166.101 221.651 166.055 222.021 165.963 222.355C165.872 222.689 165.754 222.982 165.608 223.236C165.464 223.489 165.308 223.701 165.139 223.87C164.972 224.039 164.811 224.16 164.658 224.235L164.517 223.855C164.628 223.771 164.738 223.655 164.848 223.507C164.959 223.361 165.06 223.179 165.15 222.962C165.242 222.747 165.315 222.498 165.369 222.214C165.425 221.929 165.453 221.609 165.453 221.252V221.191C165.453 220.834 165.424 220.513 165.366 220.229C165.311 219.943 165.236 219.693 165.142 219.48C165.048 219.265 164.946 219.084 164.836 218.936C164.727 218.788 164.62 218.673 164.517 218.59L164.658 218.21C164.811 218.283 164.972 218.404 165.139 218.573C165.308 218.742 165.464 218.954 165.608 219.21C165.754 219.463 165.872 219.757 165.963 220.091C166.055 220.425 166.101 220.794 166.101 221.197Z" fill="black" fill-opacity="0.38"/>
<path d="M128.927 232.146V238.878H127.816V233.464L126.171 234.021V233.104L128.793 232.146H128.927ZM135.756 237.994V238.878H131.259V238.118L133.443 235.736C133.682 235.465 133.871 235.232 134.01 235.035C134.148 234.839 134.245 234.662 134.3 234.505C134.358 234.345 134.388 234.19 134.388 234.04C134.388 233.828 134.348 233.642 134.268 233.482C134.191 233.319 134.077 233.192 133.927 233.1C133.776 233.004 133.593 232.957 133.378 232.957C133.13 232.957 132.921 233.011 132.752 233.118C132.583 233.226 132.455 233.375 132.369 233.565C132.283 233.753 132.24 233.968 132.24 234.21H131.13C131.13 233.82 131.219 233.464 131.397 233.141C131.575 232.816 131.833 232.557 132.171 232.367C132.509 232.173 132.916 232.077 133.392 232.077C133.841 232.077 134.222 232.152 134.535 232.302C134.848 232.453 135.086 232.667 135.249 232.943C135.415 233.22 135.498 233.547 135.498 233.925C135.498 234.133 135.464 234.341 135.397 234.547C135.329 234.753 135.232 234.958 135.106 235.164C134.984 235.367 134.838 235.571 134.669 235.777C134.5 235.98 134.314 236.186 134.111 236.395L132.659 237.994H135.756ZM137.729 237.809L137.724 238.602C137.724 238.915 137.646 239.238 137.489 239.57C137.332 239.901 137.125 240.175 136.867 240.39L136.272 240.044C136.358 239.906 136.437 239.766 136.507 239.625C136.578 239.484 136.635 239.333 136.678 239.173C136.721 239.014 136.742 238.837 136.742 238.643V237.809H137.729ZM143.355 236.487V237.372H138.517L138.48 236.703L141.374 232.169H142.263L141.3 233.819L139.636 236.487H143.355ZM142.516 232.169V238.878H141.406V232.169H142.516ZM148.595 237.994V238.878H144.097V238.118L146.281 235.736C146.521 235.465 146.71 235.232 146.848 235.035C146.986 234.839 147.083 234.662 147.139 234.505C147.197 234.345 147.226 234.19 147.226 234.04C147.226 233.828 147.186 233.642 147.106 233.482C147.029 233.319 146.916 233.192 146.765 233.1C146.615 233.004 146.432 232.957 146.217 232.957C145.968 232.957 145.759 233.011 145.59 233.118C145.421 233.226 145.294 233.375 145.208 233.565C145.122 233.753 145.079 233.968 145.079 234.21H143.968C143.968 233.82 144.057 233.464 144.235 233.141C144.414 232.816 144.672 232.557 145.01 232.367C145.347 232.173 145.755 232.077 146.231 232.077C146.679 232.077 147.06 232.152 147.374 232.302C147.687 232.453 147.925 232.667 148.088 232.943C148.254 233.22 148.337 233.547 148.337 233.925C148.337 234.133 148.303 234.341 148.235 234.547C148.168 234.753 148.071 234.958 147.945 235.164C147.822 235.367 147.676 235.571 147.507 235.777C147.338 235.98 147.152 236.186 146.95 236.395L145.498 237.994H148.595ZM150.765 235.021H151.429C151.687 235.021 151.9 234.977 152.069 234.888C152.241 234.799 152.369 234.676 152.452 234.519C152.535 234.362 152.576 234.183 152.576 233.98C152.576 233.768 152.538 233.587 152.461 233.436C152.387 233.282 152.274 233.164 152.12 233.081C151.969 232.998 151.777 232.957 151.544 232.957C151.347 232.957 151.169 232.997 151.009 233.077C150.853 233.153 150.728 233.264 150.636 233.408C150.544 233.55 150.498 233.719 150.498 233.915H149.383C149.383 233.559 149.476 233.243 149.664 232.966C149.851 232.69 150.106 232.473 150.429 232.316C150.754 232.157 151.12 232.077 151.526 232.077C151.959 232.077 152.337 232.149 152.659 232.293C152.985 232.435 153.238 232.647 153.42 232.929C153.601 233.212 153.691 233.562 153.691 233.98C153.691 234.17 153.647 234.364 153.558 234.561C153.469 234.757 153.337 234.937 153.161 235.1C152.986 235.259 152.768 235.39 152.507 235.491C152.246 235.59 151.943 235.639 151.599 235.639H150.765V235.021ZM150.765 235.888V235.279H151.599C151.993 235.279 152.327 235.325 152.604 235.418C152.883 235.51 153.111 235.637 153.286 235.8C153.461 235.96 153.588 236.143 153.668 236.349C153.751 236.554 153.793 236.772 153.793 237.003C153.793 237.316 153.736 237.596 153.622 237.842C153.512 238.084 153.353 238.29 153.148 238.459C152.942 238.628 152.701 238.756 152.424 238.842C152.151 238.928 151.853 238.971 151.53 238.971C151.241 238.971 150.965 238.931 150.701 238.851C150.436 238.771 150.2 238.653 149.991 238.496C149.782 238.336 149.616 238.138 149.493 237.901C149.373 237.662 149.314 237.385 149.314 237.072H150.424C150.424 237.272 150.47 237.448 150.562 237.602C150.658 237.752 150.79 237.871 150.959 237.957C151.131 238.043 151.327 238.086 151.549 238.086C151.782 238.086 151.983 238.044 152.152 237.961C152.321 237.878 152.45 237.756 152.539 237.593C152.632 237.43 152.678 237.233 152.678 237.003C152.678 236.742 152.627 236.53 152.526 236.367C152.424 236.204 152.28 236.084 152.092 236.007C151.905 235.928 151.684 235.888 151.429 235.888H150.765Z" fill="black" fill-opacity="0.87"/>
<rect x="190.271" y="219.261" width="4.71882" height="4.71882" rx="2.35941" fill="#0D2535"/>
<path d="M206.664 221.983L207.988 217.87H208.945L207.141 222.902H206.495L206.664 221.983ZM205.44 217.87L206.754 221.983L206.933 222.902H206.284L204.486 217.87H205.44ZM211.375 222.152V220.368C211.375 220.235 211.35 220.12 211.302 220.023C211.254 219.926 211.18 219.851 211.081 219.798C210.984 219.745 210.862 219.719 210.715 219.719C210.579 219.719 210.461 219.742 210.362 219.788C210.263 219.834 210.186 219.896 210.13 219.974C210.075 220.053 210.047 220.142 210.047 220.241H209.218C209.218 220.093 209.254 219.95 209.325 219.812C209.397 219.674 209.5 219.551 209.636 219.442C209.772 219.334 209.935 219.249 210.123 219.186C210.312 219.124 210.524 219.093 210.759 219.093C211.041 219.093 211.289 219.14 211.506 219.235C211.725 219.329 211.897 219.472 212.021 219.663C212.148 219.852 212.211 220.09 212.211 220.375V222.038C212.211 222.208 212.223 222.362 212.246 222.497C212.271 222.631 212.307 222.747 212.353 222.847V222.902H211.499C211.46 222.812 211.429 222.698 211.406 222.56C211.385 222.419 211.375 222.283 211.375 222.152ZM211.496 220.628L211.503 221.143H210.905C210.75 221.143 210.614 221.158 210.497 221.188C210.379 221.215 210.281 221.257 210.203 221.312C210.125 221.367 210.066 221.434 210.027 221.512C209.988 221.591 209.968 221.68 209.968 221.779C209.968 221.878 209.991 221.969 210.037 222.052C210.083 222.132 210.15 222.196 210.238 222.242C210.327 222.288 210.436 222.311 210.562 222.311C210.733 222.311 210.882 222.276 211.008 222.207C211.137 222.136 211.239 222.049 211.312 221.948C211.386 221.844 211.425 221.746 211.43 221.654L211.7 222.024C211.672 222.118 211.625 222.22 211.558 222.328C211.491 222.436 211.403 222.54 211.295 222.639C211.189 222.736 211.061 222.815 210.912 222.878C210.764 222.94 210.594 222.971 210.4 222.971C210.156 222.971 209.938 222.923 209.747 222.826C209.556 222.727 209.406 222.594 209.297 222.428C209.189 222.26 209.135 222.07 209.135 221.858C209.135 221.66 209.172 221.485 209.246 221.333C209.322 221.178 209.432 221.049 209.577 220.946C209.725 220.842 209.905 220.764 210.117 220.711C210.329 220.655 210.57 220.628 210.842 220.628H211.496ZM213.974 217.593V222.902H213.137V217.593H213.974ZM217.136 222.021V219.162H217.972V222.902H217.184L217.136 222.021ZM217.254 221.243L217.534 221.236C217.534 221.487 217.506 221.719 217.451 221.931C217.395 222.14 217.31 222.324 217.195 222.48C217.08 222.635 216.932 222.756 216.752 222.843C216.573 222.928 216.357 222.971 216.106 222.971C215.924 222.971 215.757 222.944 215.605 222.891C215.453 222.838 215.322 222.757 215.211 222.646C215.103 222.536 215.019 222.391 214.959 222.214C214.899 222.037 214.869 221.825 214.869 221.578V219.162H215.702V221.585C215.702 221.721 215.718 221.835 215.75 221.927C215.782 222.017 215.826 222.09 215.881 222.145C215.937 222.2 216.001 222.239 216.075 222.262C216.149 222.286 216.227 222.297 216.31 222.297C216.547 222.297 216.734 222.251 216.87 222.159C217.008 222.064 217.106 221.938 217.164 221.779C217.224 221.62 217.254 221.441 217.254 221.243ZM220.475 222.971C220.198 222.971 219.948 222.926 219.725 222.836C219.504 222.744 219.315 222.616 219.158 222.453C219.004 222.289 218.885 222.097 218.802 221.875C218.719 221.654 218.678 221.416 218.678 221.16V221.022C218.678 220.729 218.72 220.464 218.805 220.227C218.891 219.989 219.009 219.787 219.161 219.618C219.313 219.448 219.493 219.318 219.701 219.228C219.908 219.138 220.133 219.093 220.374 219.093C220.642 219.093 220.876 219.138 221.076 219.228C221.277 219.318 221.442 219.445 221.574 219.608C221.707 219.769 221.806 219.962 221.871 220.185C221.938 220.409 221.971 220.655 221.971 220.925V221.281H219.082V220.683H221.149V220.617C221.144 220.468 221.114 220.327 221.059 220.196C221.006 220.064 220.924 219.958 220.813 219.878C220.703 219.797 220.555 219.757 220.371 219.757C220.233 219.757 220.11 219.787 220.001 219.847C219.895 219.904 219.807 219.988 219.735 220.099C219.664 220.21 219.608 220.343 219.569 220.5C219.532 220.654 219.514 220.828 219.514 221.022V221.16C219.514 221.324 219.536 221.476 219.58 221.616C219.626 221.754 219.692 221.875 219.78 221.979C219.868 222.083 219.974 222.165 220.098 222.224C220.222 222.282 220.364 222.311 220.523 222.311C220.724 222.311 220.902 222.271 221.059 222.19C221.215 222.109 221.351 221.995 221.467 221.848L221.906 222.273C221.825 222.39 221.72 222.503 221.591 222.612C221.462 222.718 221.304 222.804 221.118 222.871C220.933 222.938 220.719 222.971 220.475 222.971ZM226.06 220.42V221.084H224.232V220.42H226.06ZM231.783 219.964V220.787C231.783 221.181 231.744 221.517 231.666 221.796C231.59 222.072 231.479 222.297 231.334 222.47C231.189 222.643 231.015 222.769 230.812 222.85C230.612 222.931 230.387 222.971 230.138 222.971C229.94 222.971 229.756 222.946 229.585 222.895C229.417 222.844 229.265 222.765 229.129 222.656C228.993 222.548 228.877 222.409 228.78 222.238C228.685 222.065 228.612 221.859 228.559 221.62C228.508 221.38 228.483 221.102 228.483 220.787V219.964C228.483 219.568 228.522 219.234 228.6 218.962C228.679 218.688 228.79 218.465 228.935 218.295C229.081 218.122 229.253 217.996 229.454 217.918C229.657 217.84 229.882 217.801 230.131 217.801C230.332 217.801 230.516 217.826 230.684 217.877C230.855 217.925 231.007 218.002 231.14 218.108C231.276 218.214 231.392 218.352 231.486 218.523C231.583 218.691 231.657 218.895 231.707 219.135C231.758 219.372 231.783 219.648 231.783 219.964ZM230.95 220.904V219.84C230.95 219.639 230.939 219.463 230.916 219.311C230.893 219.157 230.858 219.026 230.812 218.92C230.768 218.812 230.713 218.725 230.646 218.658C230.579 218.589 230.503 218.539 230.418 218.509C230.333 218.477 230.237 218.461 230.131 218.461C230.002 218.461 229.887 218.486 229.786 218.537C229.684 218.585 229.599 218.663 229.53 218.772C229.461 218.88 229.408 219.023 229.371 219.2C229.336 219.375 229.319 219.589 229.319 219.84V220.904C229.319 221.107 229.331 221.286 229.354 221.44C229.377 221.594 229.411 221.727 229.457 221.837C229.503 221.946 229.559 222.036 229.623 222.107C229.69 222.176 229.766 222.227 229.851 222.259C229.939 222.291 230.034 222.307 230.138 222.307C230.269 222.307 230.386 222.282 230.487 222.231C230.589 222.181 230.674 222.1 230.743 221.989C230.812 221.877 230.864 221.73 230.899 221.55C230.933 221.371 230.95 221.155 230.95 220.904ZM234.801 217.852V222.902H233.968V218.841L232.734 219.259V218.571L234.7 217.852H234.801ZM238.303 221.246V221.197C238.303 220.786 238.348 220.413 238.436 220.079C238.526 219.743 238.643 219.45 238.787 219.198C238.931 218.945 239.085 218.735 239.248 218.57C239.413 218.403 239.572 218.283 239.723 218.21L239.862 218.608C239.75 218.69 239.639 218.804 239.527 218.95C239.418 219.096 239.317 219.276 239.225 219.489C239.135 219.7 239.062 219.948 239.006 220.232C238.952 220.514 238.925 220.834 238.925 221.191V221.252C238.925 221.609 238.952 221.929 239.006 222.214C239.062 222.496 239.135 222.743 239.225 222.957C239.317 223.17 239.418 223.35 239.527 223.498C239.639 223.648 239.75 223.767 239.862 223.855L239.723 224.235C239.572 224.16 239.413 224.04 239.248 223.872C239.085 223.707 238.931 223.498 238.787 223.245C238.643 222.993 238.526 222.7 238.436 222.366C238.348 222.03 238.303 221.657 238.303 221.246ZM241.077 218.478V222.902H240.38V218.478H241.077ZM243.266 219.786V220.292H241.509V219.786H243.266ZM242.016 219.022H242.71V222.041C242.71 222.137 242.723 222.211 242.75 222.262C242.779 222.312 242.818 222.346 242.868 222.363C242.918 222.381 242.977 222.389 243.044 222.389C243.092 222.389 243.138 222.386 243.182 222.381C243.226 222.375 243.262 222.369 243.289 222.363L243.292 222.893C243.234 222.91 243.167 222.926 243.09 222.939C243.015 222.953 242.929 222.959 242.831 222.959C242.672 222.959 242.53 222.932 242.408 222.876C242.285 222.818 242.189 222.725 242.12 222.597C242.05 222.468 242.016 222.297 242.016 222.084V219.022ZM245.141 221.197V221.246C245.141 221.651 245.095 222.021 245.003 222.355C244.912 222.689 244.794 222.982 244.648 223.236C244.504 223.489 244.348 223.701 244.179 223.87C244.012 224.039 243.851 224.16 243.698 224.235L243.557 223.855C243.668 223.771 243.779 223.655 243.888 223.507C243.999 223.361 244.1 223.179 244.19 222.962C244.283 222.747 244.355 222.498 244.409 222.214C244.465 221.929 244.493 221.609 244.493 221.252V221.191C244.493 220.834 244.464 220.513 244.406 220.229C244.351 219.943 244.276 219.693 244.182 219.48C244.088 219.265 243.986 219.084 243.876 218.936C243.767 218.788 243.66 218.673 243.557 218.59L243.698 218.21C243.851 218.283 244.012 218.404 244.179 218.573C244.348 218.742 244.504 218.954 244.648 219.21C244.794 219.463 244.912 219.757 245.003 220.091C245.095 220.425 245.141 220.794 245.141 221.197Z" fill="black" fill-opacity="0.38"/>
<path d="M207.967 232.146V238.878H206.856V233.464L205.211 234.021V233.104L207.833 232.146H207.967ZM214.796 237.994V238.878H210.299V238.118L212.483 235.736C212.723 235.465 212.911 235.232 213.05 235.035C213.188 234.839 213.285 234.662 213.34 234.505C213.398 234.345 213.428 234.19 213.428 234.04C213.428 233.828 213.388 233.642 213.308 233.482C213.231 233.319 213.117 233.192 212.967 233.1C212.816 233.004 212.633 232.957 212.418 232.957C212.17 232.957 211.961 233.011 211.792 233.118C211.623 233.226 211.495 233.375 211.409 233.565C211.323 233.753 211.28 233.968 211.28 234.21H210.17C210.17 233.82 210.259 233.464 210.437 233.141C210.615 232.816 210.873 232.557 211.211 232.367C211.549 232.173 211.956 232.077 212.432 232.077C212.881 232.077 213.262 232.152 213.575 232.302C213.888 232.453 214.127 232.667 214.289 232.943C214.455 233.22 214.538 233.547 214.538 233.925C214.538 234.133 214.504 234.341 214.437 234.547C214.369 234.753 214.272 234.958 214.146 235.164C214.024 235.367 213.878 235.571 213.709 235.777C213.54 235.98 213.354 236.186 213.151 236.395L211.7 237.994H214.796ZM216.769 237.809L216.764 238.602C216.764 238.915 216.686 239.238 216.529 239.57C216.372 239.901 216.165 240.175 215.907 240.39L215.312 240.044C215.398 239.906 215.477 239.766 215.547 239.625C215.618 239.484 215.675 239.333 215.718 239.173C215.761 239.014 215.782 238.837 215.782 238.643V237.809H216.769ZM222.395 236.487V237.372H217.557L217.52 236.703L220.414 232.169H221.303L220.34 233.819L218.676 236.487H222.395ZM221.556 232.169V238.878H220.446V232.169H221.556ZM227.635 237.994V238.878H223.137V238.118L225.321 235.736C225.561 235.465 225.75 235.232 225.888 235.035C226.026 234.839 226.123 234.662 226.179 234.505C226.237 234.345 226.266 234.19 226.266 234.04C226.266 233.828 226.226 233.642 226.146 233.482C226.069 233.319 225.956 233.192 225.805 233.1C225.655 233.004 225.472 232.957 225.257 232.957C225.008 232.957 224.799 233.011 224.63 233.118C224.461 233.226 224.334 233.375 224.248 233.565C224.162 233.753 224.119 233.968 224.119 234.21H223.008C223.008 233.82 223.097 233.464 223.275 233.141C223.454 232.816 223.712 232.557 224.05 232.367C224.387 232.173 224.795 232.077 225.271 232.077C225.719 232.077 226.1 232.152 226.414 232.302C226.727 232.453 226.965 232.667 227.128 232.943C227.294 233.22 227.377 233.547 227.377 233.925C227.377 234.133 227.343 234.341 227.275 234.547C227.208 234.753 227.111 234.958 226.985 235.164C226.862 235.367 226.716 235.571 226.547 235.777C226.378 235.98 226.192 236.186 225.99 236.395L224.538 237.994H227.635ZM229.805 235.021H230.469C230.727 235.021 230.94 234.977 231.109 234.888C231.281 234.799 231.409 234.676 231.492 234.519C231.575 234.362 231.616 234.183 231.616 233.98C231.616 233.768 231.578 233.587 231.501 233.436C231.427 233.282 231.314 233.164 231.16 233.081C231.009 232.998 230.817 232.957 230.584 232.957C230.387 232.957 230.209 232.997 230.049 233.077C229.893 233.153 229.768 233.264 229.676 233.408C229.584 233.55 229.538 233.719 229.538 233.915H228.423C228.423 233.559 228.516 233.243 228.704 232.966C228.891 232.69 229.146 232.473 229.469 232.316C229.794 232.157 230.16 232.077 230.566 232.077C230.999 232.077 231.377 232.149 231.699 232.293C232.025 232.435 232.278 232.647 232.46 232.929C232.641 233.212 232.731 233.562 232.731 233.98C232.731 234.17 232.687 234.364 232.598 234.561C232.509 234.757 232.377 234.937 232.201 235.1C232.026 235.259 231.808 235.39 231.547 235.491C231.286 235.59 230.983 235.639 230.639 235.639H229.805V235.021ZM229.805 235.888V235.279H230.639C231.033 235.279 231.367 235.325 231.644 235.418C231.923 235.51 232.151 235.637 232.326 235.8C232.501 235.96 232.629 236.143 232.708 236.349C232.791 236.554 232.833 236.772 232.833 237.003C232.833 237.316 232.776 237.596 232.662 237.842C232.552 238.084 232.394 238.29 232.188 238.459C231.982 238.628 231.741 238.756 231.464 238.842C231.191 238.928 230.893 238.971 230.57 238.971C230.281 238.971 230.005 238.931 229.741 238.851C229.476 238.771 229.24 238.653 229.031 238.496C228.822 238.336 228.656 238.138 228.533 237.901C228.414 237.662 228.354 237.385 228.354 237.072H229.464C229.464 237.272 229.51 237.448 229.602 237.602C229.698 237.752 229.83 237.871 229.999 237.957C230.171 238.043 230.367 238.086 230.589 238.086C230.822 238.086 231.023 238.044 231.192 237.961C231.361 237.878 231.49 237.756 231.579 237.593C231.672 237.43 231.718 237.233 231.718 237.003C231.718 236.742 231.667 236.53 231.566 236.367C231.464 236.204 231.32 236.084 231.132 236.007C230.945 235.928 230.724 235.888 230.469 235.888H229.805Z" fill="black" fill-opacity="0.87"/>
<rect x="269.312" y="219.261" width="4.71882" height="4.71882" rx="2.35941" fill="#5388D8"/>
<path d="M285.705 221.983L287.029 217.87H287.986L286.182 222.902H285.536L285.705 221.983ZM284.481 217.87L285.795 221.983L285.974 222.902H285.325L283.528 217.87H284.481ZM290.416 222.152V220.368C290.416 220.235 290.391 220.12 290.343 220.023C290.295 219.926 290.221 219.851 290.122 219.798C290.025 219.745 289.903 219.719 289.756 219.719C289.62 219.719 289.502 219.742 289.403 219.788C289.304 219.834 289.227 219.896 289.171 219.974C289.116 220.053 289.088 220.142 289.088 220.241H288.259C288.259 220.093 288.295 219.95 288.366 219.812C288.438 219.674 288.541 219.551 288.677 219.442C288.813 219.334 288.976 219.249 289.165 219.186C289.353 219.124 289.565 219.093 289.8 219.093C290.082 219.093 290.33 219.14 290.547 219.235C290.766 219.329 290.938 219.472 291.062 219.663C291.189 219.852 291.252 220.09 291.252 220.375V222.038C291.252 222.208 291.264 222.362 291.287 222.497C291.312 222.631 291.348 222.747 291.394 222.847V222.902H290.54C290.501 222.812 290.47 222.698 290.447 222.56C290.426 222.419 290.416 222.283 290.416 222.152ZM290.537 220.628L290.544 221.143H289.946C289.791 221.143 289.655 221.158 289.538 221.188C289.42 221.215 289.322 221.257 289.244 221.312C289.166 221.367 289.107 221.434 289.068 221.512C289.029 221.591 289.009 221.68 289.009 221.779C289.009 221.878 289.032 221.969 289.078 222.052C289.124 222.132 289.191 222.196 289.279 222.242C289.368 222.288 289.477 222.311 289.603 222.311C289.774 222.311 289.923 222.276 290.049 222.207C290.178 222.136 290.28 222.049 290.353 221.948C290.427 221.844 290.466 221.746 290.471 221.654L290.741 222.024C290.713 222.118 290.666 222.22 290.599 222.328C290.532 222.436 290.444 222.54 290.336 222.639C290.23 222.736 290.102 222.815 289.953 222.878C289.805 222.94 289.635 222.971 289.441 222.971C289.197 222.971 288.979 222.923 288.788 222.826C288.597 222.727 288.447 222.594 288.338 222.428C288.23 222.26 288.176 222.07 288.176 221.858C288.176 221.66 288.213 221.485 288.287 221.333C288.363 221.178 288.473 221.049 288.618 220.946C288.766 220.842 288.946 220.764 289.158 220.711C289.37 220.655 289.612 220.628 289.883 220.628H290.537ZM293.015 217.593V222.902H292.178V217.593H293.015ZM296.177 222.021V219.162H297.013V222.902H296.225L296.177 222.021ZM296.295 221.243L296.575 221.236C296.575 221.487 296.547 221.719 296.492 221.931C296.436 222.14 296.351 222.324 296.236 222.48C296.121 222.635 295.973 222.756 295.793 222.843C295.614 222.928 295.398 222.971 295.147 222.971C294.965 222.971 294.798 222.944 294.646 222.891C294.494 222.838 294.363 222.757 294.252 222.646C294.144 222.536 294.06 222.391 294 222.214C293.94 222.037 293.91 221.825 293.91 221.578V219.162H294.743V221.585C294.743 221.721 294.759 221.835 294.791 221.927C294.823 222.017 294.867 222.09 294.922 222.145C294.978 222.2 295.042 222.239 295.116 222.262C295.19 222.286 295.268 222.297 295.351 222.297C295.588 222.297 295.775 222.251 295.911 222.159C296.049 222.064 296.147 221.938 296.205 221.779C296.265 221.62 296.295 221.441 296.295 221.243ZM299.516 222.971C299.239 222.971 298.989 222.926 298.766 222.836C298.545 222.744 298.356 222.616 298.199 222.453C298.045 222.289 297.926 222.097 297.843 221.875C297.76 221.654 297.719 221.416 297.719 221.16V221.022C297.719 220.729 297.761 220.464 297.846 220.227C297.932 219.989 298.05 219.787 298.202 219.618C298.354 219.448 298.534 219.318 298.742 219.228C298.949 219.138 299.174 219.093 299.416 219.093C299.683 219.093 299.917 219.138 300.117 219.228C300.318 219.318 300.483 219.445 300.615 219.608C300.748 219.769 300.848 219.962 300.912 220.185C300.979 220.409 301.012 220.655 301.012 220.925V221.281H298.123V220.683H300.19V220.617C300.185 220.468 300.155 220.327 300.1 220.196C300.047 220.064 299.965 219.958 299.854 219.878C299.744 219.797 299.596 219.757 299.412 219.757C299.274 219.757 299.151 219.787 299.042 219.847C298.936 219.904 298.848 219.988 298.776 220.099C298.705 220.21 298.649 220.343 298.61 220.5C298.573 220.654 298.555 220.828 298.555 221.022V221.16C298.555 221.324 298.577 221.476 298.621 221.616C298.667 221.754 298.733 221.875 298.821 221.979C298.909 222.083 299.015 222.165 299.139 222.224C299.263 222.282 299.405 222.311 299.564 222.311C299.765 222.311 299.943 222.271 300.1 222.19C300.257 222.109 300.392 221.995 300.508 221.848L300.947 222.273C300.866 222.39 300.761 222.503 300.632 222.612C300.503 222.718 300.345 222.804 300.159 222.871C299.974 222.938 299.76 222.971 299.516 222.971ZM305.101 220.42V221.084H303.273V220.42H305.101ZM310.824 219.964V220.787C310.824 221.181 310.785 221.517 310.707 221.796C310.631 222.072 310.52 222.297 310.375 222.47C310.23 222.643 310.056 222.769 309.853 222.85C309.653 222.931 309.428 222.971 309.179 222.971C308.981 222.971 308.797 222.946 308.626 222.895C308.458 222.844 308.306 222.765 308.17 222.656C308.034 222.548 307.918 222.409 307.821 222.238C307.726 222.065 307.653 221.859 307.6 221.62C307.549 221.38 307.524 221.102 307.524 220.787V219.964C307.524 219.568 307.563 219.234 307.641 218.962C307.72 218.688 307.831 218.465 307.976 218.295C308.122 218.122 308.294 217.996 308.495 217.918C308.698 217.84 308.923 217.801 309.172 217.801C309.373 217.801 309.557 217.826 309.725 217.877C309.896 217.925 310.048 218.002 310.181 218.108C310.317 218.214 310.433 218.352 310.527 218.523C310.624 218.691 310.698 218.895 310.748 219.135C310.799 219.372 310.824 219.648 310.824 219.964ZM309.991 220.904V219.84C309.991 219.639 309.98 219.463 309.957 219.311C309.934 219.157 309.899 219.026 309.853 218.92C309.809 218.812 309.754 218.725 309.687 218.658C309.62 218.589 309.544 218.539 309.459 218.509C309.374 218.477 309.278 218.461 309.172 218.461C309.043 218.461 308.928 218.486 308.827 218.537C308.725 218.585 308.64 218.663 308.571 218.772C308.502 218.88 308.449 219.023 308.412 219.2C308.377 219.375 308.36 219.589 308.36 219.84V220.904C308.36 221.107 308.372 221.286 308.395 221.44C308.418 221.594 308.452 221.727 308.498 221.837C308.544 221.946 308.6 222.036 308.664 222.107C308.731 222.176 308.807 222.227 308.892 222.259C308.98 222.291 309.075 222.307 309.179 222.307C309.311 222.307 309.427 222.282 309.528 222.231C309.63 222.181 309.715 222.1 309.784 221.989C309.853 221.877 309.905 221.73 309.94 221.55C309.974 221.371 309.991 221.155 309.991 220.904ZM313.842 217.852V222.902H313.009V218.841L311.775 219.259V218.571L313.741 217.852H313.842ZM317.344 221.246V221.197C317.344 220.786 317.389 220.413 317.477 220.079C317.567 219.743 317.684 219.45 317.828 219.198C317.972 218.945 318.126 218.735 318.289 218.57C318.454 218.403 318.613 218.283 318.764 218.21L318.903 218.608C318.791 218.69 318.68 218.804 318.568 218.95C318.459 219.096 318.358 219.276 318.266 219.489C318.176 219.7 318.103 219.948 318.047 220.232C317.993 220.514 317.966 220.834 317.966 221.191V221.252C317.966 221.609 317.993 221.929 318.047 222.214C318.103 222.496 318.176 222.743 318.266 222.957C318.358 223.17 318.459 223.35 318.568 223.498C318.68 223.648 318.791 223.767 318.903 223.855L318.764 224.235C318.613 224.16 318.454 224.04 318.289 223.872C318.126 223.707 317.972 223.498 317.828 223.245C317.684 222.993 317.567 222.7 317.477 222.366C317.389 222.03 317.344 221.657 317.344 221.246ZM320.118 218.478V222.902H319.421V218.478H320.118ZM322.307 219.786V220.292H320.55V219.786H322.307ZM321.057 219.022H321.751V222.041C321.751 222.137 321.764 222.211 321.791 222.262C321.82 222.312 321.859 222.346 321.909 222.363C321.959 222.381 322.018 222.389 322.085 222.389C322.133 222.389 322.179 222.386 322.223 222.381C322.267 222.375 322.303 222.369 322.33 222.363L322.333 222.893C322.275 222.91 322.208 222.926 322.131 222.939C322.056 222.953 321.97 222.959 321.872 222.959C321.713 222.959 321.571 222.932 321.449 222.876C321.326 222.818 321.23 222.725 321.161 222.597C321.091 222.468 321.057 222.297 321.057 222.084V219.022ZM324.182 221.197V221.246C324.182 221.651 324.136 222.021 324.044 222.355C323.953 222.689 323.835 222.982 323.689 223.236C323.545 223.489 323.389 223.701 323.22 223.87C323.053 224.039 322.892 224.16 322.739 224.235L322.598 223.855C322.709 223.771 322.82 223.655 322.929 223.507C323.04 223.361 323.141 223.179 323.231 222.962C323.324 222.747 323.397 222.498 323.45 222.214C323.506 221.929 323.534 221.609 323.534 221.252V221.191C323.534 220.834 323.505 220.513 323.447 220.229C323.392 219.943 323.317 219.693 323.223 219.48C323.129 219.265 323.027 219.084 322.917 218.936C322.808 218.788 322.701 218.673 322.598 218.59L322.739 218.21C322.892 218.283 323.053 218.404 323.22 218.573C323.389 218.742 323.545 218.954 323.689 219.21C323.835 219.463 323.953 219.757 324.044 220.091C324.136 220.425 324.182 220.794 324.182 221.197Z" fill="black" fill-opacity="0.38"/>
<path d="M287.008 232.146V238.878H285.897V233.464L284.252 234.021V233.104L286.874 232.146H287.008ZM293.837 237.994V238.878H289.34V238.118L291.524 235.736C291.764 235.465 291.952 235.232 292.091 235.035C292.229 234.839 292.326 234.662 292.381 234.505C292.439 234.345 292.469 234.19 292.469 234.04C292.469 233.828 292.429 233.642 292.349 233.482C292.272 233.319 292.158 233.192 292.008 233.1C291.857 233.004 291.674 232.957 291.459 232.957C291.211 232.957 291.002 233.011 290.833 233.118C290.664 233.226 290.536 233.375 290.45 233.565C290.364 233.753 290.321 233.968 290.321 234.21H289.211C289.211 233.82 289.3 233.464 289.478 233.141C289.656 232.816 289.914 232.557 290.252 232.367C290.59 232.173 290.997 232.077 291.473 232.077C291.922 232.077 292.303 232.152 292.616 232.302C292.929 232.453 293.168 232.667 293.33 232.943C293.496 233.22 293.579 233.547 293.579 233.925C293.579 234.133 293.545 234.341 293.478 234.547C293.41 234.753 293.313 234.958 293.187 235.164C293.065 235.367 292.919 235.571 292.75 235.777C292.581 235.98 292.395 236.186 292.192 236.395L290.741 237.994H293.837ZM295.81 237.809L295.805 238.602C295.805 238.915 295.727 239.238 295.57 239.57C295.413 239.901 295.206 240.175 294.948 240.39L294.353 240.044C294.439 239.906 294.518 239.766 294.588 239.625C294.659 239.484 294.716 239.333 294.759 239.173C294.802 239.014 294.823 238.837 294.823 238.643V237.809H295.81ZM301.436 236.487V237.372H296.598L296.561 236.703L299.455 232.169H300.344L299.381 233.819L297.717 236.487H301.436ZM300.598 232.169V238.878H299.487V232.169H300.598ZM306.676 237.994V238.878H302.178V238.118L304.362 235.736C304.602 235.465 304.791 235.232 304.929 235.035C305.067 234.839 305.164 234.662 305.22 234.505C305.278 234.345 305.307 234.19 305.307 234.04C305.307 233.828 305.267 233.642 305.187 233.482C305.111 233.319 304.997 233.192 304.846 233.1C304.696 233.004 304.513 232.957 304.298 232.957C304.049 232.957 303.84 233.011 303.671 233.118C303.502 233.226 303.375 233.375 303.289 233.565C303.203 233.753 303.16 233.968 303.16 234.21H302.049C302.049 233.82 302.138 233.464 302.316 233.141C302.495 232.816 302.753 232.557 303.091 232.367C303.428 232.173 303.836 232.077 304.312 232.077C304.76 232.077 305.141 232.152 305.455 232.302C305.768 232.453 306.006 232.667 306.169 232.943C306.335 233.22 306.418 233.547 306.418 233.925C306.418 234.133 306.384 234.341 306.316 234.547C306.249 234.753 306.152 234.958 306.026 235.164C305.903 235.367 305.757 235.571 305.588 235.777C305.419 235.98 305.233 236.186 305.031 236.395L303.579 237.994H306.676ZM308.846 235.021H309.51C309.768 235.021 309.981 234.977 310.15 234.888C310.322 234.799 310.45 234.676 310.533 234.519C310.616 234.362 310.657 234.183 310.657 233.98C310.657 233.768 310.619 233.587 310.542 233.436C310.468 233.282 310.355 233.164 310.201 233.081C310.051 232.998 309.859 232.957 309.625 232.957C309.428 232.957 309.25 232.997 309.09 233.077C308.934 233.153 308.809 233.264 308.717 233.408C308.625 233.55 308.579 233.719 308.579 233.915H307.464C307.464 233.559 307.557 233.243 307.745 232.966C307.932 232.69 308.187 232.473 308.51 232.316C308.835 232.157 309.201 232.077 309.607 232.077C310.04 232.077 310.418 232.149 310.74 232.293C311.066 232.435 311.319 232.647 311.501 232.929C311.682 233.212 311.772 233.562 311.772 233.98C311.772 234.17 311.728 234.364 311.639 234.561C311.55 234.757 311.418 234.937 311.243 235.1C311.067 235.259 310.849 235.39 310.588 235.491C310.327 235.59 310.024 235.639 309.68 235.639H308.846V235.021ZM308.846 235.888V235.279H309.68C310.074 235.279 310.408 235.325 310.685 235.418C310.964 235.51 311.192 235.637 311.367 235.8C311.542 235.96 311.67 236.143 311.749 236.349C311.832 236.554 311.874 236.772 311.874 237.003C311.874 237.316 311.817 237.596 311.703 237.842C311.593 238.084 311.435 238.29 311.229 238.459C311.023 238.628 310.782 238.756 310.505 238.842C310.232 238.928 309.934 238.971 309.611 238.971C309.322 238.971 309.046 238.931 308.782 238.851C308.518 238.771 308.281 238.653 308.072 238.496C307.863 238.336 307.697 238.138 307.574 237.901C307.455 237.662 307.395 237.385 307.395 237.072H308.505C308.505 237.272 308.551 237.448 308.643 237.602C308.739 237.752 308.871 237.871 309.04 237.957C309.212 238.043 309.408 238.086 309.63 238.086C309.863 238.086 310.064 238.044 310.233 237.961C310.402 237.878 310.531 237.756 310.62 237.593C310.713 237.43 310.759 237.233 310.759 237.003C310.759 236.742 310.708 236.53 310.607 236.367C310.505 236.204 310.361 236.084 310.173 236.007C309.986 235.928 309.765 235.888 309.51 235.888H308.846Z" fill="black" fill-opacity="0.87"/>
</g>
<defs>
<filter id="filter0_d_1843_3304" x="0" y="0.328613" width="354" height="308.751" filterUnits="userSpaceOnUse" color-interpolation-filters="sRGB">
<feFlood flood-opacity="0" result="BackgroundImageFix"/>
<feColorMatrix in="SourceAlpha" type="matrix" values="0 0 0 0 0 0 0 0 0 0 0 0 0 0 0 0 0 0 127 0" result="hardAlpha"/>
<feOffset dy="4"/>
<feGaussianBlur stdDeviation="2"/>
<feComposite in2="hardAlpha" operator="out"/>
<feColorMatrix type="matrix" values="0 0 0 0 0 0 0 0 0 0 0 0 0 0 0 0 0 0 0.1 0"/>
<feBlend mode="normal" in2="BackgroundImageFix" result="effect1_dropShadow_1843_3304"/>
<feBlend mode="normal" in="SourceGraphic" in2="effect1_dropShadow_1843_3304" result="shape"/>
</filter>
</defs>
</svg>
