<svg width="20" height="25" viewBox="0 0 41 25" fill="none" xmlns="http://www.w3.org/2000/svg">
<path d="M20.5331 21.0699C21.7235 21.0699 22.7844 20.8806 23.7542 20.5503L17.4023 20.7823C18.1615 20.9347 19.0839 21.0353 20.2266 21.0658C20.3298 21.0684 20.4317 21.0699 20.5331 21.0699Z" fill="#FFB803"/>
<path d="M24.735 21.5774C23.4963 22.0746 22.1159 22.3726 20.5307 22.3726C20.4178 22.3726 20.3025 22.3712 20.1881 22.368C18.6437 22.3267 17.3849 22.1645 16.3338 21.8679C15.5919 22.4436 14.7699 22.8666 14.322 23.2045C13.6308 23.7261 13.7372 24.4041 16.3957 24.2998C19.0542 24.1954 28.187 24.9857 27.775 23.9346C27.585 23.4487 25.8865 22.488 24.7352 21.5774L24.735 21.5774Z" fill="#FFB803"/>
<path d="M28.5762 9.77687V9.77588L28.5742 9.77687H28.5762Z" fill="#FFB803"/>
<path d="M20.5968 9.41887C22.998 9.41887 25.3773 9.15661 27.6692 8.63903C23.911 4.79813 16.9433 6.69156 15.9166 6.93347C15.1583 7.11228 14.1553 7.88889 13.4297 8.73036C15.5491 9.11067 17.9417 9.41887 20.597 9.41887H20.5968Z" fill="#FFB803"/>
<path d="M20.9317 4.9507C22.0287 4.9507 23.0522 5.05857 23.9963 5.26966C23.4539 4.4768 22.6435 3.67024 21.3965 3.54028C19.522 3.3446 17.8267 4.41107 16.8945 5.37491C17.9006 5.17225 19.3373 4.9507 20.9317 4.9507Z" fill="#FFB803"/>
<path d="M20.9439 2.21463C21.1417 2.21463 21.3411 2.22509 21.5365 2.24544C21.7508 2.26783 21.9601 2.30447 22.1646 2.35535C22.48 1.40313 22.3641 0.592475 20.6093 0.515735C19.0066 0.445663 19.2669 1.60283 19.6086 2.36786C20.0262 2.27307 20.4723 2.21463 20.9439 2.21463Z" fill="#FFB803"/>
<path d="M40.9996 9.90308C40.9296 9.27709 36.2839 8.02536 27.9888 9.90308C19.6941 11.7808 12.8875 9.95513 8.58042 9.06861C4.2735 8.18182 5.70904 6.09568 2.14645 7.29532C-1.41614 8.49496 0.179131 12.2503 1.77416 14.5974C3.36943 16.9443 7.35741 13.2413 7.78281 13.3977C8.78977 13.7681 10.8667 16.0055 12.5684 17.4659C14.2698 18.9264 14.3762 20.9085 20.2257 21.0649C26.0748 21.2214 28.8398 16.8923 32.7743 13.3976C36.7092 9.90301 41.0697 10.529 40.9992 9.90301L40.9996 9.90308ZM3.2148 12.5571C2.55083 11.9703 1.89809 10.9943 2.58284 9.90948C3.19346 8.94215 5.00576 9.17068 5.47972 10.4622C5.95369 11.7538 4.24194 13.4648 3.2148 12.5571Z" fill="#FFB803"/>
</svg>
