<svg width="11" height="15" viewBox="0 0 11 15" fill="none" xmlns="http://www.w3.org/2000/svg">
<path d="M5.50033 7.14579C5.03067 7.14579 4.58025 6.95922 4.24816 6.62713C3.91606 6.29503 3.72949 5.84461 3.72949 5.37496C3.72949 4.9053 3.91606 4.45489 4.24816 4.12279C4.58025 3.7907 5.03067 3.60413 5.50033 3.60413C5.96998 3.60413 6.4204 3.7907 6.75249 4.12279C7.08459 4.45489 7.27116 4.9053 7.27116 5.37496C7.27116 5.60751 7.22536 5.83778 7.13636 6.05263C7.04737 6.26748 6.91693 6.46269 6.75249 6.62713C6.58806 6.79156 6.39284 6.922 6.17799 7.011C5.96315 7.09999 5.73287 7.14579 5.50033 7.14579ZM5.50033 0.416626C4.18529 0.416626 2.92412 0.93902 1.99425 1.86889C1.06439 2.79876 0.541992 4.05993 0.541992 5.37496C0.541992 9.09371 5.50033 14.5833 5.50033 14.5833C5.50033 14.5833 10.4587 9.09371 10.4587 5.37496C10.4587 4.05993 9.93626 2.79876 9.0064 1.86889C8.07653 0.93902 6.81536 0.416626 5.50033 0.416626Z" fill="#121212"/>
</svg>
