<svg width="137" height="35" viewBox="0 0 137 35" fill="none" xmlns="http://www.w3.org/2000/svg">
<path d="M0.760032 17.3561C0.760032 13.6669 0.760032 9.97799 0.760032 6.28924C0.760032 5.14322 0.930075 4.02158 1.45496 2.98721C2.20443 1.51136 3.42617 0.620726 5.01944 0.228024C5.68549 0.0631149 6.36695 0.0149896 7.05225 0.0156313C12.8132 0.0211925 18.5743 0.0222619 24.3356 0.0188396C24.8554 0.0188396 24.8554 0.0188397 24.8554 0.535384C24.8554 2.40649 24.8252 4.2776 24.865 6.14807C24.9003 7.8254 23.8916 8.60631 22.4049 8.66599C21.8915 8.68652 21.375 8.67112 20.8597 8.67112H10.3594C9.89999 8.67112 9.8987 8.67112 9.8987 9.12029C9.8987 14.5437 9.8987 19.9671 9.8987 25.3905C9.8987 25.8101 9.90576 25.8178 10.3184 25.8178H26.7823C27.1943 25.8178 27.2007 25.8101 27.2007 25.3892C27.2007 21.5529 27.2007 17.7165 27.2007 13.8802C27.2008 13.5754 27.2255 13.2711 27.2745 12.9703C27.4561 11.8281 28.1356 11.191 29.3464 11.0158C29.6583 10.9695 29.9732 10.9464 30.2884 10.9465C32.1281 10.951 33.9678 10.9548 35.8068 10.9426C36.1199 10.9426 36.2226 11.0299 36.2226 11.352C36.2136 17.0488 36.2296 22.7455 36.2065 28.4416C36.2001 29.9367 35.629 31.2714 34.637 32.3738C33.4089 33.7437 31.8406 34.4412 29.9791 34.474C23.7665 34.5818 17.5538 34.5234 11.3412 34.5099C10.0181 34.5067 8.693 34.4707 7.36924 34.4778C5.46604 34.4887 3.89267 33.7585 2.51115 32.4886C1.26439 31.3394 0.750407 29.9264 0.756182 28.2658C0.768374 24.6275 0.760032 20.9931 0.760032 17.3561Z" fill="#38B990"/>
<path d="M36.2228 5.19561C35.9585 3.74928 35.3476 2.49417 34.1727 1.54258C33.1916 0.746904 32.0969 0.243193 30.845 0.102667C30.3958 0.0519752 29.9402 0.0577503 29.4904 0H27.3485C27.3485 0.504353 27.3485 1.00849 27.3485 1.51242C27.3485 3.16151 27.3428 4.81124 27.3537 6.46034C27.3601 7.47995 27.8401 8.2506 28.6056 8.49251C29.0357 8.6323 29.4848 8.70459 29.937 8.70683C32.0809 8.69913 34.224 8.70362 36.3679 8.70362V7.00063C36.3005 6.39938 36.3319 5.78723 36.2228 5.19561Z" fill="#38B990"/>
<path d="M58.5418 11.1323V12.4739H55.0971V23.7688H53.4473V12.4739H49.9845V11.1323H58.5418ZM67.2262 23.7688L64.2167 18.6018H62.2224V23.7688H60.5726V11.1323H64.6518C65.6066 11.1323 66.4104 11.2955 67.0631 11.6218C67.7278 11.9481 68.2234 12.3893 68.5497 12.9453C68.8761 13.5013 69.0392 14.1358 69.0392 14.8489C69.0392 15.7192 68.7854 16.4866 68.2778 17.1514C67.7822 17.8162 67.0329 18.2573 66.0297 18.4749L69.2024 23.7688H67.2262ZM62.2224 17.2783H64.6518C65.5462 17.2783 66.217 17.0608 66.6642 16.6256C67.1114 16.1784 67.335 15.5862 67.335 14.8489C67.335 14.0996 67.1114 13.5194 66.6642 13.1085C66.2291 12.6975 65.5583 12.492 64.6518 12.492H62.2224V17.2783ZM79.0722 20.9587H73.5608L72.5455 23.7688H70.805L75.3738 11.2048H77.2774L81.828 23.7688H80.0875L79.0722 20.9587ZM78.6009 19.6171L76.3165 13.2354L74.0322 19.6171H78.6009ZM87.7533 11.1323C89.1312 11.1323 90.3217 11.3922 91.3249 11.9119C92.3402 12.4195 93.1137 13.1508 93.6455 14.1056C94.1894 15.0604 94.4614 16.1845 94.4614 17.4777C94.4614 18.771 94.1894 19.8951 93.6455 20.8499C93.1137 21.7926 92.3402 22.5178 91.3249 23.0255C90.3217 23.521 89.1312 23.7688 87.7533 23.7688H83.8191V11.1323H87.7533ZM87.7533 22.4091C89.385 22.4091 90.6299 21.98 91.4881 21.1218C92.3462 20.2516 92.7753 19.0369 92.7753 17.4777C92.7753 15.9065 92.3402 14.6797 91.4699 13.7974C90.6118 12.9151 89.3729 12.4739 87.7533 12.4739H85.469V22.4091H87.7533ZM98.2873 12.4739V16.6982H102.892V18.0579H98.2873V22.4091H103.436V23.7688H96.6375V11.1142H103.436V12.4739H98.2873ZM112.296 11.1323V20.4692C112.296 21.5086 111.976 22.3426 111.335 22.9711C110.695 23.5875 109.849 23.8957 108.797 23.8957C107.733 23.8957 106.881 23.5815 106.241 22.953C105.6 22.3124 105.28 21.4421 105.28 20.3423H106.93C106.942 20.9587 107.099 21.4603 107.401 21.847C107.715 22.2338 108.181 22.4272 108.797 22.4272C109.414 22.4272 109.873 22.2459 110.175 21.8833C110.477 21.5086 110.628 21.0372 110.628 20.4692V11.1323H112.296ZM117.196 11.1323V23.7688H115.546V11.1323H117.196ZM129.943 23.7688H128.293L121.658 13.7067V23.7688H120.008V11.1142H121.658L128.293 21.1581V11.1142H129.943V23.7688ZM134.405 11.1323V23.7688H132.756V11.1323H134.405Z" fill="#23AC80"/>
</svg>
