<svg width="222" height="222" viewBox="0 0 222 222" fill="none" xmlns="http://www.w3.org/2000/svg">
<path d="M107.188 88.0176C80.4932 102.727 53.7987 77.7689 7.18555 91.2864V129.932C53.7987 116.415 80.4932 141.373 107.188 126.697V88.0176Z" fill="#4AA435"/>
<path d="M211.479 88.0177H107.187V126.561H211.479V88.0177Z" fill="#005DA0"/>
<path d="M19.068 116.244H15.1523V101.262H18.8977V103.101C19.2723 102.42 19.8511 101.875 20.6683 101.467C21.4855 101.058 22.3027 100.854 23.1539 100.854C25.2649 100.854 26.695 101.671 27.4441 103.339C28.4996 101.671 30.0318 100.854 32.0407 100.854C33.5048 100.854 34.7646 101.331 35.7861 102.284C36.8076 103.237 37.3183 104.667 37.3183 106.54V116.244H33.5048V107.357C33.5048 106.506 33.3005 105.825 32.8579 105.314C32.4493 104.804 31.8023 104.531 30.9171 104.531C30.0999 104.531 29.453 104.804 28.9763 105.382C28.4996 105.961 28.2272 106.642 28.2272 107.493V116.244H24.3456V107.357C24.3456 106.506 24.1413 105.825 23.6987 105.314C23.256 104.804 22.6091 104.531 21.7919 104.531C20.9747 104.531 20.2938 104.804 19.8171 105.382C19.3063 105.927 19.068 106.642 19.068 107.493" fill="white"/>
<path d="M42.3227 103.067C43.7528 101.569 45.5914 100.82 47.7705 100.82C49.9497 100.82 51.7543 101.569 53.2184 103.067C54.6485 104.565 55.3975 106.472 55.3975 108.753C55.3975 111.034 54.6825 112.941 53.2184 114.439C51.7543 115.937 49.9497 116.686 47.7705 116.686C45.5914 116.686 43.7868 115.937 42.3227 114.439C40.8926 112.941 40.1436 111.034 40.1436 108.753C40.1776 106.472 40.8926 104.565 42.3227 103.067ZM45.1828 111.886C45.8978 112.635 46.7831 113.009 47.8046 113.009C48.8261 113.009 49.7113 112.635 50.4264 111.886C51.1414 111.136 51.5159 110.081 51.5159 108.753C51.5159 107.425 51.1414 106.37 50.4264 105.621C49.7113 104.871 48.8261 104.497 47.8046 104.497C46.7831 104.497 45.8978 104.871 45.1828 105.621C44.4678 106.37 44.0932 107.425 44.0932 108.753C44.0932 110.115 44.4337 111.136 45.1828 111.886Z" fill="white"/>
<path d="M62.4127 107.63V116.244H58.4971V101.262H62.3106V103.101C62.7192 102.386 63.298 101.807 64.0811 101.433C64.8302 101.058 65.6474 100.854 66.4986 100.854C68.2011 100.854 69.529 101.399 70.4142 102.522C71.2995 103.612 71.7422 105.042 71.7422 106.812V116.244H67.7925V107.493C67.7925 106.608 67.5541 105.893 67.1455 105.348C66.7029 104.804 66.0219 104.531 65.1366 104.531C64.3195 104.531 63.6385 104.838 63.1618 105.416C62.6511 105.995 62.4127 106.744 62.4127 107.63Z" fill="white"/>
<path d="M85.4292 110.966L88.6979 111.953C88.2893 113.349 87.5402 114.473 86.3825 115.358C85.2249 116.244 83.7948 116.686 82.0924 116.686C80.0154 116.686 78.2448 115.971 76.7807 114.507C75.3166 113.043 74.6016 111.102 74.6016 108.685C74.6016 106.369 75.3166 104.463 76.7126 102.998C78.1427 101.534 79.8111 100.785 81.7178 100.785C83.9651 100.785 85.7016 101.466 86.9954 102.862C88.2552 104.258 88.9022 106.131 88.9022 108.548V109.093V109.57L88.8681 109.774H78.4832C78.5172 110.762 78.8917 111.579 79.6068 112.226C80.3218 112.873 81.173 113.213 82.1605 113.213C83.7948 113.247 84.9184 112.464 85.4292 110.966ZM78.5513 107.05H85.0546C85.0206 106.233 84.7141 105.518 84.2034 104.939C83.6586 104.36 82.8755 104.088 81.82 104.088C80.8666 104.088 80.1175 104.394 79.5046 105.007C78.9258 105.62 78.6194 106.301 78.5513 107.05Z" fill="white"/>
<path d="M96.8358 122.168H92.6478L96.0867 114.371L89.9238 101.262H94.3162L98.1637 110.047L101.739 101.262H105.927" fill="white"/>
<path d="M116.072 104.6C115.017 104.6 114.166 104.974 113.451 105.723C112.736 106.472 112.395 107.494 112.395 108.788C112.395 110.081 112.77 111.103 113.485 111.886C114.2 112.635 115.085 113.044 116.141 113.044C117.06 113.044 117.809 112.805 118.354 112.295C118.899 111.784 119.273 111.205 119.477 110.524L122.916 111.716C122.576 113.112 121.793 114.269 120.601 115.291C119.409 116.278 117.911 116.789 116.106 116.789C113.927 116.789 112.123 116.04 110.659 114.508C109.195 113.01 108.479 111.103 108.479 108.822C108.479 106.54 109.195 104.634 110.659 103.135C112.089 101.637 113.893 100.888 116.004 100.888C117.843 100.888 119.375 101.399 120.533 102.352C121.725 103.34 122.474 104.531 122.814 105.927L119.307 107.153C118.83 105.451 117.741 104.6 116.072 104.6Z" fill="white"/>
<path d="M126.697 103.101C128.127 101.603 129.965 100.854 132.145 100.854C134.324 100.854 136.128 101.603 137.592 103.101C139.057 104.599 139.772 106.506 139.772 108.787C139.772 111.069 139.057 112.975 137.592 114.474C136.162 115.972 134.324 116.721 132.145 116.721C129.965 116.721 128.161 115.972 126.697 114.474C125.267 112.975 124.518 111.069 124.518 108.787C124.552 106.506 125.267 104.599 126.697 103.101ZM129.523 111.954C130.238 112.703 131.123 113.078 132.145 113.078C133.166 113.078 134.051 112.703 134.766 111.954C135.481 111.205 135.856 110.149 135.856 108.821C135.856 107.493 135.481 106.438 134.766 105.689C134.051 104.94 133.166 104.565 132.145 104.565C131.123 104.565 130.238 104.94 129.523 105.689C128.808 106.438 128.433 107.493 128.433 108.821C128.467 110.149 128.808 111.205 129.523 111.954Z" fill="white"/>
<path d="M146.785 107.664V116.278H142.869V101.297H146.683V103.135C147.091 102.42 147.67 101.842 148.453 101.467C149.202 101.092 150.019 100.888 150.871 100.888C152.573 100.888 153.901 101.433 154.786 102.557C155.672 103.68 156.114 105.076 156.114 106.847V116.278H152.199V107.528C152.199 106.642 151.96 105.927 151.552 105.383C151.109 104.838 150.428 104.565 149.543 104.565C148.726 104.565 148.045 104.872 147.568 105.451C147.023 106.03 146.785 106.779 146.785 107.664Z" fill="white"/>
<path d="M164.901 96.8354V101.296H167.829V104.871H164.901V111.136C164.901 111.749 165.037 112.226 165.309 112.464C165.582 112.736 166.024 112.873 166.603 112.873C167.148 112.873 167.522 112.839 167.795 112.736V116.073C167.216 116.312 166.501 116.448 165.582 116.448C164.152 116.448 163.062 116.039 162.211 115.222C161.394 114.405 160.985 113.281 160.985 111.817V104.837H158.363V101.262H159.112C159.827 101.262 160.406 101.058 160.781 100.615C161.155 100.172 161.36 99.5934 161.36 98.8784V96.7673" fill="white"/>
<path d="M179.814 101.261V105.347C179.405 105.279 179.031 105.211 178.622 105.211C177.498 105.211 176.613 105.552 175.898 106.198C175.217 106.845 174.877 107.935 174.877 109.433V116.277H170.961V101.295H174.774V103.509C175.489 101.942 176.851 101.159 178.894 101.159C179.099 101.193 179.405 101.227 179.814 101.261Z" fill="white"/>
<path d="M183.49 103.101C184.92 101.603 186.758 100.854 188.938 100.854C191.117 100.854 192.921 101.603 194.385 103.101C195.815 104.599 196.565 106.506 196.565 108.787C196.565 111.069 195.85 112.975 194.385 114.474C192.955 115.972 191.117 116.721 188.938 116.721C186.758 116.721 184.954 115.972 183.49 114.474C182.06 112.975 181.311 111.069 181.311 108.787C181.345 106.506 182.06 104.599 183.49 103.101ZM186.35 111.954C187.065 112.703 187.95 113.078 188.972 113.078C189.993 113.078 190.844 112.703 191.593 111.954C192.308 111.205 192.683 110.149 192.683 108.821C192.683 107.493 192.308 106.438 191.593 105.689C190.878 104.94 189.993 104.565 188.972 104.565C187.95 104.565 187.065 104.94 186.35 105.689C185.635 106.438 185.26 107.493 185.26 108.821C185.26 110.149 185.601 111.205 186.35 111.954Z" fill="white"/>
<path d="M203.58 94.2471H199.664V116.277H203.58V94.2471Z" fill="white"/>
</svg>
