<svg width="69" height="69" viewBox="0 0 69 69" fill="none" xmlns="http://www.w3.org/2000/svg">
<path d="M34.1738 1.65804C34.2869 1.13134 35.0384 1.13134 35.1515 1.65804L40.6959 27.4777C40.8198 28.0547 41.2706 28.5054 41.8476 28.6293L67.6672 34.1738C68.1939 34.2869 68.1939 35.0384 67.6672 35.1515L41.8476 40.6959C41.2706 40.8198 40.8198 41.2706 40.6959 41.8476L35.1515 67.6672C35.0384 68.1939 34.2869 68.1939 34.1738 67.6672L28.6293 41.8476C28.5054 41.2706 28.0547 40.8198 27.4777 40.6959L1.65804 35.1515C1.13134 35.0384 1.13134 34.2869 1.65804 34.1738L27.4777 28.6293C28.0547 28.5054 28.5054 28.0547 28.6293 27.4777L34.1738 1.65804Z" stroke="#22B691"/>
</svg>
