<svg width="382" height="316" viewBox="0 0 382 316" fill="none" xmlns="http://www.w3.org/2000/svg">
<path d="M381.54 310.71C381.872 310.416 381.903 309.909 381.609 309.577L376.819 304.165C376.526 303.833 376.018 303.802 375.686 304.096C375.354 304.39 375.323 304.897 375.617 305.229L379.874 310.04L375.063 314.297C374.731 314.591 374.7 315.099 374.994 315.431C375.288 315.763 375.795 315.794 376.127 315.5L381.54 310.71ZM2.5099 7.51926C2.63766 7.94393 3.0855 8.1846 3.51019 8.05681C3.93487 7.92901 4.17558 7.48116 4.04782 7.05649L2.5099 7.51926ZM8.54034 20.836C8.39376 20.4175 7.93562 20.197 7.51706 20.3436C7.0985 20.4903 6.87801 20.9484 7.02459 21.3669L8.54034 20.836ZM12.0855 34.9521C12.2482 35.3647 12.7145 35.5672 13.1271 35.4045C13.5396 35.2418 13.7422 34.7754 13.5795 34.3629L12.0855 34.9521ZM19.132 47.7356C18.9548 47.329 18.4816 47.1431 18.0751 47.3204C17.6685 47.4976 17.4826 47.9708 17.6598 48.3773L19.132 47.7356ZM23.6948 61.6135C23.8854 62.014 24.3646 62.184 24.765 61.9934C25.1654 61.8028 25.3355 61.3236 25.1449 60.9232L23.6948 61.6135ZM31.5831 73.9086C31.3798 73.5145 30.8955 73.3598 30.5013 73.563C30.1072 73.7663 29.9524 74.2506 30.1556 74.6448L31.5831 73.9086ZM37.0187 87.461C37.2341 87.8487 37.7229 87.9883 38.1106 87.7729C38.4983 87.5575 38.638 87.0687 38.4227 86.681L37.0187 87.461ZM45.6476 99.2319C45.4206 98.8509 44.9277 98.7262 44.5467 98.9533C44.1658 99.1804 44.041 99.6733 44.2681 100.054L45.6476 99.2319ZM51.8927 112.417C52.1312 112.791 52.6276 112.9 53.0015 112.662C53.3755 112.423 53.4852 111.927 53.2468 111.553L51.8927 112.417ZM61.2124 123.636C60.9627 123.269 60.4632 123.175 60.0967 123.424C59.7301 123.674 59.6354 124.173 59.885 124.54L61.2124 123.636ZM68.2395 136.414C68.5001 136.773 69.0023 136.852 69.3611 136.592C69.7199 136.331 69.7994 135.829 69.5388 135.47L68.2395 136.414ZM78.2216 147.045C77.95 146.694 77.4457 146.63 77.095 146.901C76.7444 147.173 76.6802 147.677 76.9518 148.028L78.2216 147.045ZM86.0185 159.369C86.3007 159.711 86.8068 159.759 87.1489 159.477C87.491 159.195 87.5394 158.688 87.2572 158.346L86.0185 159.369ZM96.6422 169.362C96.3493 169.029 95.8419 168.996 95.5089 169.289C95.1759 169.582 95.1434 170.09 95.4363 170.422L96.6422 169.362ZM105.202 181.174C105.505 181.498 106.014 181.514 106.337 181.211C106.66 180.907 106.677 180.399 106.373 180.076L105.202 181.174ZM116.447 190.472C116.133 190.159 115.625 190.159 115.311 190.473C114.998 190.787 114.998 191.295 115.312 191.609L116.447 190.472ZM125.762 201.709C126.086 202.012 126.594 201.994 126.897 201.67C127.2 201.346 127.183 200.838 126.859 200.536L125.762 201.709ZM137.605 210.248C137.271 209.957 136.764 209.991 136.472 210.325C136.18 210.659 136.214 211.166 136.548 211.458L137.605 210.248ZM147.659 220.834C148.003 221.114 148.509 221.063 148.789 220.719C149.069 220.375 149.017 219.869 148.674 219.589L147.659 220.834ZM160.037 228.526C159.684 228.257 159.18 228.327 158.912 228.68C158.644 229.033 158.713 229.537 159.066 229.805L160.037 228.526ZM170.786 238.375C171.149 238.63 171.65 238.543 171.905 238.181C172.161 237.818 172.074 237.317 171.711 237.062L170.786 238.375ZM183.688 245.181C183.316 244.939 182.819 245.044 182.576 245.415C182.334 245.787 182.439 246.284 182.81 246.527L183.688 245.181ZM195.129 254.246C195.509 254.475 196.003 254.352 196.231 253.972C196.46 253.592 196.337 253.098 195.957 252.87L195.129 254.246ZM208.511 260.113C208.123 259.899 207.634 260.039 207.42 260.427C207.205 260.816 207.346 261.304 207.734 261.519L208.511 260.113ZM220.56 268.305C220.955 268.505 221.438 268.346 221.639 267.951C221.839 267.555 221.68 267.072 221.285 266.872L220.56 268.305ZM234.301 273.157C233.899 272.971 233.422 273.148 233.236 273.55C233.051 273.953 233.227 274.43 233.63 274.616L234.301 273.157ZM246.94 280.446C247.349 280.616 247.819 280.423 247.99 280.013C248.16 279.604 247.966 279.134 247.557 278.963L246.94 280.446ZM261.041 284.285C260.626 284.13 260.163 284.341 260.008 284.756C259.853 285.171 260.064 285.634 260.479 285.789L261.041 284.285ZM274.171 290.618C274.592 290.757 275.047 290.529 275.187 290.109C275.326 289.688 275.099 289.233 274.678 289.093L274.171 290.618ZM288.468 293.396C288.043 293.272 287.597 293.516 287.472 293.942C287.348 294.368 287.592 294.814 288.018 294.938L288.468 293.396ZM302.043 298.762C302.473 298.871 302.909 298.611 303.018 298.181C303.127 297.751 302.867 297.315 302.437 297.206L302.043 298.762ZM316.57 300.52C316.137 300.426 315.709 300.702 315.616 301.135C315.522 301.569 315.798 301.996 316.231 302.09L316.57 300.52ZM330.432 304.895C330.868 304.974 331.286 304.683 331.364 304.247C331.442 303.81 331.152 303.393 330.716 303.315L330.432 304.895ZM344.997 305.626C344.558 305.563 344.151 305.868 344.087 306.306C344.024 306.745 344.328 307.153 344.767 307.216L344.997 305.626ZM359.24 309.057C359.681 309.105 360.077 308.787 360.126 308.346C360.175 307.905 359.857 307.509 359.416 307.46L359.24 309.057ZM373.764 308.803C373.322 308.769 372.935 309.1 372.901 309.542C372.867 309.984 373.198 310.37 373.64 310.405L373.764 308.803ZM0.520334 0.594012C1.13693 2.84978 1.79996 5.15938 2.5099 7.51926L4.04782 7.05649C3.34168 4.70925 2.68241 2.41273 2.06951 0.170453L0.520334 0.594012ZM7.02459 21.3669C8.56649 25.7697 10.2526 30.3042 12.0855 34.9521L13.5795 34.3629C11.7541 29.7338 10.0752 25.2187 8.54034 20.836L7.02459 21.3669ZM17.6598 48.3773C19.5511 52.7166 21.5621 57.1331 23.6948 61.6135L25.1449 60.9232C23.0199 56.4588 21.0162 52.0585 19.132 47.7356L17.6598 48.3773ZM30.1556 74.6448C32.3379 78.8767 34.6251 83.1522 37.0187 87.461L38.4227 86.681C36.0372 82.3868 33.7578 78.1259 31.5831 73.9086L30.1556 74.6448ZM44.2681 100.054C46.7138 104.157 49.255 108.281 51.8927 112.417L53.2468 111.553C50.6178 107.431 48.0852 103.321 45.6476 99.2319L44.2681 100.054ZM59.885 124.54C62.5806 128.497 65.365 132.458 68.2395 136.414L69.5388 135.47C66.674 131.527 63.8989 127.58 61.2124 123.636L59.885 124.54ZM76.9518 148.028C79.8893 151.821 82.9112 155.604 86.0185 159.369L87.2572 158.346C84.1607 154.594 81.1491 150.825 78.2216 147.045L76.9518 148.028ZM95.4363 170.422C98.6103 174.031 101.865 177.617 105.202 181.174L106.373 180.076C103.049 176.531 99.8051 172.958 96.6422 169.362L95.4363 170.422ZM115.312 191.609C118.717 195.01 122.2 198.378 125.762 201.709L126.859 200.536C123.31 197.218 119.84 193.861 116.447 190.472L115.312 191.609ZM136.548 211.458C140.176 214.627 143.879 217.754 147.659 220.834L148.674 219.589C144.908 216.521 141.219 213.405 137.605 210.248L136.548 211.458ZM159.066 229.805C162.899 232.713 166.806 235.571 170.786 238.375L171.711 237.062C167.746 234.269 163.855 231.422 160.037 228.526L159.066 229.805ZM182.81 246.527C186.845 249.158 190.951 251.732 195.129 254.246L195.957 252.87C191.796 250.366 187.706 247.802 183.688 245.181L182.81 246.527ZM207.734 261.519C211.94 263.844 216.215 266.107 220.56 268.305L221.285 266.872C216.958 264.683 212.7 262.429 208.511 260.113L207.734 261.519ZM233.63 274.616C238 276.627 242.436 278.572 246.94 280.446L247.557 278.963C243.072 277.097 238.653 275.16 234.301 273.157L233.63 274.616ZM260.479 285.789C264.979 287.47 269.543 289.08 274.171 290.618L274.678 289.093C270.068 287.562 265.523 285.958 261.041 284.285L260.479 285.789ZM288.018 294.938C292.632 296.286 297.306 297.562 302.043 298.762L302.437 297.206C297.72 296.01 293.064 294.739 288.468 293.396L288.018 294.938ZM316.231 302.09C320.907 303.099 325.641 304.035 330.432 304.895L330.716 303.315C325.943 302.457 321.228 301.525 316.57 300.52L316.231 302.09ZM344.767 307.216C349.536 307.905 354.361 308.519 359.24 309.057L359.416 307.46C354.554 306.925 349.748 306.313 344.997 305.626L344.767 307.216ZM373.64 310.405C376.066 310.592 378.506 310.761 380.958 310.91L381.056 309.307C378.612 309.158 376.182 308.99 373.764 308.803L373.64 310.405Z" fill="#22B691"/>
</svg>
