<svg width="258" height="16" viewBox="0 0 258 16" fill="none" xmlns="http://www.w3.org/2000/svg">
<path d="M0.292893 7.29289C-0.0976311 7.68342 -0.0976311 8.31658 0.292893 8.70711L6.65685 15.0711C7.04738 15.4616 7.68054 15.4616 8.07107 15.0711C8.46159 14.6805 8.46159 14.0474 8.07107 13.6569L2.41421 8L8.07107 2.34315C8.46159 1.95262 8.46159 1.31946 8.07107 0.928932C7.68054 0.538408 7.04738 0.538408 6.65685 0.928932L0.292893 7.29289ZM1 9H5.93269V7H1V9ZM15.7981 9H25.6635V7H15.7981V9ZM35.5288 9H45.3942V7H35.5288V9ZM55.2596 9H65.125V7H55.2596V9ZM74.9904 9H84.8558V7H74.9904V9ZM94.7212 9H104.587V7H94.7212V9ZM114.452 9H124.317V7H114.452V9ZM134.183 9H144.048V7H134.183V9ZM153.913 9H163.779V7H153.913V9ZM173.644 9H183.51V7H173.644V9ZM193.375 9H203.24V7H193.375V9ZM213.106 9H222.971V7H213.106V9ZM232.837 9H242.702V7H232.837V9ZM252.567 9H257.5V7H252.567V9Z" fill="#38B990"/>
</svg>
