<svg width="364" height="322" viewBox="0 0 364 322" fill="none" xmlns="http://www.w3.org/2000/svg">
<path d="M350.983 1.12852C350.799 0.607869 350.227 0.335116 349.707 0.519316C349.186 0.703512 348.913 1.2749 349.097 1.79556L350.983 1.12852ZM0.419276 313.71C0.0384657 314.11 0.0540298 314.743 0.454041 315.124L6.97262 321.329C7.37263 321.709 8.00562 321.694 8.38643 321.294C8.76724 320.894 8.75168 320.261 8.35167 319.88L2.55737 314.365L8.07357 308.57C8.45438 308.17 8.43882 307.537 8.0388 307.156C7.63879 306.775 7.00581 306.791 6.62499 307.191L0.419276 313.71ZM10.0916 315.138C10.6436 315.119 11.0759 314.657 11.0572 314.105C11.0386 313.553 10.576 313.12 10.024 313.139L10.0916 315.138ZM27.4188 312.385C26.8672 312.414 26.4438 312.885 26.4729 313.437C26.502 313.988 26.9727 314.412 27.5243 314.382L27.4188 312.385ZM45.0129 313.279C45.5638 313.239 45.9776 312.76 45.9372 312.209C45.8968 311.658 45.4175 311.244 44.8667 311.285L45.0129 313.279ZM62.1248 309.831C61.575 309.884 61.1717 310.372 61.224 310.922C61.2763 311.472 61.7645 311.875 62.3143 311.822L62.1248 309.831ZM79.8258 309.947C80.3742 309.881 80.7659 309.384 80.7005 308.835C80.6352 308.287 80.1377 307.896 79.5892 307.961L79.8258 309.947ZM96.7115 305.703C96.1649 305.782 95.7859 306.29 95.865 306.836C95.9441 307.383 96.4513 307.762 96.9979 307.683L96.7115 305.703ZM114.383 304.922C114.927 304.828 115.292 304.311 115.198 303.766C115.104 303.222 114.586 302.857 114.042 302.952L114.383 304.922ZM131.174 299.725C130.633 299.836 130.283 300.364 130.394 300.905C130.504 301.446 131.032 301.795 131.573 301.685L131.174 299.725ZM148.492 297.954C149.029 297.826 149.361 297.287 149.234 296.749C149.106 296.212 148.567 295.88 148.03 296.008L148.492 297.954ZM165.036 291.65C164.504 291.797 164.191 292.347 164.338 292.879C164.485 293.412 165.035 293.725 165.568 293.578L165.036 291.65ZM182.367 288.603C182.893 288.435 183.185 287.873 183.017 287.347C182.85 286.82 182.288 286.529 181.762 286.696L182.367 288.603ZM198.191 281.101C197.672 281.29 197.405 281.864 197.594 282.383C197.783 282.902 198.357 283.169 198.876 282.98L198.191 281.101ZM215.089 276.649C215.599 276.436 215.839 275.851 215.626 275.341C215.414 274.831 214.828 274.591 214.318 274.804L215.089 276.649ZM230.265 267.669C229.767 267.908 229.557 268.505 229.795 269.003C230.034 269.501 230.631 269.712 231.129 269.473L230.265 267.669ZM246.74 261.465C247.224 261.199 247.401 260.591 247.135 260.107C246.869 259.623 246.261 259.446 245.777 259.712L246.74 261.465ZM260.772 250.881C260.305 251.176 260.166 251.793 260.461 252.26C260.755 252.727 261.373 252.867 261.84 252.572L260.772 250.881ZM276.339 242.741C276.786 242.416 276.884 241.791 276.559 241.344C276.234 240.898 275.608 240.799 275.162 241.125L276.339 242.741ZM288.835 230.406C288.413 230.762 288.36 231.393 288.716 231.815C289.072 232.237 289.703 232.29 290.125 231.934L288.835 230.406ZM303.07 220.13C303.463 219.743 303.468 219.11 303.08 218.716C302.692 218.323 302.059 218.319 301.666 218.706L303.07 220.13ZM313.518 206.033C313.158 206.452 313.205 207.083 313.624 207.444C314.042 207.804 314.674 207.757 315.034 207.338L313.518 206.033ZM325.881 193.593C326.204 193.145 326.103 192.52 325.655 192.197C325.207 191.874 324.582 191.975 324.259 192.423L325.881 193.593ZM333.793 177.898C333.511 178.372 333.667 178.986 334.142 179.268C334.616 179.55 335.23 179.394 335.512 178.919L333.793 177.898ZM343.798 163.436C344.037 162.938 343.826 162.34 343.328 162.102C342.83 161.864 342.233 162.074 341.994 162.573L343.798 163.436ZM348.776 146.592C348.583 147.109 348.846 147.685 349.364 147.878C349.882 148.07 350.457 147.807 350.65 147.289L348.776 146.592ZM356.029 130.617C356.175 130.085 355.862 129.534 355.33 129.388C354.797 129.242 354.247 129.555 354.101 130.088L356.029 130.617ZM357.973 113.142C357.873 113.685 358.232 114.206 358.776 114.306C359.319 114.405 359.84 114.046 359.94 113.503L357.973 113.142ZM362.382 96.1318C362.436 95.5822 362.034 95.0928 361.484 95.0388C360.935 94.9848 360.445 95.3866 360.391 95.9362L362.382 96.1318ZM361.389 78.6123C361.379 79.1645 361.819 79.6198 362.371 79.6294C362.923 79.6389 363.379 79.199 363.388 78.6468L361.389 78.6123ZM363 61.0897C362.967 60.5385 362.492 60.1191 361.941 60.153C361.39 60.1869 360.97 60.6612 361.004 61.2125L363 61.0897ZM359.274 43.95C359.35 44.497 359.856 44.8786 360.403 44.8023C360.95 44.7261 361.331 44.2208 361.255 43.6738L359.274 43.95ZM358.158 26.3778C358.039 25.8384 357.506 25.4972 356.967 25.6158C356.427 25.7344 356.086 26.2677 356.205 26.8071L358.158 26.3778ZM351.807 10.0189C351.968 10.547 352.528 10.844 353.056 10.6823C353.584 10.5206 353.881 9.96145 353.719 9.43338L351.807 10.0189ZM1.16815 315.399C4.16581 315.325 7.14024 315.238 10.0916 315.138L10.024 313.139C7.07883 313.239 4.11055 313.326 1.11899 313.4L1.16815 315.399ZM27.5243 314.382C33.451 314.069 39.2801 313.7 45.0129 313.279L44.8667 311.285C39.1477 311.705 33.3322 312.072 27.4188 312.385L27.5243 314.382ZM62.3143 311.822C68.2602 311.256 74.0968 310.63 79.8258 309.947L79.5892 307.961C73.8762 308.642 68.0553 309.266 62.1248 309.831L62.3143 311.822ZM96.9979 307.683C102.914 306.826 108.708 305.905 114.383 304.922L114.042 302.952C108.386 303.931 102.61 304.849 96.7115 305.703L96.9979 307.683ZM131.573 301.685C137.345 300.507 142.983 299.263 148.492 297.954L148.03 296.008C142.542 297.312 136.925 298.552 131.174 299.725L131.573 301.685ZM165.568 293.578C171.32 291.993 176.918 290.333 182.367 288.603L181.762 286.696C176.338 288.419 170.764 290.071 165.036 291.65L165.568 293.578ZM198.876 282.98C204.451 280.947 209.854 278.836 215.089 276.649L214.318 274.804C209.112 276.978 203.738 279.079 198.191 281.101L198.876 282.98ZM231.129 269.473C236.53 266.887 241.732 264.216 246.74 261.465L245.777 259.712C240.802 262.444 235.634 265.099 230.265 267.669L231.129 269.473ZM261.84 252.572C266.896 249.38 271.727 246.1 276.339 242.741L275.162 241.125C270.586 244.457 265.792 247.712 260.772 250.881L261.84 252.572ZM290.125 231.934C294.689 228.081 299 224.143 303.07 220.13L301.666 218.706C297.633 222.682 293.36 226.586 288.835 230.406L290.125 231.934ZM315.034 207.338C318.918 202.826 322.529 198.24 325.881 193.593L324.259 192.423C320.94 197.023 317.365 201.565 313.518 206.033L315.034 207.338ZM335.512 178.919C338.552 173.805 341.309 168.638 343.798 163.436L341.994 162.573C339.53 167.722 336.802 172.836 333.793 177.898L335.512 178.919ZM350.65 147.289C352.715 141.745 354.501 136.181 356.029 130.617L354.101 130.088C352.588 135.596 350.819 141.104 348.776 146.592L350.65 147.289ZM359.94 113.503C361.009 107.681 361.816 101.883 362.382 96.1318L360.391 95.9362C359.83 101.634 359.032 107.377 357.973 113.142L359.94 113.503ZM363.388 78.6468C363.492 72.7072 363.353 66.8458 363 61.0897L361.004 61.2125C361.354 66.9175 361.491 72.7265 361.389 78.6123L363.388 78.6468ZM361.255 43.6738C360.429 37.7431 359.386 31.9664 358.158 26.3778L356.205 26.8071C357.421 32.3457 358.455 38.0712 359.274 43.95L361.255 43.6738ZM353.719 9.43338C352.851 6.59568 351.937 3.82551 350.983 1.12852L349.097 1.79556C350.042 4.46533 350.946 7.20833 351.807 10.0189L353.719 9.43338Z" fill="#22B691"/>
</svg>
