<svg width="338" height="354" viewBox="0 0 338 354" fill="none" xmlns="http://www.w3.org/2000/svg">
<path d="M0.276459 346.714C-0.105042 346.315 -0.0906067 345.682 0.308716 345.3L6.8161 339.083C7.21542 338.702 7.84842 338.716 8.22992 339.115C8.61145 339.515 8.59702 340.148 8.19769 340.529L2.41336 346.056L7.93979 351.84C8.32132 352.239 8.30688 352.872 7.90756 353.254C7.50824 353.635 6.87521 353.621 6.49371 353.222L0.276459 346.714ZM502.263 9.73268C502.06 10.2464 501.479 10.4986 500.966 10.2959C500.452 10.0931 500.2 9.51235 500.402 8.99861L502.263 9.73268ZM493.393 25.6364C493.618 25.1322 494.21 24.9062 494.714 25.1316C495.218 25.357 495.444 25.9485 495.219 26.4527L493.393 25.6364ZM487.524 42.79C487.28 43.2851 486.68 43.488 486.185 43.2433C485.69 42.9985 485.487 42.3987 485.731 41.9036L487.524 42.79ZM477.449 57.9263C477.711 57.4402 478.318 57.2587 478.804 57.5208C479.29 57.7829 479.472 58.3895 479.21 58.8756L477.449 57.9263ZM470.343 74.6789C470.065 75.156 469.452 75.3173 468.975 75.0392C468.498 74.7611 468.337 74.1488 468.615 73.6717L470.343 74.6789ZM459.274 89.122C459.567 88.6539 460.184 88.5122 460.652 88.8054C461.12 89.0985 461.262 89.7156 460.969 90.1837L459.274 89.122ZM451.118 105.38C450.811 105.839 450.19 105.961 449.731 105.654C449.272 105.346 449.149 104.725 449.457 104.266L451.118 105.38ZM439.185 119.096C439.506 118.647 440.131 118.543 440.58 118.864C441.029 119.186 441.133 119.81 440.811 120.259L439.185 119.096ZM430.063 134.814C429.728 135.253 429.101 135.338 428.661 135.003C428.222 134.668 428.137 134.041 428.472 133.601L430.063 134.814ZM417.33 147.773C417.677 147.344 418.307 147.279 418.736 147.626C419.165 147.974 419.231 148.604 418.883 149.033L417.33 147.773ZM407.279 162.906C406.919 163.324 406.287 163.37 405.869 163.01C405.451 162.649 405.404 162.017 405.765 161.599L407.279 162.906ZM393.785 175.066C394.158 174.659 394.791 174.632 395.198 175.005C395.605 175.378 395.632 176.011 395.259 176.418L393.785 175.066ZM382.827 189.555C382.441 189.95 381.808 189.957 381.413 189.572C381.017 189.186 381.01 188.553 381.396 188.157L382.827 189.555ZM368.602 200.857C369 200.474 369.633 200.487 370.016 200.885C370.399 201.283 370.387 201.916 369.988 202.299L368.602 200.857ZM356.75 214.632C356.34 215.002 355.708 214.97 355.338 214.559C354.968 214.149 355 213.517 355.41 213.147L356.75 214.632ZM341.826 225.008C342.248 224.651 342.879 224.704 343.236 225.126C343.592 225.548 343.539 226.179 343.117 226.535L341.826 225.008ZM329.096 237.989C328.663 238.331 328.034 238.257 327.692 237.823C327.349 237.39 327.423 236.761 327.857 236.419L329.096 237.989ZM313.509 247.361C313.954 247.033 314.58 247.128 314.908 247.573C315.235 248.018 315.14 248.644 314.695 248.971L313.509 247.361ZM299.93 259.457C299.475 259.769 298.852 259.653 298.54 259.197C298.228 258.741 298.345 258.119 298.801 257.807L299.93 259.457ZM283.767 267.721C284.233 267.425 284.851 267.563 285.147 268.029C285.443 268.495 285.305 269.113 284.839 269.409L283.767 267.721ZM269.401 278.831C268.924 279.11 268.312 278.95 268.032 278.474C267.753 277.997 267.913 277.385 268.389 277.105L269.401 278.831ZM252.679 285.942C253.165 285.68 253.772 285.861 254.034 286.348C254.296 286.834 254.115 287.44 253.628 287.702L252.679 285.942ZM237.535 296.006C237.04 296.25 236.44 296.047 236.196 295.551C235.951 295.056 236.155 294.456 236.65 294.212L237.535 296.006ZM220.315 301.9C220.819 301.674 221.411 301.9 221.637 302.403C221.863 302.907 221.637 303.499 221.133 303.725L220.315 301.9ZM204.508 310.817C203.996 311.024 203.413 310.777 203.206 310.265C202.999 309.753 203.246 309.17 203.757 308.963L204.508 310.817ZM186.946 315.413C187.466 315.225 188.039 315.493 188.227 316.012C188.416 316.531 188.147 317.105 187.628 317.293L186.946 315.413ZM170.5 323.148C169.974 323.317 169.411 323.028 169.242 322.502C169.073 321.976 169.363 321.413 169.889 321.244L170.5 323.148ZM152.597 326.448C153.129 326.299 153.681 326.609 153.831 327.141C153.98 327.672 153.67 328.224 153.138 328.374L152.597 326.448ZM135.641 332.944C135.104 333.074 134.564 332.744 134.434 332.207C134.304 331.67 134.634 331.13 135.171 331L135.641 332.944ZM117.605 334.908C118.146 334.798 118.674 335.147 118.785 335.689C118.895 336.23 118.545 336.758 118.004 336.868L117.605 334.908ZM100.197 340.157C99.6521 340.247 99.1371 339.879 99.0466 339.334C98.9561 338.79 99.3244 338.275 99.8692 338.184L100.197 340.157ZM81.9818 340.828C82.5295 340.757 83.031 341.143 83.1021 341.691C83.1731 342.239 82.7866 342.74 82.2389 342.811L81.9818 340.828ZM64.3203 344.816C63.7704 344.868 63.2827 344.465 63.2308 343.915C63.1789 343.365 63.5826 342.877 64.1324 342.825L64.3203 344.816ZM46.1648 344.209C46.7161 344.176 47.1898 344.596 47.2227 345.147C47.2557 345.699 46.8356 346.172 46.2843 346.205L46.1648 344.209ZM28.1281 346.983C27.576 346.998 27.1167 346.562 27.1024 346.01C27.088 345.458 27.5239 344.999 28.076 344.984L28.1281 346.983ZM10.1266 345.158C10.6788 345.161 11.1236 345.612 11.1199 346.164C11.1163 346.716 10.6656 347.161 10.1134 347.158L10.1266 345.158ZM505.453 1.3433C504.453 4.07928 503.39 6.87722 502.263 9.73268L500.402 8.99861C501.523 6.15844 502.58 3.37632 503.574 0.656698L505.453 1.3433ZM495.219 26.4527C492.847 31.7576 490.283 37.2111 487.524 42.79L485.731 41.9036C488.479 36.3473 491.032 30.9172 493.393 25.6364L495.219 26.4527ZM479.21 58.8756C476.411 64.0656 473.456 69.3389 470.343 74.6789L468.615 73.6717C471.717 68.3507 474.661 63.0968 477.449 57.9263L479.21 58.8756ZM460.969 90.1837C457.82 95.2102 454.537 100.28 451.118 105.38L449.457 104.266C452.864 99.1836 456.136 94.1311 459.274 89.122L460.969 90.1837ZM440.811 120.259C437.349 125.099 433.767 129.954 430.063 134.814L428.472 133.601C432.164 128.758 435.734 123.919 439.185 119.096L440.811 120.259ZM418.883 149.033C415.126 153.666 411.258 158.293 407.279 162.906L405.765 161.599C409.73 157.002 413.585 152.39 417.33 147.773L418.883 149.033ZM395.259 176.418C391.218 180.822 387.075 185.203 382.827 189.555L381.396 188.157C385.629 183.821 389.758 179.455 393.785 175.066L395.259 176.418ZM369.988 202.299C365.674 206.449 361.261 210.562 356.75 214.632L355.41 213.147C359.905 209.092 364.303 204.993 368.602 200.857L369.988 202.299ZM343.117 226.535C338.537 230.404 333.864 234.224 329.096 237.989L327.857 236.419C332.607 232.669 337.263 228.862 341.826 225.008L343.117 226.535ZM314.695 248.971C309.864 252.528 304.942 256.026 299.93 259.457L298.801 257.807C303.793 254.389 308.696 250.904 313.509 247.361L314.695 248.971ZM284.839 269.409C279.779 272.621 274.633 275.763 269.401 278.831L268.389 277.105C273.601 274.05 278.727 270.92 283.767 267.721L284.839 269.409ZM253.628 287.702C248.347 290.549 242.983 293.319 237.535 296.006L236.65 294.212C242.076 291.536 247.419 288.778 252.679 285.942L253.628 287.702ZM221.133 303.725C215.671 306.175 210.129 308.54 204.508 310.817L203.757 308.963C209.356 306.696 214.875 304.34 220.315 301.9L221.133 303.725ZM187.628 317.293C181.995 319.336 176.286 321.289 170.5 323.148L169.889 321.244C175.65 319.393 181.336 317.447 186.946 315.413L187.628 317.293ZM153.138 328.374C147.378 329.992 141.545 331.517 135.641 332.944L135.171 331C141.052 329.579 146.86 328.06 152.597 326.448L153.138 328.374ZM118.004 336.868C112.137 338.062 106.201 339.16 100.197 340.157L99.8692 338.184C105.849 337.191 111.761 336.097 117.605 334.908L118.004 336.868ZM82.2389 342.811C76.3296 343.577 70.3568 344.247 64.3203 344.816L64.1324 342.825C70.1458 342.258 76.0955 341.591 81.9818 340.828L82.2389 342.811ZM46.2843 346.205C40.2926 346.564 34.2406 346.824 28.1281 346.983L28.076 344.984C34.1661 344.826 40.1957 344.566 46.1648 344.209L46.2843 346.205ZM10.1134 347.158C7.08221 347.138 4.03665 347.093 0.976715 347.023L1.02231 345.024C4.07147 345.093 7.1062 345.138 10.1266 345.158L10.1134 347.158Z" fill="#22B691"/>
</svg>
