<svg width="258" height="16" viewBox="0 0 258 16" fill="none" xmlns="http://www.w3.org/2000/svg">
<path d="M257.707 8.70711C258.098 8.31658 258.098 7.68342 257.707 7.29289L251.343 0.928932C250.953 0.538408 250.319 0.538408 249.929 0.928932C249.538 1.31946 249.538 1.95262 249.929 2.34315L255.586 8L249.929 13.6569C249.538 14.0474 249.538 14.6805 249.929 15.0711C250.319 15.4616 250.953 15.4616 251.343 15.0711L257.707 8.70711ZM257 7L252.067 7V9H257V7ZM242.202 7L232.337 7V9L242.202 9V7ZM222.471 7L212.606 7V9L222.471 9V7ZM202.74 7L192.875 7V9H202.74V7ZM183.01 7L173.144 7V9L183.01 9V7ZM163.279 7L153.413 7V9L163.279 9V7ZM143.548 7L133.683 7V9H143.548V7ZM123.817 7L113.952 7V9L123.817 9V7ZM104.087 7L94.2211 7V9H104.087V7ZM84.3557 7L74.4904 7V9L84.3557 9V7ZM64.625 7L54.7596 7V9L64.625 9V7ZM44.8942 7L35.0288 7V9H44.8942V7ZM25.1634 7L15.298 7V9L25.1634 9V7ZM5.43265 7H0.5V9L5.43265 9V7Z" fill="#38B990"/>
</svg>
