<svg width="26" height="18" viewBox="0 0 26 18" fill="none" xmlns="http://www.w3.org/2000/svg">
<path d="M13.5093 17.2086L8.43687 17.1158C6.79453 17.0835 5.1481 17.148 3.53796 16.8131C1.08857 16.3127 0.915042 13.8593 0.733468 11.8013C0.483276 8.90796 0.580133 5.96215 1.05228 3.093C1.31882 1.48311 2.36776 0.522472 3.98991 0.417937C9.46588 0.0385629 14.9783 0.0835227 20.4421 0.260514C21.0191 0.27674 21.6001 0.365421 22.1691 0.466365C24.9778 0.958696 25.0463 3.73904 25.2284 6.07956C25.41 8.44424 25.3333 10.8211 24.9863 13.1696C24.7078 15.1142 24.1751 16.7449 21.927 16.9023C19.1102 17.1082 16.3581 17.2739 13.5335 17.2211C13.5336 17.2086 13.5174 17.2086 13.5093 17.2086ZM10.5272 12.2855C12.6499 11.0668 14.732 9.86835 16.8426 8.65777C14.7159 7.43902 12.6377 6.24058 10.5272 5.03V12.2855Z" fill="white"/>
</svg>
